<?xml version="1.0" ?><!DOCTYPE svg  PUBLIC '-//W3C//DTD SVG 1.1//EN'  'http://www.w3.org/Graphics/SVG/1.1/DTD/svg11.dtd'><svg enable-background="new 0 0 32 32" height="32px" id="Слой_1" version="1.1" viewBox="0 0 32 32" width="32px" xml:space="preserve" xmlns="http://www.w3.org/2000/svg" xmlns:xlink="http://www.w3.org/1999/xlink"><g id="Double_Chevron"><path d="M31.708,15.286l-9.002-8.999c-0.395-0.394-1.035-0.394-1.431,0c-0.395,0.394-0.395,1.034,0,1.428L29.563,16   l-8.287,8.285c-0.395,0.394-0.395,1.034,0,1.429c0.395,0.394,1.036,0.394,1.431,0l9.002-8.999   C32.097,16.325,32.097,15.675,31.708,15.286z" fill="#121313"/><path d="M10.725,6.287c-0.395-0.394-1.036-0.394-1.431,0l-9.002,8.999c-0.39,0.389-0.39,1.039,0,1.429l9.002,8.999   c0.395,0.394,1.035,0.394,1.431,0c0.395-0.394,0.395-1.034,0-1.428L2.437,16l8.287-8.285C11.12,7.321,11.12,6.681,10.725,6.287z" fill="#121313"/></g><g/><g/><g/><g/><g/><g/></svg>