<?xml version="1.0" ?><!DOCTYPE svg  PUBLIC '-//W3C//DTD SVG 1.1//EN'  'http://www.w3.org/Graphics/SVG/1.1/DTD/svg11.dtd'><svg enable-background="new 0 0 32 32" height="32px" id="Слой_1" version="1.1" viewBox="0 0 32 32" width="32px" xml:space="preserve" xmlns="http://www.w3.org/2000/svg" xmlns:xlink="http://www.w3.org/1999/xlink"><g id="Double_Chevron_Right"><path d="M23.662,15.286l-6.9-6.999c-0.39-0.394-1.024-0.394-1.414,0c-0.391,0.394-0.391,1.034,0,1.428L21.544,16   l-6.196,6.285c-0.391,0.394-0.391,1.034,0,1.428c0.391,0.394,1.024,0.394,1.414,0l6.899-6.999   C24.038,16.335,24.039,15.666,23.662,15.286z" fill="#121313"/><path d="M16.662,15.286L9.763,8.287c-0.391-0.394-1.024-0.394-1.414,0c-0.391,0.394-0.391,1.034,0,1.428L14.544,16   l-6.196,6.285c-0.391,0.394-0.391,1.034,0,1.428c0.391,0.394,1.024,0.394,1.414,0l6.899-6.999   C17.038,16.335,17.039,15.666,16.662,15.286z" fill="#121313"/></g><g/><g/><g/><g/><g/><g/></svg>