<?xml version="1.0" ?><!DOCTYPE svg  PUBLIC '-//W3C//DTD SVG 1.1//EN'  'http://www.w3.org/Graphics/SVG/1.1/DTD/svg11.dtd'><svg enable-background="new 0 0 32 32" height="32px" id="Слой_1" version="1.1" viewBox="0 0 32 32" width="32px" xml:space="preserve" xmlns="http://www.w3.org/2000/svg" xmlns:xlink="http://www.w3.org/1999/xlink"><g id="Double_Chevron_Left"><path d="M10.456,16l6.196-6.285c0.391-0.394,0.391-1.034,0-1.428c-0.391-0.394-1.024-0.394-1.414,0l-6.899,6.999   c-0.375,0.379-0.377,1.048,0,1.429l6.9,6.999c0.39,0.394,1.024,0.394,1.414,0c0.391-0.394,0.391-1.034,0-1.428L10.456,16z" fill="#121313"/><path d="M17.456,16l6.196-6.285c0.391-0.394,0.391-1.034,0-1.428c-0.391-0.394-1.024-0.394-1.414,0l-6.899,6.999   c-0.375,0.379-0.377,1.048,0,1.429l6.899,6.999c0.391,0.394,1.024,0.394,1.414,0c0.391-0.394,0.391-1.034,0-1.428L17.456,16z" fill="#121313"/></g><g/><g/><g/><g/><g/><g/></svg>