<?xml version="1.0" ?><!DOCTYPE svg  PUBLIC '-//W3C//DTD SVG 1.1//EN'  'http://www.w3.org/Graphics/SVG/1.1/DTD/svg11.dtd'><svg enable-background="new 0 0 32 32" height="32px" id="Слой_1" version="1.1" viewBox="0 0 32 32" width="32px" xml:space="preserve" xmlns="http://www.w3.org/2000/svg" xmlns:xlink="http://www.w3.org/1999/xlink"><g id="Double_Chevron_Up"><path d="M9.715,16.651L16,10.456l6.285,6.196c0.394,0.391,1.034,0.391,1.428,0c0.394-0.391,0.394-1.024,0-1.414   l-6.999-6.899c-0.379-0.375-1.048-0.377-1.429,0l-6.999,6.9c-0.394,0.39-0.394,1.024,0,1.414   C8.681,17.042,9.321,17.042,9.715,16.651z" fill="#121313"/><path d="M16.714,15.338c-0.379-0.375-1.048-0.377-1.429,0l-6.999,6.899c-0.394,0.391-0.394,1.024,0,1.414   c0.394,0.391,1.034,0.391,1.428,0L16,17.456l6.285,6.196c0.394,0.391,1.034,0.391,1.428,0c0.394-0.391,0.394-1.024,0-1.414   L16.714,15.338z" fill="#121313"/></g><g/><g/><g/><g/><g/><g/></svg>