<?xml version="1.0" ?><svg viewBox="0 0 64 64" xmlns="http://www.w3.org/2000/svg"><path d="M20.057 16.11c-.368.323-1.47 1.334-1.61 2.852-.136 1.517.553 2.712.783 2.988.23.276 1.15-.184 1.057-.69-.092-.506-.368-.322-.414-1.84-.046-1.516 1.057-2.62 1.103-2.896.046-.275-.71-.595-.92-.413zM9.81 12.57c.505-1.195.78-4.828.918-4.874.138-.046 2.252 1.287 2.62 1.333.368.045 1.38-2.576 1.38-3.036 0-.46-3.02-2.973-3.448-2.76-.735.37-2.987 6.99-2.987 6.99s-3.63-.782-4.136.736c-.506 1.517.23 2.85 1.976 3.218 1.746.37 3.17-.412 3.676-1.608zm4.687 31.45c-.046.46 3.033 5.747 3.033 5.747-.965-.092-2.666-.092-3.355 1.38-.69 1.47.69 3.77 2.71 3.034 2.023-.735 1.15-2.482 1.15-2.482s1.195.414 1.47-.414c.277-.828-3.676-7.77-4.043-7.954-.368-.184-.92.23-.965.69zM34.58 9.122c.827.552 2.94.276 3.447-.368.506-.644 1.517-6.483 1.517-6.483s1.654 1.104 1.93.83c.276-.277.276-.37.276-.83 0-.46-2.895-2.482-3.263-2.252-.368.23-1.425 5.793-1.425 5.793-.506-.367-1.884-.55-2.803.415-.92.966-.508 2.345.32 2.897zm21.875 22.943c-1.287-.184-18.107 6.3-18.245 6.3-.138 0-3.998-7.633-4.274-8.14-.276-.505 10.478-8.275 10.524-8.597.046-.322.506-7.862 0-8.506-.506-.644-6.388-.092-6.848.276-.46.368-.368 5.977-.735 6.62-.368.645-6.526 4.875-7.077 4.875s-2.85-.46-2.85-.46c2.023-1.47 2.666-5.426 2.115-7.724-.55-2.3-4.136-6.53-9.375-4.6s-6.158 6.07-4.504 9.84c1.654 3.77 6.71 4.322 6.71 4.322 0 .368-.643 3.218-1.057 3.494-.415.276-8.733-.506-9.008-.644-.276-.138-1.195-3.77-2.022-6.207s-2.252-2.07-2.85-2.023c-.597.046-2.02.598-2.297 1.517-.276.92 1.654 11.953 1.654 11.953s18.2 2.207 18.704 2.3c.507.09 5.608 8.275 5.608 8.597 0 .322-.368 13.058-.368 13.196 0 .138-2.022.23-2.436.138-.414-.092-1.608.23-1.838 1.103-.23.874.276 3.908.276 3.908 1.976.874 10.11.092 10.386-.414.276-.505 1.517-16.78 1.93-17.287.414-.506 19.99-6.99 20.13-7.08.137-.093-.047-3.22-.37-4.185-.32-.964-.596-2.39-1.883-2.573zM20.057 14.363c2.646-1.312 4.733-.598 6.066 1.885 1.333 2.483 1.746 7.494-3.814 7.816s-7.72-6.988-2.253-9.7zm36.49 22.898c-.138.46-19.99 7.036-20.543 7.955-.55.92-.735 16.506-1.287 16.736-.55.23-6.802.783-6.893.37-.092-.415-.322-1.886-.046-1.886s4.55-.644 4.55-.828c0-.184.322-15.035.276-15.54-.046-.507-5.79-8.967-6.25-9.29-.46-.32-17.923-1.654-18.245-2.022-.323-.368-1.84-8.874-.874-9.288.514-.22 1.195 3.127 2.068 5.333.873 2.206 1.01 2.344 1.792 2.574.78.23 8.824.092 10.064.092 1.24 0 2.068-.644 2.252-.92.184-.276.55-2.805 1.333-3.173.78-.368 3.31-1.287 3.63-1.103.323.184 1.196 1.287 1.518 1.15.322-.14 9.1-6.162 9.237-6.622.138-.46-.414-5.61.23-5.977.643-.367 2.757-.367 2.895-.045.138.322.322 5.517.092 5.84-.23.32-11.167 8.183-11.167 8.78 0 .6 5.24 11.91 6.48 11.772 1.24-.138 18.107-7.127 18.29-7.035.183.094.735 2.67.597 3.13zm3.263-20c-.55-.92-7.858-2.76-8.272-2.667-.414.092.002 6.983-.322 6.897-1.38-.368-2.895.138-3.263.644-.368.506-.92 2.53.276 3.173 1.194.644 3.905.138 4.227-.552.322-.69.138-5.655.138-5.655s5.147 1.885 5.33 2.16c.185.277 0 2.024 0 2.024s-.642-.46-1.79-.23c-1.15.23-1.655 1.517-1.196 3.22.46 1.7 3.813 1.148 4.227.69.413-.462 1.194-8.784.643-9.704zm-1.61 2.76c-.413-.23-5.468-2.162-5.56-2.346-.092-.184-.092-1.287.184-1.38.222-.073 5.423 1.564 5.47 1.886s.32 2.07-.093 1.84zM26.4 30.27c-.598-.23-1.104.414-1.104.644 0 .23 1.057 1.93 1.562 2.3.506.367.643-.323.643-.6s-.637-2.165-1.1-2.344z"/></svg>