<?xml version="1.0" ?><!DOCTYPE svg  PUBLIC '-//W3C//DTD SVG 1.1//EN'  'http://www.w3.org/Graphics/SVG/1.1/DTD/svg11.dtd'><svg enable-background="new 0 0 32 32" height="32px" id="Слой_1" version="1.1" viewBox="0 0 32 32" width="32px" xml:space="preserve" xmlns="http://www.w3.org/2000/svg" xmlns:xlink="http://www.w3.org/1999/xlink"><g id="Download"><path d="M31,22c-0.552,0-1,0.448-1,1v7H2v-7c0-0.552-0.448-1-1-1s-1,0.448-1,1v8c0,0.552,0.448,1,1,1h30   c0.552,0,1-0.448,1-1v-8C32,22.448,31.552,22,31,22z" fill="#121313"/><path d="M15.27,23.707c0.389,0.385,1.04,0.389,1.429,0l6.999-6.9c0.395-0.391,0.394-1.024,0-1.414   c-0.394-0.391-1.034-0.391-1.428,0l-5.275,5.2V1c0-0.552-0.452-1-1.01-1c-0.558,0-1.01,0.448-1.01,1v19.593l-5.275-5.2   c-0.395-0.391-1.034-0.391-1.428,0c-0.395,0.391-0.395,1.024,0,1.414L15.27,23.707z" fill="#121313"/></g><g/><g/><g/><g/><g/><g/></svg>