<?xml version="1.0" ?><!DOCTYPE svg  PUBLIC '-//W3C//DTD SVG 1.1//EN'  'http://www.w3.org/Graphics/SVG/1.1/DTD/svg11.dtd'><svg enable-background="new 0 0 32 32" height="32px" id="Слой_1" version="1.1" viewBox="0 0 32 32" width="32px" xml:space="preserve" xmlns="http://www.w3.org/2000/svg" xmlns:xlink="http://www.w3.org/1999/xlink"><path d="M9.715,23.393c-0.394-0.391-1.034-0.391-1.428,0c-0.394,0.391-0.394,1.024,0,1.414  l6.999,6.899c0.386,0.379,1.04,0.385,1.429-0.001l6.998-6.899c0.394-0.391,0.394-1.024,0-1.414c-0.395-0.39-1.034-0.391-1.429,0  l-5.274,5.2V3.406l5.275,5.2c0.395,0.391,1.034,0.39,1.428,0c0.395-0.391,0.395-1.024,0-1.414l-6.999-6.899  c-0.4-0.397-1.028-0.365-1.429,0L8.287,7.192c-0.395,0.391-0.394,1.024,0,1.414c0.394,0.391,1.034,0.391,1.428,0l5.275-5.2v25.187  L9.715,23.393z" fill="#121313" id="Arrows_Up_x2F_Down"/><g/><g/><g/><g/><g/><g/></svg>