<?xml version="1.0" ?><svg id="Icons_Run" overflow="hidden" version="1.1" viewBox="0 0 96 96" xmlns="http://www.w3.org/2000/svg" xmlns:xlink="http://www.w3.org/1999/xlink"><g><circle cx="64.2" cy="13" r="8"/><path d=" M 83.6 24 C 81.6 23 79.2 23.7 78.2 25.7 L 74.7 32.3 L 59.3 22.6 C 58.7 22.2 58 22 57.2 22 L 40.2 22 C 38.7 22 37.4 22.8 36.7 24.1 L 30.2 36.1 C 29.1 38 29.9 40.5 31.8 41.5 C 32.4 41.8 33.1 42 33.7 42 C 35.1 42 36.5 41.2 37.2 39.9 L 42.6 30 L 48.5 30 L 30.8 63 L 14.2 63 C 12 63 10.2 64.8 10.2 67 C 10.2 69.2 12 71 14.2 71 L 33.2 71 C 34.7 71 36 70.2 36.7 68.9 L 43.7 56 L 55.2 66.7 L 54.3 86.8 C 54.1 89 55.8 90.9 58 91 C 58.1 91 58.1 91 58.2 91 C 60.3 91 62.1 89.3 62.2 87.2 L 63.2 65.2 C 63.3 64 62.8 62.9 61.9 62.1 L 52.2 53.1 L 62.4 34.1 L 74 41.4 C 74.9 42 76.1 42.2 77.2 41.9 C 78.3 41.6 79.2 40.9 79.7 39.9 L 85.2 29.4 C 86.3 27.5 85.6 25.1 83.6 24 Z"/></g></svg>