<?xml version="1.0" encoding="iso-8859-1"?>
<!-- Generator: Adobe Illustrator 16.0.0, SVG Export Plug-In . SVG Version: 6.00 Build 0)  -->
<!DOCTYPE svg PUBLIC "-//W3C//DTD SVG 1.1//EN" "http://www.w3.org/Graphics/SVG/1.1/DTD/svg11.dtd">
<svg version="1.1" id="Capa_1" xmlns="http://www.w3.org/2000/svg" xmlns:xlink="http://www.w3.org/1999/xlink" x="0px" y="0px"
	 width="612px" height="612px" viewBox="0 0 612 612" style="enable-background:new 0 0 612 612;" xml:space="preserve">
<g>
	<path d="M511.981,612h-35.492c-7.888,0-14.289-6.401-14.289-14.288c0-7.888,6.401-14.289,14.289-14.289h35.492
		c39.407,0,71.441-32.034,71.441-71.441v-35.063c0-7.888,6.401-14.289,14.289-14.289c7.887,0,14.288,6.401,14.288,14.289v35.063
		C612,567.135,567.135,612,511.981,612z M135.683,612h-35.664C44.866,612,0,567.135,0,511.981v-35.063
		c0-7.888,6.401-14.289,14.289-14.289s14.288,6.401,14.288,14.289v35.063c0,39.407,32.035,71.441,71.442,71.441h35.664
		c7.887,0,14.288,6.401,14.288,14.289C149.971,605.599,143.57,612,135.683,612z M476.489,559.59c-7.888,0-14.289-6.4-14.289-14.288
		c0-7.887,6.401-14.288,14.289-14.288c31.091,0,54.524-23.233,54.524-54.096c0-7.888,6.401-14.289,14.288-14.289
		c7.888,0,14.288,6.401,14.288,14.289C559.59,523.298,523.098,559.59,476.489,559.59z M135.683,559.59
		c-46.723,0-83.301-36.32-83.301-82.672c0-7.888,6.401-14.289,14.288-14.289s14.289,6.401,14.289,14.289
		c0,30.834,23.519,54.096,54.725,54.096c7.887,0,14.288,6.401,14.288,14.288C149.971,553.189,143.57,559.59,135.683,559.59z
		 M597.712,151.314c-7.888,0-14.289-6.401-14.289-14.289v-37.007c0-39.407-32.034-71.442-71.441-71.442h-35.492
		c-7.888,0-14.289-6.401-14.289-14.288S468.602,0,476.489,0h35.492C567.135,0,612,44.866,612,100.019v37.007
		C612,144.913,605.599,151.314,597.712,151.314z M545.302,151.314c-7.887,0-14.288-6.401-14.288-14.289
		c0-31.434-23.947-56.039-54.524-56.039c-7.888,0-14.289-6.401-14.289-14.288s6.401-14.289,14.289-14.289
		c46.608,0,83.101,37.178,83.101,84.616C559.59,144.913,553.189,151.314,545.302,151.314z M66.669,151.314
		c-7.887,0-14.288-6.401-14.288-14.289c0-47.438,36.578-84.616,83.301-84.616c7.887,0,14.288,6.401,14.288,14.289
		s-6.401,14.288-14.288,14.288c-30.691,0-54.725,24.605-54.725,56.039C80.958,144.913,74.557,151.314,66.669,151.314z
		 M14.289,151.314C6.401,151.314,0,144.913,0,137.025v-37.007C0,44.866,44.866,0,100.019,0h35.664
		c7.887,0,14.288,6.401,14.288,14.289s-6.401,14.288-14.288,14.288h-35.664c-39.407,0-71.442,32.035-71.442,71.442v37.007
		C28.577,144.913,22.176,151.314,14.289,151.314z"/>
</g>
<g>
</g>
<g>
</g>
<g>
</g>
<g>
</g>
<g>
</g>
<g>
</g>
<g>
</g>
<g>
</g>
<g>
</g>
<g>
</g>
<g>
</g>
<g>
</g>
<g>
</g>
<g>
</g>
<g>
</g>
</svg>
