<svg width="59.99999999999999" height="59.99999999999999" xmlns="http://www.w3.org/2000/svg">
 <title/>

 <g>
  <title>background</title>
  <rect fill="none" id="canvas_background" height="402" width="582" y="-1" x="-1"/>
 </g>
 <g>
  <title>Layer 1</title>
  <path transform="rotate(-90 29.999988555908207,30.0000114440918) " id="svg_1" d="m59,0l-4,0a1.00013,1.00013 0 0 0 -0.707,0.293l-38.293,38.29294l-4.293,-4.293a0.99964,0.99964 0 0 0 -1.41406,0l-3,3a0.99964,0.99964 0 0 0 0,1.41406l4.793,4.793l-8.54657,8.54657a3.98946,3.98946 0 1 0 4.41406,4.41406l8.54657,-8.54657l4.793,4.793a0.99964,0.99964 0 0 0 1.41406,0l3,-3a0.99964,0.99964 0 0 0 0,-1.41406l-4.293,-4.293l38.29294,-38.293a1.00013,1.00013 0 0 0 0.293,-0.707l0,-4a1,1 0 0 0 -1,-1zm-53.09216,52.50623l1.59216,-1.59217l1.58594,1.58594l-1.59217,1.59216a3.99876,3.99876 0 0 0 -1.58593,-1.58593zm3.00622,-3.00623l1.58594,-1.58594l1.58594,1.58594l-1.58594,1.58594l-1.58594,-1.58594zm-4.91406,8.5a2,2 0 1 1 2,-2a2.00229,2.00229 0 0 1 -2,2zm9.5,-9.91406l-1.58594,-1.58594l1.58594,-1.58594l1.58594,1.58594l-1.58594,1.58594zm8.5,2.5l-12.58594,-12.58594l1.58594,-1.58594l12.58594,12.58594l-1.58594,1.58594zm36,-46l-38,38l-2.58594,-2.58594l38,-38l2.58594,0l0,2.58594z"/>
 </g>
</svg>