<?xml version="1.0" ?><svg viewBox="0 0 60 60" xmlns="http://www.w3.org/2000/svg"><title/><g data-name="Layer 1" id="Layer_1"><path d="M59,0H55a1.00013,1.00013,0,0,0-.707.293L16,38.58594l-4.293-4.293a.99964.99964,0,0,0-1.41406,0l-3,3a.99964.99964,0,0,0,0,1.41406l4.793,4.793L3.53937,52.04657a3.98946,3.98946,0,1,0,4.41406,4.41406L16.5,47.91406l4.793,4.793a.99964.99964,0,0,0,1.41406,0l3-3a.99964.99964,0,0,0,0-1.41406L21.41406,44,59.707,5.707A1.00013,1.00013,0,0,0,60,5V1A1,1,0,0,0,59,0ZM5.90784,52.50623,7.5,50.91406,9.08594,52.5,7.49377,54.09216A3.99876,3.99876,0,0,0,5.90784,52.50623ZM8.91406,49.5,10.5,47.91406,12.08594,49.5,10.5,51.08594ZM4,58a2,2,0,1,1,2-2A2.00229,2.00229,0,0,1,4,58Zm9.5-9.91406L11.91406,46.5,13.5,44.91406,15.08594,46.5Zm8.5,2.5L9.41406,38,11,36.41406,23.58594,49Zm36-46-38,38L17.41406,40l38-38H58Z"/></g></svg>