G04 Layer_Physical_Order=1*
G04 Layer_Color=255*
%FSLAX44Y44*%
%MOMM*%
G71*
G01*
G75*
%ADD10R,1.4000X1.4000*%
%ADD11R,2.5000X4.0000*%
%ADD12R,1.4000X4.6000*%
%ADD13R,4.0000X2.5000*%
%ADD14R,2.0000X2.0000*%
%ADD15R,4.4000X10.0000*%
%ADD16R,5.2000X5.2000*%
%ADD17R,5.2000X5.2000*%
%ADD18R,1.0000X1.0000*%
%ADD19R,1.4000X1.4000*%
%ADD20R,1.2000X1.2000*%
%ADD21R,11.0000X11.0000*%
%ADD22R,0.9000X3.0000*%
%ADD23R,2.1500X3.2500*%
%ADD24R,2.1500X1.0000*%
%ADD25R,8.0000X6.0000*%
%ADD26R,3.0000X2.0000*%
%ADD27C,1.2000*%
%ADD28C,0.4000*%
%ADD29C,0.5000*%
%ADD30C,0.2000*%
%ADD31C,0.6000*%
%ADD32C,0.3000*%
%ADD33C,1.0000*%
%ADD34C,1.7000*%
%ADD35R,1.7000X1.7000*%
G04:AMPARAMS|DCode=36|XSize=1.7mm|YSize=1.7mm|CornerRadius=0.425mm|HoleSize=0mm|Usage=FLASHONLY|Rotation=270.000|XOffset=0mm|YOffset=0mm|HoleType=Round|Shape=RoundedRectangle|*
%AMROUNDEDRECTD36*
21,1,1.7000,0.8500,0,0,270.0*
21,1,0.8500,1.7000,0,0,270.0*
1,1,0.8500,-0.4250,-0.4250*
1,1,0.8500,-0.4250,0.4250*
1,1,0.8500,0.4250,0.4250*
1,1,0.8500,0.4250,-0.4250*
%
%ADD36ROUNDEDRECTD36*%
G04:AMPARAMS|DCode=37|XSize=1.7mm|YSize=1.7mm|CornerRadius=0.425mm|HoleSize=0mm|Usage=FLASHONLY|Rotation=0.000|XOffset=0mm|YOffset=0mm|HoleType=Round|Shape=RoundedRectangle|*
%AMROUNDEDRECTD37*
21,1,1.7000,0.8500,0,0,0.0*
21,1,0.8500,1.7000,0,0,0.0*
1,1,0.8500,0.4250,-0.4250*
1,1,0.8500,-0.4250,-0.4250*
1,1,0.8500,-0.4250,0.4250*
1,1,0.8500,0.4250,0.4250*
%
%ADD37ROUNDEDRECTD37*%
%ADD38R,1.7000X1.7000*%
%ADD39C,6.0000*%
%ADD40C,0.7000*%
G36*
X915000Y675000D02*
X845000D01*
X845000Y735000D01*
X915000D01*
X915000Y675000D01*
D02*
G37*
G36*
X669000Y83232D02*
Y65000D01*
X692922D01*
Y63000D01*
X637000D01*
Y62039D01*
X610000Y62039D01*
X609220Y61884D01*
X608558Y61442D01*
X608309Y61069D01*
X607039Y61381D01*
Y88922D01*
X637000D01*
Y79500D01*
X649000D01*
X661000D01*
Y88922D01*
X663311D01*
X669000Y83232D01*
D02*
G37*
G36*
X650000Y840000D02*
Y675000D01*
X540000Y675000D01*
X540000Y820000D01*
X540000Y840000D01*
X650000Y840000D01*
D02*
G37*
G36*
X185000Y675000D02*
X85000D01*
X85000Y735000D01*
X185000D01*
X185000Y675000D01*
D02*
G37*
G36*
X650000Y265000D02*
Y100000D01*
X540000Y100000D01*
X540000Y245000D01*
X540000Y265000D01*
X650000Y265000D01*
D02*
G37*
G36*
X915000Y100000D02*
X845000D01*
X845000Y160000D01*
X915000D01*
X915000Y100000D01*
D02*
G37*
G36*
X155000Y560000D02*
X85000D01*
X85000Y620000D01*
X155000D01*
X155000Y560000D01*
D02*
G37*
G36*
X671000Y305000D02*
X740000D01*
X740000Y100000D01*
X655000Y100000D01*
X655000Y270000D01*
X628000D01*
X628000Y322000D01*
X671000D01*
Y305000D01*
D02*
G37*
G36*
X185000Y100000D02*
X85000D01*
X85000Y160000D01*
X185000D01*
X185000Y100000D01*
D02*
G37*
G36*
X671000Y880000D02*
X740000D01*
X740000Y675000D01*
X655000Y675000D01*
X655000Y845000D01*
X628000D01*
X628000Y897000D01*
X671000D01*
Y880000D01*
D02*
G37*
G36*
X915000Y845000D02*
X815000D01*
X815000Y905000D01*
X915000D01*
X915000Y845000D01*
D02*
G37*
G36*
X790000Y810000D02*
X745000D01*
Y880000D01*
X790000D01*
Y810000D01*
D02*
G37*
G36*
X977451Y2549D02*
X690000D01*
Y7000D01*
X693000D01*
Y19501D01*
X693642Y19855D01*
X694270Y19962D01*
X697616Y16616D01*
X697616Y16616D01*
X698939Y15732D01*
X700500Y15422D01*
X700500Y15422D01*
X703000D01*
Y12500D01*
X728500D01*
Y26500D01*
X703000D01*
Y25092D01*
X701745Y24527D01*
X701078Y25045D01*
Y73000D01*
X700768Y74561D01*
X699884Y75884D01*
X699884Y75884D01*
X695884Y79884D01*
X694561Y80768D01*
X693000Y81078D01*
X693000Y81078D01*
Y89000D01*
X674768D01*
X667884Y95884D01*
X667674Y96024D01*
X667364Y97750D01*
X667515Y97961D01*
X740000Y97961D01*
X740780Y98116D01*
X741442Y98558D01*
X741836Y99147D01*
X742402Y99220D01*
X742598D01*
X743165Y99147D01*
X743558Y98558D01*
X744220Y98116D01*
X745000Y97961D01*
X840000D01*
X840780Y98116D01*
X841442Y98558D01*
X841836Y99147D01*
X842399Y99220D01*
X842601D01*
X843164Y99147D01*
X843558Y98558D01*
X844220Y98116D01*
X845000Y97961D01*
X915000D01*
X915780Y98116D01*
X916442Y98558D01*
X916884Y99220D01*
X917039Y100000D01*
Y123210D01*
X918309Y123462D01*
X919012Y121765D01*
X920294Y120094D01*
X924094Y116294D01*
X925766Y115012D01*
X927712Y114206D01*
X929800Y113931D01*
X937789D01*
X938705Y113228D01*
X941259Y112170D01*
X944000Y111809D01*
X946741Y112170D01*
X949295Y113228D01*
X951489Y114911D01*
X953172Y117105D01*
X954230Y119659D01*
X954591Y122400D01*
X954230Y125141D01*
X953172Y127695D01*
X951489Y129889D01*
X949295Y131572D01*
X946741Y132630D01*
X944000Y132991D01*
X941259Y132630D01*
X938705Y131572D01*
X936746Y130069D01*
X934069D01*
Y141408D01*
X935339Y141839D01*
X936511Y140311D01*
X938705Y138628D01*
X941259Y137570D01*
X941500Y137538D01*
Y147800D01*
Y158062D01*
X941259Y158030D01*
X938705Y156972D01*
X936511Y155289D01*
X935339Y153761D01*
X934069Y154192D01*
Y177887D01*
X934109Y177900D01*
X935339Y178181D01*
X937311Y176863D01*
X939750Y176378D01*
X948250D01*
X950689Y176863D01*
X952756Y178244D01*
X954137Y180311D01*
X954622Y182750D01*
Y191250D01*
X954137Y193689D01*
X952756Y195756D01*
X950689Y197137D01*
X948250Y197622D01*
X939750D01*
X937311Y197137D01*
X935339Y195819D01*
X934109Y196100D01*
X934069Y196112D01*
Y204331D01*
X937268D01*
X938705Y203228D01*
X941259Y202170D01*
X944000Y201809D01*
X946741Y202170D01*
X949295Y203228D01*
X951489Y204911D01*
X953172Y207105D01*
X954230Y209659D01*
X954591Y212400D01*
X954230Y215141D01*
X953172Y217695D01*
X951489Y219889D01*
X949295Y221572D01*
X946741Y222630D01*
X944000Y222991D01*
X941259Y222630D01*
X938705Y221572D01*
X937268Y220469D01*
X934069D01*
Y231408D01*
X935339Y231839D01*
X936511Y230311D01*
X938705Y228628D01*
X941259Y227570D01*
X941500Y227539D01*
Y237800D01*
Y248061D01*
X941259Y248030D01*
X938705Y246972D01*
X936511Y245289D01*
X935339Y243761D01*
X934069Y244192D01*
Y267687D01*
X934109Y267700D01*
X935339Y267980D01*
X937311Y266663D01*
X939750Y266178D01*
X948250D01*
X950689Y266663D01*
X952756Y268044D01*
X954137Y270111D01*
X954622Y272550D01*
Y281050D01*
X954137Y283489D01*
X952756Y285556D01*
X950689Y286937D01*
X948250Y287422D01*
X939750D01*
X937311Y286937D01*
X935339Y285619D01*
X934109Y285900D01*
X934069Y285912D01*
Y294331D01*
X937007D01*
X938705Y293028D01*
X941259Y291970D01*
X944000Y291609D01*
X946741Y291970D01*
X949295Y293028D01*
X951489Y294711D01*
X953172Y296905D01*
X954230Y299459D01*
X954591Y302200D01*
X954230Y304941D01*
X953172Y307495D01*
X951489Y309689D01*
X949295Y311372D01*
X946741Y312430D01*
X944000Y312791D01*
X941259Y312430D01*
X938705Y311372D01*
X937528Y310469D01*
X930600D01*
X928512Y310194D01*
X926565Y309388D01*
X924894Y308106D01*
X920294Y303506D01*
X919012Y301835D01*
X918309Y300138D01*
X917039Y300390D01*
Y330000D01*
X916884Y330780D01*
X916442Y331442D01*
X915780Y331884D01*
X915000Y332039D01*
X815000D01*
X814220Y331884D01*
X813558Y331442D01*
X813116Y330780D01*
X813061Y330504D01*
X812000Y330000D01*
X805500D01*
Y321000D01*
X803000D01*
Y318500D01*
X794000D01*
Y314284D01*
X792730Y313423D01*
X792000Y313568D01*
X715478D01*
X695523Y333523D01*
X694366Y334297D01*
X693000Y334568D01*
X574000D01*
X572634Y334297D01*
X571477Y333523D01*
X567077Y329123D01*
X566303Y327966D01*
X566031Y326600D01*
Y323000D01*
X550400D01*
Y289000D01*
X592500D01*
Y306000D01*
X597500D01*
Y289000D01*
X611038D01*
X611557Y287813D01*
X610949Y287060D01*
X536000D01*
X534173Y286820D01*
X532470Y286115D01*
X531007Y284993D01*
X525008Y278992D01*
X523885Y277530D01*
X523309Y276139D01*
X522039Y276391D01*
X522039Y388000D01*
X537000D01*
Y388778D01*
X537150Y388838D01*
X538270Y388990D01*
X538558Y388558D01*
X539220Y388116D01*
X540000Y387961D01*
X650000Y387961D01*
X650780Y388116D01*
X651442Y388558D01*
X651836Y389147D01*
X652398Y389220D01*
X652602D01*
X653165Y389147D01*
X653558Y388558D01*
X654220Y388116D01*
X655000Y387961D01*
X740000Y387961D01*
X740780Y388116D01*
X741442Y388558D01*
X741836Y389147D01*
X742402Y389220D01*
X742598D01*
X743165Y389147D01*
X743558Y388558D01*
X744220Y388116D01*
X745000Y387961D01*
X840000D01*
X840780Y388116D01*
X841442Y388558D01*
X841836Y389147D01*
X842399Y389220D01*
X842601D01*
X843164Y389147D01*
X843558Y388558D01*
X844220Y388116D01*
X845000Y387961D01*
X915000D01*
X915780Y388116D01*
X916442Y388558D01*
X916884Y389220D01*
X917039Y390000D01*
Y413410D01*
X918309Y413662D01*
X919012Y411965D01*
X920294Y410294D01*
X924094Y406494D01*
X925766Y405212D01*
X927712Y404406D01*
X929800Y404131D01*
X937789D01*
X938705Y403428D01*
X941259Y402370D01*
X944000Y402009D01*
X946741Y402370D01*
X949295Y403428D01*
X951489Y405111D01*
X953172Y407305D01*
X954230Y409859D01*
X954591Y412600D01*
X954230Y415341D01*
X953172Y417895D01*
X951489Y420089D01*
X949295Y421772D01*
X946741Y422830D01*
X944000Y423191D01*
X941259Y422830D01*
X938705Y421772D01*
X936746Y420269D01*
X934069D01*
Y431608D01*
X935339Y432039D01*
X936511Y430511D01*
X938705Y428828D01*
X941259Y427770D01*
X941500Y427739D01*
Y438000D01*
Y448261D01*
X941259Y448230D01*
X938705Y447172D01*
X936511Y445489D01*
X935339Y443961D01*
X934069Y444392D01*
Y467888D01*
X934108Y467899D01*
X935339Y468181D01*
X937311Y466863D01*
X939750Y466378D01*
X948250D01*
X950689Y466863D01*
X952756Y468244D01*
X954137Y470311D01*
X954622Y472750D01*
Y481250D01*
X954137Y483689D01*
X952756Y485756D01*
X950689Y487137D01*
X948250Y487622D01*
X939750D01*
X937311Y487137D01*
X935339Y485820D01*
X934108Y486101D01*
X934069Y486112D01*
Y494531D01*
X937007D01*
X938705Y493228D01*
X941259Y492170D01*
X944000Y491809D01*
X946741Y492170D01*
X949295Y493228D01*
X951489Y494911D01*
X953172Y497105D01*
X954230Y499659D01*
X954591Y502400D01*
X954230Y505141D01*
X953172Y507695D01*
X951489Y509889D01*
X949295Y511572D01*
X946741Y512630D01*
X944000Y512991D01*
X941259Y512630D01*
X938705Y511572D01*
X937528Y510669D01*
X934069D01*
Y521408D01*
X935339Y521839D01*
X936511Y520311D01*
X938705Y518628D01*
X941259Y517570D01*
X941500Y517539D01*
Y527800D01*
Y538061D01*
X941259Y538030D01*
X938705Y536972D01*
X936511Y535289D01*
X935339Y533761D01*
X934069Y534192D01*
Y557888D01*
X934108Y557899D01*
X935339Y558181D01*
X937311Y556863D01*
X939750Y556378D01*
X948250D01*
X950689Y556863D01*
X952756Y558244D01*
X954137Y560311D01*
X954622Y562750D01*
Y571250D01*
X954137Y573689D01*
X952756Y575756D01*
X950689Y577137D01*
X948250Y577622D01*
X939750D01*
X937311Y577137D01*
X935339Y575820D01*
X934108Y576101D01*
X934069Y576112D01*
Y584531D01*
X937007D01*
X938705Y583228D01*
X941259Y582170D01*
X944000Y581809D01*
X946741Y582170D01*
X949295Y583228D01*
X951489Y584911D01*
X953172Y587105D01*
X954230Y589659D01*
X954591Y592400D01*
X954230Y595141D01*
X953172Y597695D01*
X951489Y599889D01*
X949295Y601572D01*
X946741Y602630D01*
X944000Y602991D01*
X941259Y602630D01*
X938705Y601572D01*
X937528Y600669D01*
X930600D01*
X928512Y600394D01*
X926565Y599588D01*
X924894Y598306D01*
X920294Y593706D01*
X919012Y592034D01*
X918309Y590338D01*
X917039Y590590D01*
Y620000D01*
X916884Y620780D01*
X916442Y621442D01*
X915780Y621884D01*
X915000Y622039D01*
X815000D01*
X814220Y621884D01*
X813558Y621442D01*
X813116Y620780D01*
X813061Y620504D01*
X812000Y620000D01*
X805500D01*
Y611000D01*
X803000D01*
Y608500D01*
X794000D01*
Y604284D01*
X792730Y603423D01*
X792000Y603568D01*
X715478D01*
X695523Y623523D01*
X694366Y624297D01*
X693000Y624569D01*
X574000D01*
X572634Y624297D01*
X571477Y623523D01*
X567077Y619123D01*
X566303Y617966D01*
X566031Y616600D01*
Y613000D01*
X550400D01*
Y579000D01*
X592500D01*
Y596000D01*
X597500D01*
Y579000D01*
X611037D01*
X611556Y577813D01*
X610949Y577061D01*
X536000D01*
X534173Y576820D01*
X532470Y576115D01*
X531007Y574992D01*
X525007Y568993D01*
X523885Y567530D01*
X523309Y566139D01*
X522039Y566392D01*
Y673000D01*
X537000D01*
Y673778D01*
X537147Y673836D01*
X538270Y673989D01*
X538558Y673558D01*
X539220Y673116D01*
X540000Y672961D01*
X650000Y672961D01*
X650780Y673116D01*
X651442Y673558D01*
X651836Y674147D01*
X652398Y674220D01*
X652602D01*
X653165Y674147D01*
X653558Y673558D01*
X654220Y673116D01*
X655000Y672961D01*
X740000Y672961D01*
X740780Y673116D01*
X741442Y673558D01*
X741836Y674147D01*
X742402Y674220D01*
X742598D01*
X743165Y674147D01*
X743558Y673558D01*
X744220Y673116D01*
X745000Y672961D01*
X840000D01*
X840780Y673116D01*
X841442Y673558D01*
X841835Y674147D01*
X842400Y674220D01*
X842600D01*
X843164Y674147D01*
X843558Y673558D01*
X844220Y673116D01*
X845000Y672961D01*
X915000D01*
X915780Y673116D01*
X916442Y673558D01*
X916884Y674220D01*
X917039Y675000D01*
Y698410D01*
X918309Y698662D01*
X919012Y696965D01*
X920294Y695294D01*
X924094Y691494D01*
X925766Y690212D01*
X927712Y689406D01*
X929800Y689131D01*
X937789D01*
X938705Y688428D01*
X941259Y687370D01*
X944000Y687009D01*
X946741Y687370D01*
X949295Y688428D01*
X951489Y690111D01*
X953172Y692305D01*
X954230Y694859D01*
X954591Y697600D01*
X954230Y700341D01*
X953172Y702895D01*
X951489Y705089D01*
X949295Y706772D01*
X946741Y707830D01*
X944000Y708191D01*
X941259Y707830D01*
X938705Y706772D01*
X936746Y705269D01*
X934069D01*
Y716608D01*
X935339Y717039D01*
X936511Y715511D01*
X938705Y713828D01*
X941259Y712770D01*
X941500Y712739D01*
Y723000D01*
Y733261D01*
X941259Y733230D01*
X938705Y732172D01*
X936511Y730489D01*
X935339Y728961D01*
X934069Y729392D01*
Y753087D01*
X934109Y753100D01*
X935339Y753381D01*
X937311Y752063D01*
X939750Y751578D01*
X948250D01*
X950689Y752063D01*
X952756Y753444D01*
X954137Y755511D01*
X954622Y757950D01*
Y766450D01*
X954137Y768889D01*
X952756Y770956D01*
X950689Y772337D01*
X948250Y772822D01*
X939750D01*
X937311Y772337D01*
X935339Y771020D01*
X934109Y771300D01*
X934069Y771312D01*
Y779531D01*
X937268D01*
X938705Y778428D01*
X941259Y777370D01*
X944000Y777009D01*
X946741Y777370D01*
X949295Y778428D01*
X951489Y780111D01*
X953172Y782305D01*
X954230Y784859D01*
X954591Y787600D01*
X954230Y790341D01*
X953172Y792895D01*
X951489Y795089D01*
X949295Y796772D01*
X946741Y797830D01*
X944000Y798191D01*
X941259Y797830D01*
X938705Y796772D01*
X937268Y795669D01*
X934069D01*
Y806608D01*
X935339Y807039D01*
X936511Y805511D01*
X938705Y803828D01*
X941259Y802770D01*
X941500Y802738D01*
Y813000D01*
Y823261D01*
X941259Y823230D01*
X938705Y822172D01*
X936511Y820489D01*
X935339Y818961D01*
X934069Y819392D01*
Y843087D01*
X934109Y843100D01*
X935339Y843381D01*
X937311Y842063D01*
X939750Y841578D01*
X948250D01*
X950689Y842063D01*
X952756Y843444D01*
X954137Y845511D01*
X954622Y847950D01*
Y856450D01*
X954137Y858889D01*
X952756Y860956D01*
X950689Y862337D01*
X948250Y862822D01*
X939750D01*
X937311Y862337D01*
X935339Y861020D01*
X934109Y861300D01*
X934069Y861312D01*
Y869531D01*
X937268D01*
X938705Y868428D01*
X941259Y867370D01*
X944000Y867009D01*
X946741Y867370D01*
X949295Y868428D01*
X951489Y870111D01*
X953172Y872305D01*
X954230Y874859D01*
X954591Y877600D01*
X954230Y880341D01*
X953172Y882895D01*
X951489Y885089D01*
X949295Y886772D01*
X946741Y887830D01*
X944000Y888191D01*
X941259Y887830D01*
X938705Y886772D01*
X937268Y885669D01*
X930600D01*
X928512Y885394D01*
X926565Y884588D01*
X924894Y883306D01*
X920294Y878706D01*
X919012Y877035D01*
X918309Y875338D01*
X917039Y875590D01*
Y905000D01*
X916884Y905780D01*
X916442Y906442D01*
X915780Y906884D01*
X915000Y907039D01*
X815000D01*
X814220Y906884D01*
X813558Y906442D01*
X813116Y905780D01*
X813061Y905504D01*
X812000Y905000D01*
X805500D01*
Y896000D01*
X803000D01*
Y893500D01*
X794000D01*
Y889284D01*
X792730Y888423D01*
X792000Y888568D01*
X715478D01*
X695523Y908523D01*
X694366Y909297D01*
X693000Y909568D01*
X574000D01*
X572634Y909297D01*
X571477Y908523D01*
X567077Y904123D01*
X566303Y902966D01*
X566031Y901600D01*
Y898000D01*
X550400D01*
Y864000D01*
X592500D01*
Y881000D01*
X597500D01*
Y864000D01*
X611037D01*
X611557Y862813D01*
X610949Y862060D01*
X536000D01*
X534173Y861820D01*
X532470Y861115D01*
X531007Y859993D01*
X525008Y853992D01*
X523885Y852530D01*
X523309Y851139D01*
X522039Y851391D01*
Y905000D01*
X521884Y905780D01*
X521442Y906442D01*
X520780Y906884D01*
X520000Y907039D01*
X480000Y907039D01*
X479802Y907000D01*
X463000D01*
Y906222D01*
X462852Y906163D01*
X461730Y906011D01*
X461442Y906442D01*
X460780Y906884D01*
X460000Y907039D01*
X350000Y907039D01*
X349220Y906884D01*
X348558Y906442D01*
X348164Y905853D01*
X347602Y905780D01*
X347398D01*
X346836Y905853D01*
X346442Y906442D01*
X345780Y906884D01*
X345000Y907039D01*
X260000Y907039D01*
X259219Y906884D01*
X258558Y906442D01*
X258164Y905853D01*
X257599Y905780D01*
X257401D01*
X256835Y905853D01*
X256442Y906442D01*
X255780Y906884D01*
X255000Y907039D01*
X160000D01*
X159220Y906884D01*
X158558Y906442D01*
X158165Y905853D01*
X157601Y905780D01*
X157399D01*
X156836Y905853D01*
X156442Y906442D01*
X155780Y906884D01*
X155000Y907039D01*
X85000D01*
X84220Y906884D01*
X83558Y906442D01*
X83116Y905780D01*
X82961Y905000D01*
Y875590D01*
X81691Y875338D01*
X80988Y877035D01*
X79706Y878706D01*
X75106Y883306D01*
X73435Y884588D01*
X71488Y885394D01*
X69400Y885669D01*
X62732D01*
X61295Y886772D01*
X58741Y887830D01*
X56000Y888191D01*
X53259Y887830D01*
X50705Y886772D01*
X48511Y885089D01*
X46828Y882895D01*
X45770Y880341D01*
X45409Y877600D01*
X45770Y874859D01*
X46828Y872305D01*
X48511Y870111D01*
X50705Y868428D01*
X53259Y867370D01*
X56000Y867009D01*
X58741Y867370D01*
X61295Y868428D01*
X62732Y869531D01*
X65931D01*
Y858592D01*
X64661Y858161D01*
X63489Y859689D01*
X61295Y861372D01*
X58741Y862430D01*
X58500Y862461D01*
Y852200D01*
Y841939D01*
X58741Y841970D01*
X61295Y843028D01*
X63489Y844711D01*
X64661Y846239D01*
X65931Y845808D01*
Y822113D01*
X65891Y822100D01*
X64661Y821820D01*
X62689Y823137D01*
X60250Y823622D01*
X51750D01*
X49311Y823137D01*
X47244Y821756D01*
X45863Y819689D01*
X45377Y817250D01*
Y808750D01*
X45863Y806311D01*
X47244Y804244D01*
X49311Y802863D01*
X51750Y802378D01*
X60250D01*
X62689Y802863D01*
X64661Y804181D01*
X65891Y803900D01*
X65931Y803887D01*
Y795669D01*
X62732D01*
X61295Y796772D01*
X58741Y797830D01*
X56000Y798191D01*
X53259Y797830D01*
X50705Y796772D01*
X48511Y795089D01*
X46828Y792895D01*
X45770Y790341D01*
X45409Y787600D01*
X45770Y784859D01*
X46828Y782305D01*
X48511Y780111D01*
X50705Y778428D01*
X53259Y777370D01*
X56000Y777009D01*
X58741Y777370D01*
X61295Y778428D01*
X62732Y779531D01*
X65931D01*
Y768592D01*
X64661Y768161D01*
X63489Y769689D01*
X61295Y771372D01*
X58741Y772430D01*
X58500Y772461D01*
Y762200D01*
Y751938D01*
X58741Y751970D01*
X61295Y753028D01*
X63489Y754711D01*
X64661Y756239D01*
X65931Y755808D01*
Y731712D01*
X65891Y731700D01*
X64661Y731420D01*
X62689Y732737D01*
X60250Y733222D01*
X51750D01*
X49311Y732737D01*
X47244Y731356D01*
X45863Y729289D01*
X45377Y726850D01*
Y718350D01*
X45863Y715911D01*
X47244Y713844D01*
X49311Y712463D01*
X51750Y711978D01*
X60250D01*
X62689Y712463D01*
X64661Y713781D01*
X65891Y713500D01*
X65931Y713487D01*
Y705269D01*
X62732D01*
X61295Y706372D01*
X58741Y707430D01*
X56000Y707791D01*
X53259Y707430D01*
X50705Y706372D01*
X48511Y704689D01*
X46828Y702495D01*
X45770Y699941D01*
X45409Y697200D01*
X45770Y694459D01*
X46828Y691905D01*
X48511Y689711D01*
X50705Y688028D01*
X53259Y686970D01*
X56000Y686609D01*
X58741Y686970D01*
X61295Y688028D01*
X62732Y689131D01*
X70200D01*
X72288Y689406D01*
X74234Y690212D01*
X75906Y691494D01*
X79706Y695294D01*
X80988Y696965D01*
X81691Y698662D01*
X82961Y698410D01*
Y675000D01*
X83116Y674220D01*
X83558Y673558D01*
X84220Y673116D01*
X85000Y672961D01*
X185000D01*
X185780Y673116D01*
X186442Y673558D01*
X186884Y674220D01*
X186939Y674496D01*
X188000Y675000D01*
X194500D01*
Y684000D01*
X197000D01*
Y686500D01*
X206000D01*
Y690716D01*
X207270Y691577D01*
X208000Y691431D01*
X284522D01*
X304477Y671477D01*
X305634Y670703D01*
X307000Y670431D01*
X426000D01*
X427366Y670703D01*
X428523Y671477D01*
X432923Y675877D01*
X433697Y677034D01*
X433969Y678400D01*
Y682000D01*
X449600D01*
Y716000D01*
X407500D01*
Y699000D01*
X402500D01*
Y716000D01*
X388963D01*
X388444Y717187D01*
X389051Y717940D01*
X464000D01*
X465827Y718180D01*
X467530Y718885D01*
X468992Y720007D01*
X474992Y726008D01*
X476115Y727470D01*
X476691Y728861D01*
X477961Y728608D01*
X477961Y622000D01*
X463000D01*
Y621222D01*
X462853Y621164D01*
X461730Y621011D01*
X461442Y621442D01*
X460780Y621884D01*
X460000Y622039D01*
X350000Y622039D01*
X349220Y621884D01*
X348558Y621442D01*
X348164Y620853D01*
X347602Y620780D01*
X347398D01*
X346836Y620853D01*
X346442Y621442D01*
X345780Y621884D01*
X345000Y622039D01*
X260000Y622039D01*
X259219Y621884D01*
X258558Y621442D01*
X258164Y620853D01*
X257598Y620780D01*
X257402D01*
X256835Y620853D01*
X256442Y621442D01*
X255780Y621884D01*
X255000Y622039D01*
X160000D01*
X159220Y621884D01*
X158558Y621442D01*
X158165Y620853D01*
X157601Y620780D01*
X157399D01*
X156836Y620853D01*
X156442Y621442D01*
X155780Y621884D01*
X155000Y622039D01*
X85000D01*
X84220Y621884D01*
X83558Y621442D01*
X83116Y620780D01*
X82961Y620000D01*
Y590590D01*
X81691Y590338D01*
X80988Y592034D01*
X79706Y593706D01*
X75106Y598306D01*
X73435Y599588D01*
X71488Y600394D01*
X69400Y600669D01*
X62472D01*
X61295Y601572D01*
X58741Y602630D01*
X56000Y602991D01*
X53259Y602630D01*
X50705Y601572D01*
X48511Y599889D01*
X46828Y597695D01*
X45770Y595141D01*
X45409Y592400D01*
X45770Y589659D01*
X46828Y587105D01*
X48511Y584911D01*
X50705Y583228D01*
X53259Y582170D01*
X56000Y581809D01*
X58741Y582170D01*
X61295Y583228D01*
X62993Y584531D01*
X65931D01*
Y573392D01*
X64661Y572961D01*
X63489Y574489D01*
X61295Y576172D01*
X58741Y577230D01*
X58500Y577262D01*
Y567000D01*
Y556739D01*
X58741Y556770D01*
X61295Y557828D01*
X63489Y559511D01*
X64661Y561039D01*
X65931Y560608D01*
Y537113D01*
X65891Y537100D01*
X64661Y536819D01*
X62689Y538137D01*
X60250Y538622D01*
X51750D01*
X49311Y538137D01*
X47244Y536756D01*
X45863Y534689D01*
X45377Y532250D01*
Y523750D01*
X45863Y521311D01*
X47244Y519244D01*
X49311Y517863D01*
X51750Y517378D01*
X60250D01*
X62689Y517863D01*
X64661Y519180D01*
X65891Y518900D01*
X65931Y518888D01*
Y510669D01*
X62732D01*
X61295Y511772D01*
X58741Y512830D01*
X56000Y513191D01*
X53259Y512830D01*
X50705Y511772D01*
X48511Y510089D01*
X46828Y507895D01*
X45770Y505341D01*
X45409Y502600D01*
X45770Y499859D01*
X46828Y497305D01*
X48511Y495111D01*
X50705Y493428D01*
X53259Y492370D01*
X56000Y492009D01*
X58741Y492370D01*
X61295Y493428D01*
X62732Y494531D01*
X65931D01*
Y483592D01*
X64661Y483161D01*
X63489Y484689D01*
X61295Y486372D01*
X58741Y487430D01*
X58500Y487462D01*
Y477200D01*
Y466939D01*
X58741Y466970D01*
X61295Y468028D01*
X63489Y469711D01*
X64661Y471239D01*
X65931Y470808D01*
Y447113D01*
X65891Y447100D01*
X64661Y446819D01*
X62689Y448137D01*
X60250Y448622D01*
X51750D01*
X49311Y448137D01*
X47244Y446756D01*
X45863Y444689D01*
X45377Y442250D01*
Y433750D01*
X45863Y431311D01*
X47244Y429244D01*
X49311Y427863D01*
X51750Y427378D01*
X60250D01*
X62689Y427863D01*
X64661Y429180D01*
X65891Y428900D01*
X65931Y428888D01*
Y420269D01*
X63254D01*
X61295Y421772D01*
X58741Y422830D01*
X56000Y423191D01*
X53259Y422830D01*
X50705Y421772D01*
X48511Y420089D01*
X46828Y417895D01*
X45770Y415341D01*
X45409Y412600D01*
X45770Y409859D01*
X46828Y407305D01*
X48511Y405111D01*
X50705Y403428D01*
X53259Y402370D01*
X56000Y402009D01*
X58741Y402370D01*
X61295Y403428D01*
X62211Y404131D01*
X70200D01*
X72288Y404406D01*
X74234Y405212D01*
X75906Y406494D01*
X79706Y410294D01*
X80988Y411965D01*
X81691Y413662D01*
X82961Y413410D01*
Y390000D01*
X83116Y389220D01*
X83558Y388558D01*
X84220Y388116D01*
X85000Y387961D01*
X185000D01*
X185780Y388116D01*
X186442Y388558D01*
X186884Y389220D01*
X186939Y389496D01*
X188000Y390000D01*
X194500D01*
Y399000D01*
X197000D01*
Y401500D01*
X206000D01*
Y405716D01*
X207270Y406577D01*
X208000Y406431D01*
X284522D01*
X304477Y386477D01*
X305634Y385703D01*
X307000Y385431D01*
X426000D01*
X427366Y385703D01*
X428523Y386477D01*
X432923Y390877D01*
X433697Y392034D01*
X433969Y393400D01*
Y397000D01*
X449600D01*
Y431000D01*
X407500D01*
Y414000D01*
X402500D01*
Y431000D01*
X388963D01*
X388444Y432187D01*
X389051Y432940D01*
X464000D01*
X465827Y433180D01*
X467530Y433885D01*
X468992Y435008D01*
X474992Y441008D01*
X476115Y442470D01*
X476691Y443861D01*
X477961Y443609D01*
X477961Y332000D01*
X463000D01*
Y331222D01*
X462853Y331164D01*
X461730Y331011D01*
X461442Y331442D01*
X460780Y331884D01*
X460000Y332039D01*
X350000Y332039D01*
X349220Y331884D01*
X348558Y331442D01*
X348164Y330853D01*
X347602Y330780D01*
X347398D01*
X346836Y330853D01*
X346442Y331442D01*
X345780Y331884D01*
X345000Y332039D01*
X260000Y332039D01*
X259219Y331884D01*
X258558Y331442D01*
X258164Y330853D01*
X257598Y330780D01*
X257402D01*
X256835Y330853D01*
X256442Y331442D01*
X255780Y331884D01*
X255000Y332039D01*
X160000D01*
X159220Y331884D01*
X158558Y331442D01*
X158165Y330853D01*
X157601Y330780D01*
X157399D01*
X156836Y330853D01*
X156442Y331442D01*
X155780Y331884D01*
X155000Y332039D01*
X85000D01*
X84220Y331884D01*
X83558Y331442D01*
X83116Y330780D01*
X82961Y330000D01*
Y300390D01*
X81691Y300138D01*
X80988Y301835D01*
X79706Y303506D01*
X75106Y308106D01*
X73435Y309388D01*
X71488Y310194D01*
X69400Y310469D01*
X62472D01*
X61295Y311372D01*
X58741Y312430D01*
X56000Y312791D01*
X53259Y312430D01*
X50705Y311372D01*
X48511Y309689D01*
X46828Y307495D01*
X45770Y304941D01*
X45409Y302200D01*
X45770Y299459D01*
X46828Y296905D01*
X48511Y294711D01*
X50705Y293028D01*
X53259Y291970D01*
X56000Y291609D01*
X58741Y291970D01*
X61295Y293028D01*
X62993Y294331D01*
X65931D01*
Y283192D01*
X64661Y282761D01*
X63489Y284289D01*
X61295Y285972D01*
X58741Y287030D01*
X58500Y287061D01*
Y276800D01*
Y266539D01*
X58741Y266570D01*
X61295Y267628D01*
X63489Y269311D01*
X64661Y270839D01*
X65931Y270408D01*
Y246912D01*
X65891Y246900D01*
X64661Y246619D01*
X62689Y247937D01*
X60250Y248422D01*
X51750D01*
X49311Y247937D01*
X47244Y246556D01*
X45863Y244489D01*
X45377Y242050D01*
Y233550D01*
X45863Y231111D01*
X47244Y229044D01*
X49311Y227663D01*
X51750Y227178D01*
X60250D01*
X62689Y227663D01*
X64661Y228981D01*
X65891Y228700D01*
X65931Y228687D01*
Y220469D01*
X62732D01*
X61295Y221572D01*
X58741Y222630D01*
X56000Y222991D01*
X53259Y222630D01*
X50705Y221572D01*
X48511Y219889D01*
X46828Y217695D01*
X45770Y215141D01*
X45409Y212400D01*
X45770Y209659D01*
X46828Y207105D01*
X48511Y204911D01*
X50705Y203228D01*
X53259Y202170D01*
X56000Y201809D01*
X58741Y202170D01*
X61295Y203228D01*
X62732Y204331D01*
X65931D01*
Y193392D01*
X64661Y192961D01*
X63489Y194489D01*
X61295Y196172D01*
X58741Y197230D01*
X58500Y197261D01*
Y187000D01*
Y176738D01*
X58741Y176770D01*
X61295Y177828D01*
X63489Y179511D01*
X64661Y181039D01*
X65931Y180608D01*
Y156912D01*
X65891Y156900D01*
X64661Y156619D01*
X62689Y157937D01*
X60250Y158422D01*
X51750D01*
X49311Y157937D01*
X47244Y156556D01*
X45863Y154489D01*
X45377Y152050D01*
Y143550D01*
X45863Y141111D01*
X47244Y139044D01*
X49311Y137663D01*
X51750Y137178D01*
X60250D01*
X62689Y137663D01*
X64661Y138981D01*
X65891Y138700D01*
X65931Y138687D01*
Y130069D01*
X63254D01*
X61295Y131572D01*
X58741Y132630D01*
X56000Y132991D01*
X53259Y132630D01*
X50705Y131572D01*
X48511Y129889D01*
X46828Y127695D01*
X45770Y125141D01*
X45409Y122400D01*
X45770Y119659D01*
X46828Y117105D01*
X48511Y114911D01*
X50705Y113228D01*
X53259Y112170D01*
X56000Y111809D01*
X58741Y112170D01*
X61295Y113228D01*
X62211Y113931D01*
X70200D01*
X72288Y114206D01*
X74234Y115012D01*
X75906Y116294D01*
X79706Y120094D01*
X80988Y121765D01*
X81691Y123462D01*
X82961Y123210D01*
Y100000D01*
X83116Y99220D01*
X83558Y98558D01*
X84220Y98116D01*
X85000Y97961D01*
X185000D01*
X185780Y98116D01*
X186442Y98558D01*
X186884Y99220D01*
X186939Y99496D01*
X188000Y100000D01*
X194500D01*
Y109000D01*
X197000D01*
Y111500D01*
X206000D01*
Y115716D01*
X207270Y116577D01*
X208000Y116431D01*
X284522D01*
X304477Y96477D01*
X305634Y95703D01*
X307000Y95431D01*
X426000D01*
X427366Y95703D01*
X428523Y96477D01*
X432923Y100877D01*
X433697Y102034D01*
X433969Y103400D01*
Y107000D01*
X439531D01*
Y37578D01*
X434270Y32317D01*
X433000Y32843D01*
Y37000D01*
X428500D01*
Y30000D01*
Y23000D01*
X432431D01*
Y21000D01*
X419000D01*
Y7000D01*
X433000D01*
Y10431D01*
X434522D01*
X439477Y5477D01*
X440634Y4703D01*
X442000Y4431D01*
X486000D01*
X487366Y4703D01*
X488523Y5477D01*
X495532Y12486D01*
X497259Y11770D01*
X500000Y11409D01*
X502741Y11770D01*
X505295Y12828D01*
X507489Y14511D01*
X509172Y16705D01*
X510230Y19259D01*
X510591Y22000D01*
X510230Y24741D01*
X509172Y27295D01*
X507489Y29489D01*
X505295Y31172D01*
X502741Y32230D01*
X500000Y32591D01*
X497259Y32230D01*
X494705Y31172D01*
X492511Y29489D01*
X490828Y27295D01*
X489770Y24741D01*
X489409Y22000D01*
X489770Y19259D01*
X490485Y17532D01*
X484522Y11569D01*
X480173D01*
X479895Y12828D01*
X482089Y14511D01*
X483772Y16705D01*
X484830Y19259D01*
X485191Y22000D01*
X484830Y24741D01*
X483772Y27295D01*
X482089Y29489D01*
X479895Y31172D01*
X477341Y32230D01*
X474600Y32591D01*
X471859Y32230D01*
X469305Y31172D01*
X467111Y29489D01*
X465428Y27295D01*
X464370Y24741D01*
X464009Y22000D01*
X464370Y19259D01*
X465428Y16705D01*
X467111Y14511D01*
X469305Y12828D01*
X469027Y11569D01*
X454773D01*
X454495Y12828D01*
X456689Y14511D01*
X458372Y16705D01*
X459430Y19259D01*
X459791Y22000D01*
X459430Y24741D01*
X458997Y25787D01*
X471112Y37902D01*
X485000D01*
X485295Y37961D01*
X545702Y37961D01*
Y32454D01*
X544111Y32137D01*
X542044Y30756D01*
X540663Y28689D01*
X540178Y26250D01*
Y17750D01*
X540663Y15311D01*
X542044Y13244D01*
X544111Y11863D01*
X546550Y11378D01*
X555050D01*
X557489Y11863D01*
X559556Y13244D01*
X560937Y15311D01*
X561422Y17750D01*
Y26250D01*
X560937Y28689D01*
X559556Y30756D01*
X557489Y32137D01*
X555898Y32454D01*
Y37961D01*
X572961D01*
X572961Y10000D01*
X573116Y9220D01*
X573558Y8558D01*
X574220Y8116D01*
X575000Y7961D01*
X605000Y7961D01*
X605780Y8116D01*
X606442Y8558D01*
X606836Y9147D01*
X607399Y9220D01*
X607601Y9220D01*
X608164Y9147D01*
X608558Y8558D01*
X609220Y8116D01*
X610000Y7961D01*
X637000Y7961D01*
Y7000D01*
X640000D01*
Y2549D01*
X22549D01*
Y997451D01*
X977451D01*
Y2549D01*
D02*
G37*
G36*
X155000Y845000D02*
X85000D01*
X85000Y905000D01*
X155000D01*
X155000Y845000D01*
D02*
G37*
G36*
X925000Y840000D02*
Y765000D01*
X915000Y765000D01*
Y740000D01*
X840000D01*
Y675000D01*
X745000D01*
Y805000D01*
X795000D01*
Y830000D01*
X815000D01*
Y840000D01*
X910000Y840000D01*
X925000Y840000D01*
D02*
G37*
G36*
X255000Y700000D02*
X210000Y700000D01*
Y770000D01*
X255000Y770000D01*
Y700000D01*
D02*
G37*
G36*
X345000Y735000D02*
X372000D01*
X372000Y683000D01*
X329000D01*
Y700000D01*
X260000D01*
Y905000D01*
X345000Y905000D01*
X345000Y735000D01*
D02*
G37*
G36*
X255000Y775000D02*
X205000D01*
Y750000D01*
X185000D01*
Y740000D01*
X85000D01*
Y765000D01*
X75000Y765000D01*
Y840000D01*
X160000Y840000D01*
Y905000D01*
X255000D01*
Y775000D01*
D02*
G37*
G36*
X460000Y905000D02*
X460000Y760000D01*
X460000Y740000D01*
X350000Y740000D01*
Y905000D01*
X460000Y905000D01*
D02*
G37*
G36*
X185000Y390000D02*
X85000D01*
X85000Y450000D01*
X185000D01*
X185000Y390000D01*
D02*
G37*
G36*
X671000Y595000D02*
X740000D01*
X740000Y390000D01*
X655000Y390000D01*
X655000Y560000D01*
X628000D01*
X628000Y612000D01*
X671000D01*
Y595000D01*
D02*
G37*
G36*
X345000Y450000D02*
X372000D01*
X372000Y398000D01*
X329000D01*
Y415000D01*
X260000D01*
X260000Y620000D01*
X345000Y620000D01*
X345000Y450000D01*
D02*
G37*
G36*
X915000Y390000D02*
X845000D01*
X845000Y450000D01*
X915000D01*
X915000Y390000D01*
D02*
G37*
G36*
X650000Y555000D02*
Y390000D01*
X540000Y390000D01*
X540000Y535000D01*
X540000Y555000D01*
X650000Y555000D01*
D02*
G37*
G36*
X915000Y270000D02*
X815000D01*
X815000Y330000D01*
X915000D01*
X915000Y270000D01*
D02*
G37*
G36*
X155000Y270000D02*
X85000D01*
X85000Y330000D01*
X155000D01*
X155000Y270000D01*
D02*
G37*
G36*
X915000Y265000D02*
X925000Y265000D01*
X925000Y190000D01*
X915000Y190000D01*
X915000Y165000D01*
X840000D01*
Y100000D01*
X745000D01*
Y230000D01*
X795000D01*
Y255000D01*
X815000D01*
Y265000D01*
X915000Y265000D01*
D02*
G37*
G36*
X790000Y235000D02*
X745000D01*
Y305000D01*
X790000D01*
Y235000D01*
D02*
G37*
G36*
X255000Y415000D02*
X210000D01*
Y485000D01*
X255000D01*
Y415000D01*
D02*
G37*
G36*
Y125000D02*
X210000D01*
Y195000D01*
X255000D01*
Y125000D01*
D02*
G37*
G36*
X790000Y525000D02*
X745000D01*
Y595000D01*
X790000D01*
Y525000D01*
D02*
G37*
G36*
X915000Y560000D02*
X815000D01*
X815000Y620000D01*
X915000D01*
X915000Y560000D01*
D02*
G37*
G36*
X345000Y160000D02*
X372000D01*
X372000Y108000D01*
X329000D01*
Y125000D01*
X260000D01*
X260000Y330000D01*
X345000Y330000D01*
X345000Y160000D01*
D02*
G37*
G36*
X925000Y555000D02*
X925000Y480000D01*
X915000Y480000D01*
X915000Y455000D01*
X840000D01*
Y390000D01*
X745000D01*
Y520000D01*
X795000D01*
Y545000D01*
X815000D01*
Y555000D01*
X915000D01*
X925000Y555000D01*
D02*
G37*
G36*
X460000Y620000D02*
X460000Y475000D01*
X460000Y455000D01*
X350000Y455000D01*
Y620000D01*
X460000Y620000D01*
D02*
G37*
G36*
X255000Y200000D02*
X205000D01*
Y175000D01*
X185000D01*
Y165000D01*
X85000D01*
Y189800D01*
X75000Y189800D01*
Y264800D01*
X85000Y264800D01*
Y265000D01*
X160000D01*
Y330000D01*
X255000D01*
Y200000D01*
D02*
G37*
G36*
X460000Y330000D02*
X460000Y185000D01*
X460000Y165000D01*
X350000Y165000D01*
Y330000D01*
X460000Y330000D01*
D02*
G37*
G36*
X255000Y490000D02*
X205000D01*
Y465000D01*
X185000D01*
Y455000D01*
X85000D01*
Y480000D01*
X75000Y480000D01*
Y555000D01*
X160000Y555000D01*
Y620000D01*
X255000D01*
Y490000D01*
D02*
G37*
G36*
X652000Y10000D02*
X610000Y10000D01*
X610000Y60000D01*
X652000Y60000D01*
X652000Y10000D01*
D02*
G37*
G36*
X477961Y153609D02*
X477961Y100000D01*
X477961Y48098D01*
X469000D01*
X467049Y47710D01*
X465395Y46605D01*
X451127Y32337D01*
X449200Y32591D01*
X446459Y32230D01*
X445799Y31957D01*
X445080Y33033D01*
X445623Y33577D01*
X446397Y34734D01*
X446669Y36100D01*
Y107000D01*
X449600D01*
Y141000D01*
X407500D01*
Y124000D01*
X402500D01*
Y141000D01*
X388963D01*
X388443Y142187D01*
X389051Y142940D01*
X464000D01*
X465827Y143180D01*
X467530Y143886D01*
X468993Y145008D01*
X474993Y151008D01*
X476115Y152470D01*
X476691Y153861D01*
X477961Y153609D01*
D02*
G37*
G36*
X520000Y905000D02*
X520000Y100000D01*
Y95000D01*
X605000D01*
Y10000D01*
X575000Y10000D01*
X575000Y40000D01*
X480000Y40000D01*
X480000Y100000D01*
X480000Y905000D01*
X520000Y905000D01*
D02*
G37*
%LPC*%
G36*
X661000Y74500D02*
X651500D01*
Y65000D01*
X661000D01*
Y74500D01*
D02*
G37*
G36*
X646500D02*
X637000D01*
Y65000D01*
X646500D01*
Y74500D01*
D02*
G37*
G36*
X954261Y145300D02*
X946500D01*
Y137538D01*
X946741Y137570D01*
X949295Y138628D01*
X951489Y140311D01*
X953172Y142505D01*
X954230Y145059D01*
X954261Y145300D01*
D02*
G37*
G36*
X535661Y19500D02*
X527900D01*
Y11739D01*
X528141Y11770D01*
X530695Y12828D01*
X532889Y14511D01*
X534572Y16705D01*
X535630Y19259D01*
X535661Y19500D01*
D02*
G37*
G36*
X363000Y32500D02*
X337500D01*
Y7000D01*
X363000D01*
Y32500D01*
D02*
G37*
G36*
X132000Y37000D02*
X118000D01*
Y23000D01*
X132000D01*
Y25412D01*
X138378D01*
Y17750D01*
X138863Y15311D01*
X140244Y13244D01*
X142311Y11863D01*
X144750Y11378D01*
X153250D01*
X155689Y11863D01*
X157756Y13244D01*
X159137Y15311D01*
X159622Y17750D01*
Y26250D01*
X159137Y28689D01*
X157756Y30756D01*
X155689Y32137D01*
X153250Y32622D01*
X144866D01*
X144244Y33244D01*
X142756Y34239D01*
X141000Y34588D01*
X132000D01*
Y37000D01*
D02*
G37*
G36*
X946500Y158061D02*
Y150300D01*
X954261D01*
X954230Y150541D01*
X953172Y153095D01*
X951489Y155289D01*
X949295Y156972D01*
X946741Y158030D01*
X946500Y158061D01*
D02*
G37*
G36*
X423500Y27500D02*
X419000D01*
Y23000D01*
X423500D01*
Y27500D01*
D02*
G37*
G36*
X885500Y23000D02*
X880000D01*
Y17500D01*
X885500D01*
Y23000D01*
D02*
G37*
G36*
X298000Y61000D02*
X284000D01*
Y47000D01*
X287941D01*
Y37000D01*
X284000D01*
Y23000D01*
X298000D01*
Y37000D01*
X294059D01*
Y47000D01*
X298000D01*
Y61000D01*
D02*
G37*
G36*
X206000Y106500D02*
X199500D01*
Y100000D01*
X206000D01*
Y106500D01*
D02*
G37*
G36*
X861661Y19500D02*
X853900D01*
Y11739D01*
X854141Y11770D01*
X856695Y12828D01*
X858889Y14511D01*
X860572Y16705D01*
X861630Y19259D01*
X861661Y19500D01*
D02*
G37*
G36*
X848900D02*
X841139D01*
X841170Y19259D01*
X842228Y16705D01*
X843911Y14511D01*
X846105Y12828D01*
X848659Y11770D01*
X848900Y11739D01*
Y19500D01*
D02*
G37*
G36*
X875000Y23000D02*
X869500D01*
Y17500D01*
X875000D01*
Y23000D01*
D02*
G37*
G36*
X522900Y19500D02*
X515139D01*
X515170Y19259D01*
X516228Y16705D01*
X517911Y14511D01*
X520105Y12828D01*
X522659Y11770D01*
X522900Y11739D01*
Y19500D01*
D02*
G37*
G36*
X53500Y184500D02*
X45739D01*
X45770Y184259D01*
X46828Y181705D01*
X48511Y179511D01*
X50705Y177828D01*
X53259Y176770D01*
X53500Y176738D01*
Y184500D01*
D02*
G37*
G36*
X946500Y248062D02*
Y240300D01*
X954261D01*
X954230Y240541D01*
X953172Y243095D01*
X951489Y245289D01*
X949295Y246972D01*
X946741Y248030D01*
X946500Y248062D01*
D02*
G37*
G36*
X53500Y274300D02*
X45739D01*
X45770Y274059D01*
X46828Y271505D01*
X48511Y269311D01*
X50705Y267628D01*
X53259Y266570D01*
X53500Y266539D01*
Y274300D01*
D02*
G37*
G36*
X954261Y235300D02*
X946500D01*
Y227539D01*
X946741Y227570D01*
X949295Y228628D01*
X951489Y230311D01*
X953172Y232505D01*
X954230Y235059D01*
X954261Y235300D01*
D02*
G37*
G36*
X941500Y33500D02*
X912098D01*
X912296Y30979D01*
X913472Y26081D01*
X915400Y21427D01*
X918031Y17133D01*
X921303Y13303D01*
X925133Y10031D01*
X929427Y7400D01*
X934081Y5472D01*
X938979Y4296D01*
X941500Y4098D01*
Y33500D01*
D02*
G37*
G36*
X53500Y287061D02*
X53259Y287030D01*
X50705Y285972D01*
X48511Y284289D01*
X46828Y282095D01*
X45770Y279541D01*
X45739Y279300D01*
X53500D01*
Y287061D01*
D02*
G37*
G36*
X60250Y338222D02*
X51750D01*
X49311Y337737D01*
X47244Y336356D01*
X45863Y334289D01*
X45377Y331850D01*
Y323350D01*
X45863Y320911D01*
X47244Y318844D01*
X49311Y317463D01*
X51750Y316978D01*
X60250D01*
X62689Y317463D01*
X64756Y318844D01*
X66137Y320911D01*
X66622Y323350D01*
Y331850D01*
X66137Y334289D01*
X64756Y336356D01*
X62689Y337737D01*
X60250Y338222D01*
D02*
G37*
G36*
X87902Y33500D02*
X58500D01*
Y4098D01*
X61021Y4296D01*
X65919Y5472D01*
X70573Y7400D01*
X74867Y10031D01*
X78697Y13303D01*
X81969Y17133D01*
X84600Y21427D01*
X86528Y26081D01*
X87704Y30979D01*
X87902Y33500D01*
D02*
G37*
G36*
X53500D02*
X24098D01*
X24296Y30979D01*
X25472Y26081D01*
X27400Y21427D01*
X30031Y17133D01*
X33303Y13303D01*
X37133Y10031D01*
X41427Y7400D01*
X46081Y5472D01*
X50979Y4296D01*
X53500Y4098D01*
Y33500D01*
D02*
G37*
G36*
X904500Y23000D02*
X888500D01*
Y7000D01*
X904500D01*
Y23000D01*
D02*
G37*
G36*
X53500Y197262D02*
X53259Y197230D01*
X50705Y196172D01*
X48511Y194489D01*
X46828Y192295D01*
X45770Y189741D01*
X45739Y189500D01*
X53500D01*
Y197262D01*
D02*
G37*
G36*
X332500Y32500D02*
X307000D01*
Y7000D01*
X332500D01*
Y32500D01*
D02*
G37*
G36*
X281000Y26000D02*
X255500D01*
Y12000D01*
X281000D01*
Y12015D01*
X282173Y12501D01*
X282837Y11837D01*
X283829Y11174D01*
X284000Y11140D01*
Y7000D01*
X298000D01*
Y21000D01*
X284000D01*
Y20985D01*
X282827Y20499D01*
X282163Y21163D01*
X281171Y21826D01*
X281000Y21860D01*
Y26000D01*
D02*
G37*
G36*
X132000Y21000D02*
X118000D01*
Y7000D01*
X132000D01*
Y21000D01*
D02*
G37*
G36*
X975902Y33500D02*
X946500D01*
Y4098D01*
X949021Y4296D01*
X953919Y5472D01*
X958573Y7400D01*
X962867Y10031D01*
X966697Y13303D01*
X969969Y17133D01*
X972600Y21427D01*
X974528Y26081D01*
X975704Y30979D01*
X975902Y33500D01*
D02*
G37*
G36*
X885500Y12500D02*
X880000D01*
Y7000D01*
X885500D01*
Y12500D01*
D02*
G37*
G36*
X875000D02*
X869500D01*
Y7000D01*
X875000D01*
Y12500D01*
D02*
G37*
G36*
X941500Y67902D02*
X938979Y67704D01*
X934081Y66528D01*
X929427Y64600D01*
X925133Y61969D01*
X921303Y58697D01*
X918031Y54867D01*
X915400Y50573D01*
X913472Y45919D01*
X912296Y41021D01*
X912098Y38500D01*
X941500D01*
Y67902D01*
D02*
G37*
G36*
X946500D02*
Y38500D01*
X975902D01*
X975704Y41021D01*
X974528Y45919D01*
X972600Y50573D01*
X969969Y54867D01*
X966697Y58697D01*
X962867Y61969D01*
X958573Y64600D01*
X953919Y66528D01*
X949021Y67704D01*
X946500Y67902D01*
D02*
G37*
G36*
X53500D02*
X50979Y67704D01*
X46081Y66528D01*
X41427Y64600D01*
X37133Y61969D01*
X33303Y58697D01*
X30031Y54867D01*
X27400Y50573D01*
X25472Y45919D01*
X24296Y41021D01*
X24098Y38500D01*
X53500D01*
Y67902D01*
D02*
G37*
G36*
X265750Y72000D02*
X255500D01*
Y67500D01*
X265750D01*
Y72000D01*
D02*
G37*
G36*
X804000Y78000D02*
X790000D01*
Y67985D01*
X788827Y67499D01*
X788163Y68163D01*
X787170Y68826D01*
X786000Y69059D01*
X786000Y69059D01*
X728500D01*
Y72500D01*
X703000D01*
Y58500D01*
X728500D01*
Y62941D01*
X784733D01*
X785751Y61923D01*
X785265Y60750D01*
X761500D01*
Y47078D01*
X728500D01*
Y49500D01*
X703000D01*
Y35500D01*
X728500D01*
Y38922D01*
X761500D01*
Y24250D01*
X770172D01*
Y21750D01*
X770172Y21750D01*
X770482Y20189D01*
X771366Y18866D01*
X778116Y12116D01*
X779439Y11232D01*
X781000Y10922D01*
X781000Y10922D01*
X790000D01*
Y7000D01*
X804000D01*
Y10922D01*
X804000Y10922D01*
X805561Y11232D01*
X806884Y12116D01*
X811884Y17116D01*
X812768Y18439D01*
X813078Y20000D01*
X813078Y20000D01*
Y35311D01*
X816768Y39000D01*
X821922D01*
Y32622D01*
X821750D01*
X819311Y32137D01*
X817244Y30756D01*
X815863Y28689D01*
X815378Y26250D01*
Y17750D01*
X815863Y15311D01*
X817244Y13244D01*
X819311Y11863D01*
X821750Y11378D01*
X830250D01*
X832689Y11863D01*
X834756Y13244D01*
X836137Y15311D01*
X836622Y17750D01*
Y26250D01*
X836137Y28689D01*
X834756Y30756D01*
X832689Y32137D01*
X830250Y32622D01*
X830078D01*
Y39000D01*
X835000D01*
Y63000D01*
X811000D01*
Y44768D01*
X806116Y39884D01*
X805232Y38561D01*
X805035Y37568D01*
X804000Y37000D01*
X800059D01*
Y48000D01*
X804000D01*
Y62000D01*
X794332D01*
X793597Y62891D01*
X794071Y64000D01*
X804000D01*
Y67941D01*
X878733D01*
X883941Y62733D01*
Y53000D01*
X879000D01*
Y37000D01*
X895000D01*
Y53000D01*
X890059D01*
Y64000D01*
X890059Y64000D01*
X889826Y65170D01*
X889163Y66163D01*
X882163Y73163D01*
X881171Y73826D01*
X880000Y74059D01*
X880000Y74059D01*
X804000D01*
Y78000D01*
D02*
G37*
G36*
X58500Y67902D02*
Y38500D01*
X87902D01*
X87704Y41021D01*
X86528Y45919D01*
X84600Y50573D01*
X81969Y54867D01*
X78697Y58697D01*
X74867Y61969D01*
X70573Y64600D01*
X65919Y66528D01*
X61021Y67704D01*
X58500Y67902D01*
D02*
G37*
G36*
X852500Y63000D02*
X843000D01*
Y53500D01*
X852500D01*
Y63000D01*
D02*
G37*
G36*
X281000Y62500D02*
X270750D01*
Y58000D01*
X281000D01*
Y62500D01*
D02*
G37*
G36*
X867000Y63000D02*
X857500D01*
Y53500D01*
X867000D01*
Y63000D01*
D02*
G37*
G36*
X265750Y62500D02*
X255500D01*
Y58000D01*
X265750D01*
Y62500D01*
D02*
G37*
G36*
X288500Y67500D02*
X284000D01*
Y63000D01*
X288500D01*
Y67500D01*
D02*
G37*
G36*
X298000D02*
X293500D01*
Y63000D01*
X298000D01*
Y67500D01*
D02*
G37*
G36*
X867000Y48500D02*
X857500D01*
Y39000D01*
X867000D01*
Y48500D01*
D02*
G37*
G36*
X852500D02*
X843000D01*
Y39000D01*
X852500D01*
Y48500D01*
D02*
G37*
G36*
X66261Y94500D02*
X58500D01*
Y86739D01*
X58741Y86770D01*
X61295Y87828D01*
X63489Y89511D01*
X65172Y91705D01*
X66230Y94259D01*
X66261Y94500D01*
D02*
G37*
G36*
X53500D02*
X45739D01*
X45770Y94259D01*
X46828Y91705D01*
X48511Y89511D01*
X50705Y87828D01*
X53259Y86770D01*
X53500Y86739D01*
Y94500D01*
D02*
G37*
G36*
X848900Y32262D02*
X848659Y32230D01*
X846105Y31172D01*
X843911Y29489D01*
X842228Y27295D01*
X841170Y24741D01*
X841139Y24500D01*
X848900D01*
Y32262D01*
D02*
G37*
G36*
X948250Y107622D02*
X939750D01*
X937311Y107137D01*
X935244Y105756D01*
X933863Y103689D01*
X933378Y101250D01*
Y92750D01*
X933863Y90311D01*
X935244Y88244D01*
X937311Y86863D01*
X939750Y86378D01*
X948250D01*
X950689Y86863D01*
X952756Y88244D01*
X954137Y90311D01*
X954622Y92750D01*
Y101250D01*
X954137Y103689D01*
X952756Y105756D01*
X950689Y107137D01*
X948250Y107622D01*
D02*
G37*
G36*
X527900Y32262D02*
Y24500D01*
X535662D01*
X535630Y24741D01*
X534572Y27295D01*
X532889Y29489D01*
X530695Y31172D01*
X528141Y32230D01*
X527900Y32262D01*
D02*
G37*
G36*
X522900Y32261D02*
X522659Y32230D01*
X520105Y31172D01*
X517911Y29489D01*
X516228Y27295D01*
X515170Y24741D01*
X515139Y24500D01*
X522900D01*
Y32261D01*
D02*
G37*
G36*
X53500Y107261D02*
X53259Y107230D01*
X50705Y106172D01*
X48511Y104489D01*
X46828Y102295D01*
X45770Y99741D01*
X45739Y99500D01*
X53500D01*
Y107261D01*
D02*
G37*
G36*
X58500Y107261D02*
Y99500D01*
X66261D01*
X66230Y99741D01*
X65172Y102295D01*
X63489Y104489D01*
X61295Y106172D01*
X58741Y107230D01*
X58500Y107261D01*
D02*
G37*
G36*
X332500Y63000D02*
X307000D01*
Y37500D01*
X332500D01*
Y63000D01*
D02*
G37*
G36*
X288500Y77000D02*
X284000D01*
Y72500D01*
X288500D01*
Y77000D01*
D02*
G37*
G36*
X281000Y72000D02*
X270750D01*
Y67500D01*
X281000D01*
Y72000D01*
D02*
G37*
G36*
X363000Y63000D02*
X337500D01*
Y37500D01*
X363000D01*
Y63000D01*
D02*
G37*
G36*
X853900Y32262D02*
Y24500D01*
X861661D01*
X861630Y24741D01*
X860572Y27295D01*
X858889Y29489D01*
X856695Y31172D01*
X854141Y32230D01*
X853900Y32262D01*
D02*
G37*
G36*
X298000Y77000D02*
X293500D01*
Y72500D01*
X298000D01*
Y77000D01*
D02*
G37*
G36*
X222500Y60250D02*
X197000D01*
Y46588D01*
X194400D01*
X192644Y46239D01*
X191156Y45244D01*
X177848Y31937D01*
X177141Y32230D01*
X174400Y32591D01*
X171659Y32230D01*
X169105Y31172D01*
X166911Y29489D01*
X165228Y27295D01*
X164170Y24741D01*
X163809Y22000D01*
X164170Y19259D01*
X165228Y16705D01*
X166911Y14511D01*
X169105Y12828D01*
X171659Y11770D01*
X174400Y11409D01*
X177141Y11770D01*
X179695Y12828D01*
X181889Y14511D01*
X183572Y16705D01*
X184630Y19259D01*
X184991Y22000D01*
X184630Y24741D01*
X184337Y25448D01*
X195730Y36841D01*
X197000Y36315D01*
Y23750D01*
X222500D01*
Y37412D01*
X255500D01*
Y35000D01*
X281000D01*
Y49000D01*
X255500D01*
Y46588D01*
X222500D01*
Y60250D01*
D02*
G37*
G36*
X423500Y37000D02*
X419000D01*
Y32500D01*
X423500D01*
Y37000D01*
D02*
G37*
G36*
X941500Y325100D02*
X933739D01*
X933770Y324859D01*
X934828Y322305D01*
X936511Y320111D01*
X938705Y318428D01*
X941259Y317370D01*
X941500Y317339D01*
Y325100D01*
D02*
G37*
G36*
X487600Y963091D02*
X484859Y962730D01*
X482305Y961672D01*
X480111Y959989D01*
X478428Y957795D01*
X477370Y955241D01*
X477009Y952500D01*
X477370Y949759D01*
X478428Y947205D01*
X480111Y945011D01*
X482305Y943328D01*
X484859Y942270D01*
X487600Y941909D01*
X490341Y942270D01*
X492895Y943328D01*
X495089Y945011D01*
X496772Y947205D01*
X497830Y949759D01*
X498191Y952500D01*
X497830Y955241D01*
X496772Y957795D01*
X495089Y959989D01*
X492895Y961672D01*
X490341Y962730D01*
X487600Y963091D01*
D02*
G37*
G36*
X513000D02*
X510259Y962730D01*
X507705Y961672D01*
X505511Y959989D01*
X503828Y957795D01*
X502770Y955241D01*
X502409Y952500D01*
X502770Y949759D01*
X503828Y947205D01*
X505511Y945011D01*
X507705Y943328D01*
X510259Y942270D01*
X513000Y941909D01*
X515741Y942270D01*
X518295Y943328D01*
X520489Y945011D01*
X522172Y947205D01*
X523230Y949759D01*
X523591Y952500D01*
X523230Y955241D01*
X522172Y957795D01*
X520489Y959989D01*
X518295Y961672D01*
X515741Y962730D01*
X513000Y963091D01*
D02*
G37*
G36*
X436800D02*
X434059Y962730D01*
X431505Y961672D01*
X429311Y959989D01*
X427628Y957795D01*
X426570Y955241D01*
X426209Y952500D01*
X426570Y949759D01*
X427628Y947205D01*
X429311Y945011D01*
X431505Y943328D01*
X434059Y942270D01*
X436800Y941909D01*
X439541Y942270D01*
X442095Y943328D01*
X444289Y945011D01*
X445972Y947205D01*
X447030Y949759D01*
X447391Y952500D01*
X447030Y955241D01*
X445972Y957795D01*
X444289Y959989D01*
X442095Y961672D01*
X439541Y962730D01*
X436800Y963091D01*
D02*
G37*
G36*
X462200D02*
X459459Y962730D01*
X456905Y961672D01*
X454711Y959989D01*
X453028Y957795D01*
X451970Y955241D01*
X451609Y952500D01*
X451970Y949759D01*
X453028Y947205D01*
X454711Y945011D01*
X456905Y943328D01*
X459459Y942270D01*
X462200Y941909D01*
X464941Y942270D01*
X467495Y943328D01*
X469689Y945011D01*
X471372Y947205D01*
X472430Y949759D01*
X472791Y952500D01*
X472430Y955241D01*
X471372Y957795D01*
X469689Y959989D01*
X467495Y961672D01*
X464941Y962730D01*
X462200Y963091D01*
D02*
G37*
G36*
X538400D02*
X535659Y962730D01*
X533105Y961672D01*
X530911Y959989D01*
X529228Y957795D01*
X528170Y955241D01*
X527809Y952500D01*
X528170Y949759D01*
X529228Y947205D01*
X530911Y945011D01*
X533105Y943328D01*
X535659Y942270D01*
X538400Y941909D01*
X541141Y942270D01*
X543695Y943328D01*
X545889Y945011D01*
X547572Y947205D01*
X548630Y949759D01*
X548991Y952500D01*
X548630Y955241D01*
X547572Y957795D01*
X545889Y959989D01*
X543695Y961672D01*
X541141Y962730D01*
X538400Y963091D01*
D02*
G37*
G36*
X614600D02*
X611859Y962730D01*
X609305Y961672D01*
X607111Y959989D01*
X605428Y957795D01*
X604370Y955241D01*
X604009Y952500D01*
X604370Y949759D01*
X605428Y947205D01*
X607111Y945011D01*
X609305Y943328D01*
X611859Y942270D01*
X614600Y941909D01*
X617341Y942270D01*
X619895Y943328D01*
X622089Y945011D01*
X623772Y947205D01*
X624830Y949759D01*
X625191Y952500D01*
X624830Y955241D01*
X623772Y957795D01*
X622089Y959989D01*
X619895Y961672D01*
X617341Y962730D01*
X614600Y963091D01*
D02*
G37*
G36*
X396500Y963000D02*
X375500D01*
Y942000D01*
X396500D01*
Y963000D01*
D02*
G37*
G36*
X563800Y963091D02*
X561059Y962730D01*
X558505Y961672D01*
X556311Y959989D01*
X554628Y957795D01*
X553570Y955241D01*
X553209Y952500D01*
X553570Y949759D01*
X554628Y947205D01*
X556311Y945011D01*
X558505Y943328D01*
X561059Y942270D01*
X563800Y941909D01*
X566541Y942270D01*
X569095Y943328D01*
X571289Y945011D01*
X572972Y947205D01*
X574030Y949759D01*
X574391Y952500D01*
X574030Y955241D01*
X572972Y957795D01*
X571289Y959989D01*
X569095Y961672D01*
X566541Y962730D01*
X563800Y963091D01*
D02*
G37*
G36*
X589200D02*
X586459Y962730D01*
X583905Y961672D01*
X581711Y959989D01*
X580028Y957795D01*
X578970Y955241D01*
X578609Y952500D01*
X578970Y949759D01*
X580028Y947205D01*
X581711Y945011D01*
X583905Y943328D01*
X586459Y942270D01*
X589200Y941909D01*
X591941Y942270D01*
X594495Y943328D01*
X596689Y945011D01*
X598372Y947205D01*
X599430Y949759D01*
X599791Y952500D01*
X599430Y955241D01*
X598372Y957795D01*
X596689Y959989D01*
X594495Y961672D01*
X591941Y962730D01*
X589200Y963091D01*
D02*
G37*
G36*
X411400D02*
X408659Y962730D01*
X406105Y961672D01*
X403911Y959989D01*
X402228Y957795D01*
X401170Y955241D01*
X400809Y952500D01*
X401170Y949759D01*
X402228Y947205D01*
X403911Y945011D01*
X406105Y943328D01*
X408659Y942270D01*
X411400Y941909D01*
X414141Y942270D01*
X416695Y943328D01*
X418889Y945011D01*
X420572Y947205D01*
X421630Y949759D01*
X421991Y952500D01*
X421630Y955241D01*
X420572Y957795D01*
X418889Y959989D01*
X416695Y961672D01*
X414141Y962730D01*
X411400Y963091D01*
D02*
G37*
G36*
X800500Y905000D02*
X794000D01*
Y898500D01*
X800500D01*
Y905000D01*
D02*
G37*
G36*
X941500Y913261D02*
X941259Y913230D01*
X938705Y912172D01*
X936511Y910489D01*
X934828Y908295D01*
X933770Y905741D01*
X933739Y905500D01*
X941500D01*
Y913261D01*
D02*
G37*
G36*
X954261Y900500D02*
X946500D01*
Y892738D01*
X946741Y892770D01*
X949295Y893828D01*
X951489Y895511D01*
X953172Y897705D01*
X954230Y900259D01*
X954261Y900500D01*
D02*
G37*
G36*
X941500D02*
X933739D01*
X933770Y900259D01*
X934828Y897705D01*
X936511Y895511D01*
X938705Y893828D01*
X941259Y892770D01*
X941500Y892738D01*
Y900500D01*
D02*
G37*
G36*
X946500Y913261D02*
Y905500D01*
X954261D01*
X954230Y905741D01*
X953172Y908295D01*
X951489Y910489D01*
X949295Y912172D01*
X946741Y913230D01*
X946500Y913261D01*
D02*
G37*
G36*
X941500Y961500D02*
X912098D01*
X912296Y958979D01*
X913472Y954081D01*
X915400Y949427D01*
X918031Y945133D01*
X921303Y941303D01*
X925133Y938031D01*
X929427Y935400D01*
X934081Y933472D01*
X938979Y932296D01*
X941500Y932098D01*
Y961500D01*
D02*
G37*
G36*
X975902D02*
X946500D01*
Y932098D01*
X949021Y932296D01*
X953919Y933472D01*
X958573Y935400D01*
X962867Y938031D01*
X966697Y941303D01*
X969969Y945133D01*
X972600Y949427D01*
X974528Y954081D01*
X975704Y958979D01*
X975902Y961500D01*
D02*
G37*
G36*
X53500D02*
X24098D01*
X24296Y958979D01*
X25472Y954081D01*
X27400Y949427D01*
X30031Y945133D01*
X33303Y941303D01*
X37133Y938031D01*
X41427Y935400D01*
X46081Y933472D01*
X50979Y932296D01*
X53500Y932098D01*
Y961500D01*
D02*
G37*
G36*
X87902D02*
X58500D01*
Y932098D01*
X61021Y932296D01*
X65919Y933472D01*
X70573Y935400D01*
X74867Y938031D01*
X78697Y941303D01*
X81969Y945133D01*
X84600Y949427D01*
X86528Y954081D01*
X87704Y958979D01*
X87902Y961500D01*
D02*
G37*
G36*
X53500Y995902D02*
X50979Y995704D01*
X46081Y994528D01*
X41427Y992600D01*
X37133Y989969D01*
X33303Y986697D01*
X30031Y982867D01*
X27400Y978573D01*
X25472Y973919D01*
X24296Y969021D01*
X24098Y966500D01*
X53500D01*
Y995902D01*
D02*
G37*
G36*
X497861Y975400D02*
X490100D01*
Y967639D01*
X490341Y967670D01*
X492895Y968728D01*
X495089Y970411D01*
X496772Y972605D01*
X497830Y975159D01*
X497861Y975400D01*
D02*
G37*
G36*
X510500D02*
X502738D01*
X502770Y975159D01*
X503828Y972605D01*
X505511Y970411D01*
X507705Y968728D01*
X510259Y967670D01*
X510500Y967639D01*
Y975400D01*
D02*
G37*
G36*
X614600Y988491D02*
X611859Y988130D01*
X609305Y987072D01*
X607111Y985389D01*
X605428Y983195D01*
X604370Y980641D01*
X604009Y977900D01*
X604370Y975159D01*
X605428Y972605D01*
X607111Y970411D01*
X609305Y968728D01*
X611859Y967670D01*
X614600Y967309D01*
X617341Y967670D01*
X619895Y968728D01*
X622089Y970411D01*
X623772Y972605D01*
X624830Y975159D01*
X625191Y977900D01*
X624830Y980641D01*
X623772Y983195D01*
X622089Y985389D01*
X619895Y987072D01*
X617341Y988130D01*
X614600Y988491D01*
D02*
G37*
G36*
X485100Y975400D02*
X477338D01*
X477370Y975159D01*
X478428Y972605D01*
X480111Y970411D01*
X482305Y968728D01*
X484859Y967670D01*
X485100Y967639D01*
Y975400D01*
D02*
G37*
G36*
X523261D02*
X515500D01*
Y967639D01*
X515741Y967670D01*
X518295Y968728D01*
X520489Y970411D01*
X522172Y972605D01*
X523230Y975159D01*
X523261Y975400D01*
D02*
G37*
G36*
X510500Y988161D02*
X510259Y988130D01*
X507705Y987072D01*
X505511Y985389D01*
X503828Y983195D01*
X502770Y980641D01*
X502738Y980400D01*
X510500D01*
Y988161D01*
D02*
G37*
G36*
X515500D02*
Y980400D01*
X523261D01*
X523230Y980641D01*
X522172Y983195D01*
X520489Y985389D01*
X518295Y987072D01*
X515741Y988130D01*
X515500Y988161D01*
D02*
G37*
G36*
X485100D02*
X484859Y988130D01*
X482305Y987072D01*
X480111Y985389D01*
X478428Y983195D01*
X477370Y980641D01*
X477338Y980400D01*
X485100D01*
Y988161D01*
D02*
G37*
G36*
X490100D02*
Y980400D01*
X497861D01*
X497830Y980641D01*
X496772Y983195D01*
X495089Y985389D01*
X492895Y987072D01*
X490341Y988130D01*
X490100Y988161D01*
D02*
G37*
G36*
X589200Y988491D02*
X586459Y988130D01*
X583905Y987072D01*
X581711Y985389D01*
X580028Y983195D01*
X578970Y980641D01*
X578609Y977900D01*
X578970Y975159D01*
X580028Y972605D01*
X581711Y970411D01*
X583905Y968728D01*
X586459Y967670D01*
X589200Y967309D01*
X591941Y967670D01*
X594495Y968728D01*
X596689Y970411D01*
X598372Y972605D01*
X599430Y975159D01*
X599791Y977900D01*
X599430Y980641D01*
X598372Y983195D01*
X596689Y985389D01*
X594495Y987072D01*
X591941Y988130D01*
X589200Y988491D01*
D02*
G37*
G36*
X946500Y995902D02*
Y966500D01*
X975902D01*
X975704Y969021D01*
X974528Y973919D01*
X972600Y978573D01*
X969969Y982867D01*
X966697Y986697D01*
X962867Y989969D01*
X958573Y992600D01*
X953919Y994528D01*
X949021Y995704D01*
X946500Y995902D01*
D02*
G37*
G36*
X386000Y988491D02*
X383259Y988130D01*
X380705Y987072D01*
X378511Y985389D01*
X376828Y983195D01*
X375770Y980641D01*
X375409Y977900D01*
X375770Y975159D01*
X376828Y972605D01*
X378511Y970411D01*
X380705Y968728D01*
X383259Y967670D01*
X386000Y967309D01*
X388741Y967670D01*
X391295Y968728D01*
X393489Y970411D01*
X395172Y972605D01*
X396230Y975159D01*
X396591Y977900D01*
X396230Y980641D01*
X395172Y983195D01*
X393489Y985389D01*
X391295Y987072D01*
X388741Y988130D01*
X386000Y988491D01*
D02*
G37*
G36*
X58500Y995902D02*
Y966500D01*
X87902D01*
X87704Y969021D01*
X86528Y973919D01*
X84600Y978573D01*
X81969Y982867D01*
X78697Y986697D01*
X74867Y989969D01*
X70573Y992600D01*
X65919Y994528D01*
X61021Y995704D01*
X58500Y995902D01*
D02*
G37*
G36*
X941500D02*
X938979Y995704D01*
X934081Y994528D01*
X929427Y992600D01*
X925133Y989969D01*
X921303Y986697D01*
X918031Y982867D01*
X915400Y978573D01*
X913472Y973919D01*
X912296Y969021D01*
X912098Y966500D01*
X941500D01*
Y995902D01*
D02*
G37*
G36*
X411400Y988491D02*
X408659Y988130D01*
X406105Y987072D01*
X403911Y985389D01*
X402228Y983195D01*
X401170Y980641D01*
X400809Y977900D01*
X401170Y975159D01*
X402228Y972605D01*
X403911Y970411D01*
X406105Y968728D01*
X408659Y967670D01*
X411400Y967309D01*
X414141Y967670D01*
X416695Y968728D01*
X418889Y970411D01*
X420572Y972605D01*
X421630Y975159D01*
X421991Y977900D01*
X421630Y980641D01*
X420572Y983195D01*
X418889Y985389D01*
X416695Y987072D01*
X414141Y988130D01*
X411400Y988491D01*
D02*
G37*
G36*
X538400D02*
X535659Y988130D01*
X533105Y987072D01*
X530911Y985389D01*
X529228Y983195D01*
X528170Y980641D01*
X527809Y977900D01*
X528170Y975159D01*
X529228Y972605D01*
X530911Y970411D01*
X533105Y968728D01*
X535659Y967670D01*
X538400Y967309D01*
X541141Y967670D01*
X543695Y968728D01*
X545889Y970411D01*
X547572Y972605D01*
X548630Y975159D01*
X548991Y977900D01*
X548630Y980641D01*
X547572Y983195D01*
X545889Y985389D01*
X543695Y987072D01*
X541141Y988130D01*
X538400Y988491D01*
D02*
G37*
G36*
X563800D02*
X561059Y988130D01*
X558505Y987072D01*
X556311Y985389D01*
X554628Y983195D01*
X553570Y980641D01*
X553209Y977900D01*
X553570Y975159D01*
X554628Y972605D01*
X556311Y970411D01*
X558505Y968728D01*
X561059Y967670D01*
X563800Y967309D01*
X566541Y967670D01*
X569095Y968728D01*
X571289Y970411D01*
X572972Y972605D01*
X574030Y975159D01*
X574391Y977900D01*
X574030Y980641D01*
X572972Y983195D01*
X571289Y985389D01*
X569095Y987072D01*
X566541Y988130D01*
X563800Y988491D01*
D02*
G37*
G36*
X436800D02*
X434059Y988130D01*
X431505Y987072D01*
X429311Y985389D01*
X427628Y983195D01*
X426570Y980641D01*
X426209Y977900D01*
X426570Y975159D01*
X427628Y972605D01*
X429311Y970411D01*
X431505Y968728D01*
X434059Y967670D01*
X436800Y967309D01*
X439541Y967670D01*
X442095Y968728D01*
X444289Y970411D01*
X445972Y972605D01*
X447030Y975159D01*
X447391Y977900D01*
X447030Y980641D01*
X445972Y983195D01*
X444289Y985389D01*
X442095Y987072D01*
X439541Y988130D01*
X436800Y988491D01*
D02*
G37*
G36*
X462200D02*
X459459Y988130D01*
X456905Y987072D01*
X454711Y985389D01*
X453028Y983195D01*
X451970Y980641D01*
X451609Y977900D01*
X451970Y975159D01*
X453028Y972605D01*
X454711Y970411D01*
X456905Y968728D01*
X459459Y967670D01*
X462200Y967309D01*
X464941Y967670D01*
X467495Y968728D01*
X469689Y970411D01*
X471372Y972605D01*
X472430Y975159D01*
X472791Y977900D01*
X472430Y980641D01*
X471372Y983195D01*
X469689Y985389D01*
X467495Y987072D01*
X464941Y988130D01*
X462200Y988491D01*
D02*
G37*
G36*
X53500Y474700D02*
X45739D01*
X45770Y474459D01*
X46828Y471905D01*
X48511Y469711D01*
X50705Y468028D01*
X53259Y466970D01*
X53500Y466939D01*
Y474700D01*
D02*
G37*
G36*
Y487462D02*
X53259Y487430D01*
X50705Y486372D01*
X48511Y484689D01*
X46828Y482495D01*
X45770Y479941D01*
X45739Y479700D01*
X53500D01*
Y487462D01*
D02*
G37*
G36*
X954261Y435500D02*
X946500D01*
Y427738D01*
X946741Y427770D01*
X949295Y428828D01*
X951489Y430511D01*
X953172Y432705D01*
X954230Y435259D01*
X954261Y435500D01*
D02*
G37*
G36*
X946500Y448261D02*
Y440500D01*
X954261D01*
X954230Y440741D01*
X953172Y443295D01*
X951489Y445489D01*
X949295Y447172D01*
X946741Y448230D01*
X946500Y448261D01*
D02*
G37*
G36*
X954261Y525300D02*
X946500D01*
Y517539D01*
X946741Y517570D01*
X949295Y518628D01*
X951489Y520311D01*
X953172Y522505D01*
X954230Y525059D01*
X954261Y525300D01*
D02*
G37*
G36*
X53500Y577262D02*
X53259Y577230D01*
X50705Y576172D01*
X48511Y574489D01*
X46828Y572295D01*
X45770Y569741D01*
X45739Y569500D01*
X53500D01*
Y577262D01*
D02*
G37*
G36*
X60250Y628422D02*
X51750D01*
X49311Y627937D01*
X47244Y626556D01*
X45863Y624489D01*
X45377Y622050D01*
Y613550D01*
X45863Y611111D01*
X47244Y609044D01*
X49311Y607663D01*
X51750Y607178D01*
X60250D01*
X62689Y607663D01*
X64756Y609044D01*
X66137Y611111D01*
X66622Y613550D01*
Y622050D01*
X66137Y624489D01*
X64756Y626556D01*
X62689Y627937D01*
X60250Y628422D01*
D02*
G37*
G36*
X946500Y538061D02*
Y530300D01*
X954261D01*
X954230Y530541D01*
X953172Y533095D01*
X951489Y535289D01*
X949295Y536972D01*
X946741Y538030D01*
X946500Y538061D01*
D02*
G37*
G36*
X53500Y564500D02*
X45739D01*
X45770Y564259D01*
X46828Y561705D01*
X48511Y559511D01*
X50705Y557828D01*
X53259Y556770D01*
X53500Y556739D01*
Y564500D01*
D02*
G37*
G36*
X206000Y396500D02*
X199500D01*
Y390000D01*
X206000D01*
Y396500D01*
D02*
G37*
G36*
X941500Y337862D02*
X941259Y337830D01*
X938705Y336772D01*
X936511Y335089D01*
X934828Y332895D01*
X933770Y330341D01*
X933739Y330100D01*
X941500D01*
Y337862D01*
D02*
G37*
G36*
X946500Y337861D02*
Y330100D01*
X954261D01*
X954230Y330341D01*
X953172Y332895D01*
X951489Y335089D01*
X949295Y336772D01*
X946741Y337830D01*
X946500Y337861D01*
D02*
G37*
G36*
X954261Y325100D02*
X946500D01*
Y317339D01*
X946741Y317370D01*
X949295Y318428D01*
X951489Y320111D01*
X953172Y322305D01*
X954230Y324859D01*
X954261Y325100D01*
D02*
G37*
G36*
X800500Y330000D02*
X794000D01*
Y323500D01*
X800500D01*
Y330000D01*
D02*
G37*
G36*
X948250Y397822D02*
X939750D01*
X937311Y397337D01*
X935244Y395956D01*
X933863Y393889D01*
X933378Y391450D01*
Y382950D01*
X933863Y380511D01*
X935244Y378444D01*
X937311Y377063D01*
X939750Y376578D01*
X948250D01*
X950689Y377063D01*
X952756Y378444D01*
X954137Y380511D01*
X954622Y382950D01*
Y391450D01*
X954137Y393889D01*
X952756Y395956D01*
X950689Y397337D01*
X948250Y397822D01*
D02*
G37*
G36*
X53500Y397462D02*
X53259Y397430D01*
X50705Y396372D01*
X48511Y394689D01*
X46828Y392495D01*
X45770Y389941D01*
X45739Y389700D01*
X53500D01*
Y397462D01*
D02*
G37*
G36*
X58500Y397461D02*
Y389700D01*
X66261D01*
X66230Y389941D01*
X65172Y392495D01*
X63489Y394689D01*
X61295Y396372D01*
X58741Y397430D01*
X58500Y397461D01*
D02*
G37*
G36*
X53500Y384700D02*
X45739D01*
X45770Y384459D01*
X46828Y381905D01*
X48511Y379711D01*
X50705Y378028D01*
X53259Y376970D01*
X53500Y376939D01*
Y384700D01*
D02*
G37*
G36*
X66261D02*
X58500D01*
Y376939D01*
X58741Y376970D01*
X61295Y378028D01*
X63489Y379711D01*
X65172Y381905D01*
X66230Y384459D01*
X66261Y384700D01*
D02*
G37*
G36*
X941500Y615300D02*
X933738D01*
X933770Y615059D01*
X934828Y612505D01*
X936511Y610311D01*
X938705Y608628D01*
X941259Y607570D01*
X941500Y607538D01*
Y615300D01*
D02*
G37*
G36*
X53500Y759700D02*
X45739D01*
X45770Y759459D01*
X46828Y756905D01*
X48511Y754711D01*
X50705Y753028D01*
X53259Y751970D01*
X53500Y751939D01*
Y759700D01*
D02*
G37*
G36*
Y772461D02*
X53259Y772430D01*
X50705Y771372D01*
X48511Y769689D01*
X46828Y767495D01*
X45770Y764941D01*
X45739Y764700D01*
X53500D01*
Y772461D01*
D02*
G37*
G36*
X954261Y720500D02*
X946500D01*
Y712739D01*
X946741Y712770D01*
X949295Y713828D01*
X951489Y715511D01*
X953172Y717705D01*
X954230Y720259D01*
X954261Y720500D01*
D02*
G37*
G36*
X946500Y733261D02*
Y725500D01*
X954261D01*
X954230Y725741D01*
X953172Y728295D01*
X951489Y730489D01*
X949295Y732172D01*
X946741Y733230D01*
X946500Y733261D01*
D02*
G37*
G36*
X954261Y810500D02*
X946500D01*
Y802739D01*
X946741Y802770D01*
X949295Y803828D01*
X951489Y805511D01*
X953172Y807705D01*
X954230Y810259D01*
X954261Y810500D01*
D02*
G37*
G36*
X53500Y862461D02*
X53259Y862430D01*
X50705Y861372D01*
X48511Y859689D01*
X46828Y857495D01*
X45770Y854941D01*
X45739Y854700D01*
X53500D01*
Y862461D01*
D02*
G37*
G36*
X60250Y913622D02*
X51750D01*
X49311Y913137D01*
X47244Y911756D01*
X45863Y909689D01*
X45377Y907250D01*
Y898750D01*
X45863Y896311D01*
X47244Y894244D01*
X49311Y892863D01*
X51750Y892378D01*
X60250D01*
X62689Y892863D01*
X64756Y894244D01*
X66137Y896311D01*
X66622Y898750D01*
Y907250D01*
X66137Y909689D01*
X64756Y911756D01*
X62689Y913137D01*
X60250Y913622D01*
D02*
G37*
G36*
X946500Y823261D02*
Y815500D01*
X954261D01*
X954230Y815741D01*
X953172Y818295D01*
X951489Y820489D01*
X949295Y822172D01*
X946741Y823230D01*
X946500Y823261D01*
D02*
G37*
G36*
X53500Y849700D02*
X45739D01*
X45770Y849459D01*
X46828Y846905D01*
X48511Y844711D01*
X50705Y843028D01*
X53259Y841970D01*
X53500Y841938D01*
Y849700D01*
D02*
G37*
G36*
X206000Y681500D02*
X199500D01*
Y675000D01*
X206000D01*
Y681500D01*
D02*
G37*
G36*
X941500Y628061D02*
X941259Y628030D01*
X938705Y626972D01*
X936511Y625289D01*
X934828Y623095D01*
X933770Y620541D01*
X933738Y620300D01*
X941500D01*
Y628061D01*
D02*
G37*
G36*
X946500Y628061D02*
Y620300D01*
X954261D01*
X954230Y620541D01*
X953172Y623095D01*
X951489Y625289D01*
X949295Y626972D01*
X946741Y628030D01*
X946500Y628061D01*
D02*
G37*
G36*
X954261Y615300D02*
X946500D01*
Y607539D01*
X946741Y607570D01*
X949295Y608628D01*
X951489Y610311D01*
X953172Y612505D01*
X954230Y615059D01*
X954261Y615300D01*
D02*
G37*
G36*
X800500Y620000D02*
X794000D01*
Y613500D01*
X800500D01*
Y620000D01*
D02*
G37*
G36*
X66261Y669300D02*
X58500D01*
Y661538D01*
X58741Y661570D01*
X61295Y662628D01*
X63489Y664311D01*
X65172Y666505D01*
X66230Y669059D01*
X66261Y669300D01*
D02*
G37*
G36*
X53500Y682061D02*
X53259Y682030D01*
X50705Y680972D01*
X48511Y679289D01*
X46828Y677095D01*
X45770Y674541D01*
X45739Y674300D01*
X53500D01*
Y682061D01*
D02*
G37*
G36*
X58500Y682061D02*
Y674300D01*
X66261D01*
X66230Y674541D01*
X65172Y677095D01*
X63489Y679289D01*
X61295Y680972D01*
X58741Y682030D01*
X58500Y682061D01*
D02*
G37*
G36*
X53500Y669300D02*
X45739D01*
X45770Y669059D01*
X46828Y666505D01*
X48511Y664311D01*
X50705Y662628D01*
X53259Y661570D01*
X53500Y661539D01*
Y669300D01*
D02*
G37*
G36*
X948250Y682822D02*
X939750D01*
X937311Y682337D01*
X935244Y680956D01*
X933863Y678889D01*
X933378Y676450D01*
Y667950D01*
X933863Y665511D01*
X935244Y663444D01*
X937311Y662063D01*
X939750Y661578D01*
X948250D01*
X950689Y662063D01*
X952756Y663444D01*
X954137Y665511D01*
X954622Y667950D01*
Y676450D01*
X954137Y678889D01*
X952756Y680956D01*
X950689Y682337D01*
X948250Y682822D01*
D02*
G37*
%LPD*%
D10*
X336000Y690000D02*
D03*
X314000D02*
D03*
X664000Y890000D02*
D03*
X686000D02*
D03*
X336000Y405000D02*
D03*
X314000D02*
D03*
X664000Y605000D02*
D03*
X686000D02*
D03*
X336000Y115000D02*
D03*
X314000D02*
D03*
X664000Y315000D02*
D03*
X686000D02*
D03*
D11*
X414500Y885000D02*
D03*
X477500D02*
D03*
X585500Y695000D02*
D03*
X522500D02*
D03*
X414500Y600000D02*
D03*
X477500D02*
D03*
X585500Y410000D02*
D03*
X522500D02*
D03*
X414500Y310000D02*
D03*
X477500D02*
D03*
X585500Y120000D02*
D03*
X522500D02*
D03*
D12*
X140000Y882000D02*
D03*
Y796000D02*
D03*
X860000Y698000D02*
D03*
Y784000D02*
D03*
X140000Y597000D02*
D03*
Y511000D02*
D03*
X860000Y413000D02*
D03*
Y499000D02*
D03*
X140000Y307000D02*
D03*
Y221000D02*
D03*
X860000Y123000D02*
D03*
Y209000D02*
D03*
D13*
X162000Y690500D02*
D03*
Y753500D02*
D03*
X892000Y826500D02*
D03*
Y889500D02*
D03*
X109000Y690500D02*
D03*
Y753500D02*
D03*
X838000Y826500D02*
D03*
Y889500D02*
D03*
X109000Y468000D02*
D03*
Y405000D02*
D03*
X891000Y541500D02*
D03*
Y604500D02*
D03*
X162000Y468500D02*
D03*
Y405500D02*
D03*
X838000Y541500D02*
D03*
Y604500D02*
D03*
X108000Y178500D02*
D03*
Y115500D02*
D03*
X891000Y251500D02*
D03*
Y314500D02*
D03*
X162000Y178500D02*
D03*
Y115500D02*
D03*
X838000Y251500D02*
D03*
Y314500D02*
D03*
D14*
X681000Y77000D02*
D03*
X649000D02*
D03*
X823000Y51000D02*
D03*
X855000D02*
D03*
D15*
X221000Y841000D02*
D03*
X321000D02*
D03*
X779000Y739000D02*
D03*
X679000D02*
D03*
X221000Y556000D02*
D03*
X321000D02*
D03*
X779000Y454000D02*
D03*
X679000D02*
D03*
X221000Y266000D02*
D03*
X321000D02*
D03*
X779000Y164000D02*
D03*
X679000D02*
D03*
D16*
X665000Y35000D02*
D03*
D17*
X335000Y35000D02*
D03*
D18*
X125000Y14000D02*
D03*
Y30000D02*
D03*
X291000Y30000D02*
D03*
Y14000D02*
D03*
Y70000D02*
D03*
Y54000D02*
D03*
X426000Y30000D02*
D03*
Y14000D02*
D03*
X797000Y14000D02*
D03*
Y30000D02*
D03*
Y55000D02*
D03*
Y71000D02*
D03*
D19*
X197000Y706000D02*
D03*
Y684000D02*
D03*
X803000Y874000D02*
D03*
Y896000D02*
D03*
X197000Y738000D02*
D03*
Y760000D02*
D03*
X803000Y842000D02*
D03*
Y820000D02*
D03*
X197000Y421000D02*
D03*
Y399000D02*
D03*
X803000Y589000D02*
D03*
Y611000D02*
D03*
X197000Y453000D02*
D03*
Y475000D02*
D03*
X803000Y557000D02*
D03*
Y535000D02*
D03*
X197000Y131000D02*
D03*
Y109000D02*
D03*
X803000Y299000D02*
D03*
Y321000D02*
D03*
X197000Y163000D02*
D03*
Y185000D02*
D03*
X803000Y267000D02*
D03*
Y245000D02*
D03*
D20*
X896500Y15000D02*
D03*
X877500D02*
D03*
X887000Y45000D02*
D03*
D21*
X405000Y800000D02*
D03*
X595000Y780000D02*
D03*
X405000Y515000D02*
D03*
X595000Y495000D02*
D03*
X405000Y225000D02*
D03*
X595000Y205000D02*
D03*
D22*
X405000Y699000D02*
D03*
X392300D02*
D03*
X417700D02*
D03*
X379600D02*
D03*
X366900D02*
D03*
X430400D02*
D03*
X443100D02*
D03*
X595000Y881000D02*
D03*
X607700D02*
D03*
X582300D02*
D03*
X620400D02*
D03*
X633100D02*
D03*
X569600D02*
D03*
X556900D02*
D03*
X405000Y414000D02*
D03*
X392300D02*
D03*
X417700D02*
D03*
X379600D02*
D03*
X366900D02*
D03*
X430400D02*
D03*
X443100D02*
D03*
X595000Y596000D02*
D03*
X607700D02*
D03*
X582300D02*
D03*
X620400D02*
D03*
X633100D02*
D03*
X569600D02*
D03*
X556900D02*
D03*
X405000Y124000D02*
D03*
X392300D02*
D03*
X417700D02*
D03*
X379600D02*
D03*
X366900D02*
D03*
X430400D02*
D03*
X443100D02*
D03*
X595000Y306000D02*
D03*
X607700D02*
D03*
X582300D02*
D03*
X620400D02*
D03*
X633100D02*
D03*
X569600D02*
D03*
X556900D02*
D03*
D23*
X774250Y42500D02*
D03*
X209750Y42000D02*
D03*
D24*
X715750Y19500D02*
D03*
Y42500D02*
D03*
Y65500D02*
D03*
X268250Y65000D02*
D03*
Y42000D02*
D03*
Y19000D02*
D03*
D25*
X302000Y737000D02*
D03*
X698000Y843000D02*
D03*
X302000Y452000D02*
D03*
X698000Y558000D02*
D03*
X302000Y162000D02*
D03*
X698000Y268000D02*
D03*
D26*
X226000Y714000D02*
D03*
Y760000D02*
D03*
X774000Y866000D02*
D03*
Y820000D02*
D03*
X226000Y429000D02*
D03*
Y475000D02*
D03*
X774000Y581000D02*
D03*
Y535000D02*
D03*
X226000Y139000D02*
D03*
Y185000D02*
D03*
X774000Y291000D02*
D03*
Y245000D02*
D03*
D27*
X929800Y412200D02*
X944000D01*
X926000Y502600D02*
X944000D01*
X930600Y592600D02*
X944000D01*
X929800Y697200D02*
X944000D01*
X56000Y122000D02*
X70200D01*
X56000Y302400D02*
X69400D01*
X56000Y412200D02*
X70200D01*
X56000Y592600D02*
X69400D01*
X929800Y122000D02*
X944000D01*
X930600Y302400D02*
X944000D01*
X56000Y697200D02*
X70200D01*
X56000Y877600D02*
X69400D01*
X74000Y873000D01*
X70200Y697200D02*
X74000Y701000D01*
X56000Y787600D02*
X74000D01*
Y701000D02*
Y787600D01*
Y873000D01*
X74000Y502600D02*
Y588000D01*
Y416000D02*
Y502600D01*
X56000D02*
X74000D01*
X70200Y412200D02*
X74000Y416000D01*
X69400Y592600D02*
X74000Y588000D01*
X74000Y212400D02*
Y297800D01*
Y125800D02*
Y212400D01*
X56000D02*
X74000D01*
X70200Y122000D02*
X74000Y125800D01*
X69400Y302400D02*
X74000Y297800D01*
X926000D02*
X930600Y302400D01*
X926000Y125800D02*
X929800Y122000D01*
X926000Y212400D02*
X944000D01*
X926000Y125800D02*
Y212400D01*
Y297800D01*
X926000Y588000D02*
X930600Y592600D01*
X926000Y416000D02*
X929800Y412200D01*
X926000Y416000D02*
Y502600D01*
Y588000D01*
X926000Y787600D02*
Y873000D01*
Y701000D02*
Y787600D01*
X944000D01*
X926000Y701000D02*
X929800Y697200D01*
X926000Y873000D02*
X930600Y877600D01*
X944000D01*
D28*
X774250Y21750D02*
Y43000D01*
X781000Y15000D02*
X804000D01*
X715750Y43000D02*
X774250D01*
X697000Y23000D02*
Y73000D01*
X693000Y77000D02*
X697000Y73000D01*
X681000Y77000D02*
X693000D01*
X697000Y23000D02*
X700500Y19500D01*
X602000Y93000D02*
X665000D01*
X681000Y77000D01*
X700500Y19500D02*
X715750D01*
X826000Y22000D02*
Y48000D01*
X774250Y21750D02*
X781000Y15000D01*
X804000D02*
X809000Y20000D01*
Y37000D01*
X823000Y51000D01*
D29*
X209750Y42000D02*
X268250D01*
X141000Y30000D02*
X149000Y22000D01*
X125000Y30000D02*
X141000D01*
X174400Y22000D02*
X194400Y42000D01*
X209750D01*
X449200Y22000D02*
Y23200D01*
D30*
X887000Y45000D02*
Y64000D01*
X880000Y71000D02*
X887000Y64000D01*
X797000Y71000D02*
X880000D01*
X291000Y30000D02*
Y54000D01*
X285000Y14000D02*
X291000D01*
X280000Y19000D02*
X285000Y14000D01*
X268250Y19000D02*
X280000D01*
X797000Y31000D02*
Y55000D01*
X786000Y66000D02*
X797000Y55000D01*
X715750Y66000D02*
X786000D01*
X162000Y690500D02*
X168500Y684000D01*
X436000Y14000D02*
Y14000D01*
D31*
X469000Y43000D02*
X485000D01*
X449200Y23200D02*
X469000Y43000D01*
X550800Y22000D02*
Y40800D01*
D32*
X486000Y8000D02*
X500000Y22000D01*
X442000Y8000D02*
X486000D01*
X436000Y14000D02*
X442000Y8000D01*
X693000Y331000D02*
X714000Y310000D01*
X792000D01*
X803000Y299000D01*
Y267000D02*
Y299000D01*
X574000Y331000D02*
X693000D01*
X675000Y326000D02*
X686000Y315000D01*
X610000Y326000D02*
X675000D01*
X569600Y326600D02*
X574000Y331000D01*
X569600Y306000D02*
Y326600D01*
X607700Y323700D02*
X610000Y326000D01*
X607700Y306000D02*
Y323700D01*
X803000Y321000D02*
X831500D01*
X803000Y611000D02*
X831500D01*
X607700Y596000D02*
Y613700D01*
X610000Y616000D01*
X569600Y596000D02*
Y616600D01*
X574000Y621000D01*
X610000Y616000D02*
X675000D01*
X686000Y605000D01*
X574000Y621000D02*
X693000D01*
X803000Y557000D02*
Y589000D01*
X792000Y600000D02*
X803000Y589000D01*
X714000Y600000D02*
X792000D01*
X693000Y621000D02*
X714000Y600000D01*
X803000Y896000D02*
X831500D01*
X607700Y881000D02*
Y898700D01*
X610000Y901000D01*
X569600Y881000D02*
Y901600D01*
X574000Y906000D01*
X610000Y901000D02*
X675000D01*
X686000Y890000D01*
X574000Y906000D02*
X693000D01*
X803000Y842000D02*
Y874000D01*
X792000Y885000D02*
X803000Y874000D01*
X714000Y885000D02*
X792000D01*
X693000Y906000D02*
X714000Y885000D01*
X286000Y120000D02*
X307000Y99000D01*
X208000Y120000D02*
X286000D01*
X197000Y131000D02*
X208000Y120000D01*
X197000Y131000D02*
Y163000D01*
X307000Y99000D02*
X426000D01*
X314000Y115000D02*
X325000Y104000D01*
X390000D01*
X426000Y99000D02*
X430400Y103400D01*
Y124000D01*
X390000Y104000D02*
X392300Y106300D01*
Y124000D01*
X286000Y410000D02*
X307000Y389000D01*
X208000Y410000D02*
X286000D01*
X197000Y421000D02*
X208000Y410000D01*
X197000Y421000D02*
Y453000D01*
X307000Y389000D02*
X426000D01*
X314000Y405000D02*
X325000Y394000D01*
X390000D01*
X426000Y389000D02*
X430400Y393400D01*
Y414000D01*
X390000Y394000D02*
X392300Y396300D01*
Y414000D01*
X168500Y399000D02*
X197000D01*
X168500Y684000D02*
X197000D01*
X392300Y681300D02*
Y699000D01*
X390000Y679000D02*
X392300Y681300D01*
X430400Y678400D02*
Y699000D01*
X426000Y674000D02*
X430400Y678400D01*
X325000Y679000D02*
X390000D01*
X314000Y690000D02*
X325000Y679000D01*
X307000Y674000D02*
X426000D01*
X197000Y706000D02*
Y738000D01*
X436000Y29000D02*
X443100Y36100D01*
Y124000D01*
X426000Y14000D02*
X436000D01*
Y14000D02*
Y29000D01*
X286000Y695000D02*
X307000Y674000D01*
X197000Y706000D02*
X208000Y695000D01*
X286000D01*
X168500Y109000D02*
X197000D01*
D33*
X470000Y446000D02*
Y599000D01*
X379600Y718600D02*
X386000Y725000D01*
X379600Y699000D02*
Y718600D01*
X386000Y725000D02*
X464000D01*
X470000Y731000D01*
X464000Y440000D02*
X470000Y446000D01*
X386000Y440000D02*
X464000D01*
X379600Y414000D02*
Y433600D01*
X386000Y440000D01*
X470000Y156000D02*
Y309000D01*
X464000Y150000D02*
X470000Y156000D01*
X386000Y150000D02*
X464000D01*
X379600Y124000D02*
Y143600D01*
X386000Y150000D01*
X530000Y696000D02*
Y849000D01*
X536000Y855000D01*
X614000D01*
X620400Y861400D02*
Y881000D01*
X614000Y855000D02*
X620400Y861400D01*
X530000Y411000D02*
Y564000D01*
X536000Y570000D01*
X614000D01*
X620400Y576400D02*
Y596000D01*
X614000Y570000D02*
X620400Y576400D01*
X530000Y121000D02*
Y274000D01*
X536000Y280000D01*
X614000D01*
X620400Y286400D02*
Y306000D01*
X614000Y280000D02*
X620400Y286400D01*
X470000Y731000D02*
Y884000D01*
D34*
X386000Y977900D02*
D03*
X411400D02*
D03*
X436800D02*
D03*
X462200D02*
D03*
X487600D02*
D03*
X563800D02*
D03*
X538400D02*
D03*
X513000D02*
D03*
X614600D02*
D03*
X589200D02*
D03*
X411400Y952500D02*
D03*
X436800D02*
D03*
X462200D02*
D03*
X538400D02*
D03*
X513000D02*
D03*
X487600D02*
D03*
X589200D02*
D03*
X563800D02*
D03*
X614600D02*
D03*
X56000Y877600D02*
D03*
Y852200D02*
D03*
X944000Y877600D02*
D03*
Y903000D02*
D03*
X56000Y787600D02*
D03*
Y762200D02*
D03*
X944000Y787600D02*
D03*
Y813000D02*
D03*
X174400Y22000D02*
D03*
X56000Y697200D02*
D03*
Y671800D02*
D03*
X944000Y697600D02*
D03*
Y723000D02*
D03*
X449200Y22000D02*
D03*
X474600D02*
D03*
X500000D02*
D03*
X525400D02*
D03*
X56000Y592400D02*
D03*
Y567000D02*
D03*
X944000Y592400D02*
D03*
Y617800D02*
D03*
X56000Y502600D02*
D03*
Y477200D02*
D03*
X944000Y502400D02*
D03*
Y527800D02*
D03*
X56000Y412600D02*
D03*
Y387200D02*
D03*
X944000Y412600D02*
D03*
Y438000D02*
D03*
X851400Y22000D02*
D03*
X56000Y302200D02*
D03*
Y276800D02*
D03*
X944000Y302200D02*
D03*
Y327600D02*
D03*
X594600Y47400D02*
D03*
Y22000D02*
D03*
X620000D02*
D03*
X56000Y212400D02*
D03*
Y187000D02*
D03*
X944000Y212400D02*
D03*
Y237800D02*
D03*
X56000Y122400D02*
D03*
Y97000D02*
D03*
X944000Y122400D02*
D03*
Y147800D02*
D03*
D35*
X386000Y952500D02*
D03*
D36*
X56000Y903000D02*
D03*
X944000Y852200D02*
D03*
X56000Y813000D02*
D03*
X944000Y762200D02*
D03*
X56000Y722600D02*
D03*
X944000Y672200D02*
D03*
X56000Y617800D02*
D03*
X944000Y567000D02*
D03*
X56000Y528000D02*
D03*
X944000Y477000D02*
D03*
X56000Y438000D02*
D03*
X944000Y387200D02*
D03*
X56000Y327600D02*
D03*
X944000Y276800D02*
D03*
X56000Y237800D02*
D03*
X944000Y187000D02*
D03*
X56000Y147800D02*
D03*
X944000Y97000D02*
D03*
D37*
X149000Y22000D02*
D03*
X550800Y22000D02*
D03*
X826000D02*
D03*
D38*
X620000Y47400D02*
D03*
D39*
X56000Y36000D02*
D03*
X944000D02*
D03*
X56000Y964000D02*
D03*
X944000D02*
D03*
D40*
X895000Y85000D02*
D03*
X905000D02*
D03*
X915000D02*
D03*
X915000Y75000D02*
D03*
X905000D02*
D03*
X895000D02*
D03*
X877500Y15000D02*
D03*
X855000Y51000D02*
D03*
X649000Y77000D02*
D03*
X350000Y45000D02*
D03*
X340000D02*
D03*
X330000D02*
D03*
X320000D02*
D03*
X350000Y35000D02*
D03*
X340000D02*
D03*
X330000D02*
D03*
X320000D02*
D03*
Y25000D02*
D03*
X330000D02*
D03*
X340000D02*
D03*
X350000D02*
D03*
X291000Y30000D02*
D03*
X125000Y14000D02*
D03*
X291000Y70000D02*
D03*
X268250Y65000D02*
D03*
X770000Y895000D02*
D03*
X760000D02*
D03*
X750000D02*
D03*
X740000D02*
D03*
X730000D02*
D03*
X409500Y315000D02*
D03*
Y305000D02*
D03*
X419500D02*
D03*
Y315000D02*
D03*
X580499Y415000D02*
D03*
Y405000D02*
D03*
X590499D02*
D03*
Y415000D02*
D03*
X409500Y605000D02*
D03*
Y595000D02*
D03*
X419500D02*
D03*
Y605000D02*
D03*
X590499Y125000D02*
D03*
Y115000D02*
D03*
X580499D02*
D03*
Y125000D02*
D03*
X140000Y882000D02*
D03*
X231000Y765000D02*
D03*
X221000D02*
D03*
X157000Y685500D02*
D03*
X419500Y890000D02*
D03*
Y880000D02*
D03*
X420000Y845000D02*
D03*
Y835000D02*
D03*
Y825000D02*
D03*
X380000Y845000D02*
D03*
Y835000D02*
D03*
Y825000D02*
D03*
Y815000D02*
D03*
Y805000D02*
D03*
Y795000D02*
D03*
Y785000D02*
D03*
Y775000D02*
D03*
Y765000D02*
D03*
Y755000D02*
D03*
X140000Y892000D02*
D03*
X860000Y698000D02*
D03*
Y708000D02*
D03*
Y688000D02*
D03*
X114000Y120500D02*
D03*
Y110500D02*
D03*
X157000Y120500D02*
D03*
Y110500D02*
D03*
X114000Y410500D02*
D03*
Y400500D02*
D03*
X157000Y410500D02*
D03*
Y400500D02*
D03*
X409500Y890000D02*
D03*
X157000Y695500D02*
D03*
X114000Y685500D02*
D03*
Y695500D02*
D03*
X360000Y755000D02*
D03*
X370000D02*
D03*
X410000D02*
D03*
X420000D02*
D03*
X430000D02*
D03*
X440000D02*
D03*
X450000D02*
D03*
X360000Y765000D02*
D03*
X370000D02*
D03*
X390000D02*
D03*
X420000D02*
D03*
X430000D02*
D03*
X440000D02*
D03*
X450000D02*
D03*
X360000Y775000D02*
D03*
X370000D02*
D03*
X390000D02*
D03*
X400000D02*
D03*
X430000D02*
D03*
X440000D02*
D03*
X450000D02*
D03*
X370000Y785000D02*
D03*
X390000D02*
D03*
X400000D02*
D03*
X410000D02*
D03*
X440000D02*
D03*
X450000D02*
D03*
X390000Y795000D02*
D03*
X400000D02*
D03*
X410000D02*
D03*
X420000D02*
D03*
X450000D02*
D03*
X360000Y805000D02*
D03*
X390000D02*
D03*
X400000D02*
D03*
X410000D02*
D03*
X420000D02*
D03*
X430000D02*
D03*
X360000Y815000D02*
D03*
X370000D02*
D03*
X400000D02*
D03*
X410000D02*
D03*
X420000D02*
D03*
X430000D02*
D03*
X440000D02*
D03*
X450000D02*
D03*
X370000Y825000D02*
D03*
X410000D02*
D03*
X430000D02*
D03*
X440000D02*
D03*
X450000D02*
D03*
Y835000D02*
D03*
Y845000D02*
D03*
X440000D02*
D03*
Y835000D02*
D03*
X430000D02*
D03*
Y845000D02*
D03*
X400000D02*
D03*
X390000Y835000D02*
D03*
Y845000D02*
D03*
X360000D02*
D03*
X370000D02*
D03*
Y835000D02*
D03*
X360000D02*
D03*
X221000Y709000D02*
D03*
X409500Y880000D02*
D03*
X405000Y414000D02*
D03*
Y404000D02*
D03*
Y424000D02*
D03*
X380000Y560000D02*
D03*
Y550000D02*
D03*
X360000D02*
D03*
X370000D02*
D03*
Y560000D02*
D03*
X360000D02*
D03*
X390000D02*
D03*
Y550000D02*
D03*
X400000D02*
D03*
Y560000D02*
D03*
X410000D02*
D03*
Y550000D02*
D03*
X420000D02*
D03*
Y560000D02*
D03*
X430000D02*
D03*
Y550000D02*
D03*
X440000D02*
D03*
Y560000D02*
D03*
X450000D02*
D03*
Y550000D02*
D03*
Y540000D02*
D03*
X440000D02*
D03*
X430000D02*
D03*
X420000D02*
D03*
X410000D02*
D03*
X400000D02*
D03*
X390000D02*
D03*
X370000D02*
D03*
X360000D02*
D03*
X380000D02*
D03*
X450000Y530000D02*
D03*
X440000D02*
D03*
X430000D02*
D03*
X420000D02*
D03*
X410000D02*
D03*
X400000D02*
D03*
X390000D02*
D03*
X370000D02*
D03*
X360000D02*
D03*
X380000D02*
D03*
X450000Y520000D02*
D03*
X440000D02*
D03*
X430000D02*
D03*
X420000D02*
D03*
X410000D02*
D03*
X400000D02*
D03*
X390000D02*
D03*
X370000D02*
D03*
X360000D02*
D03*
X380000D02*
D03*
X450000Y510000D02*
D03*
X440000D02*
D03*
X430000D02*
D03*
X420000D02*
D03*
X410000D02*
D03*
X400000D02*
D03*
X390000D02*
D03*
X370000D02*
D03*
X360000D02*
D03*
X380000D02*
D03*
X450000Y500000D02*
D03*
X440000D02*
D03*
X430000D02*
D03*
X420000D02*
D03*
X410000D02*
D03*
X400000D02*
D03*
X390000D02*
D03*
X370000D02*
D03*
X360000D02*
D03*
X380000D02*
D03*
X450000Y490000D02*
D03*
X440000D02*
D03*
X430000D02*
D03*
X420000D02*
D03*
X410000D02*
D03*
X400000D02*
D03*
X390000D02*
D03*
X370000D02*
D03*
X360000D02*
D03*
X380000D02*
D03*
X450000Y480000D02*
D03*
X440000D02*
D03*
X430000D02*
D03*
X420000D02*
D03*
X410000D02*
D03*
X400000D02*
D03*
X390000D02*
D03*
X370000D02*
D03*
X360000D02*
D03*
X380000D02*
D03*
X450000Y470000D02*
D03*
X440000D02*
D03*
X430000D02*
D03*
X420000D02*
D03*
X410000D02*
D03*
X400000D02*
D03*
X390000D02*
D03*
X370000D02*
D03*
X360000D02*
D03*
X380000D02*
D03*
X405000Y124000D02*
D03*
Y114000D02*
D03*
Y134000D02*
D03*
X380000Y270000D02*
D03*
Y260000D02*
D03*
X360000D02*
D03*
X370000D02*
D03*
Y270000D02*
D03*
X360000D02*
D03*
X390000D02*
D03*
Y260000D02*
D03*
X400000D02*
D03*
Y270000D02*
D03*
X410000D02*
D03*
Y260000D02*
D03*
X420000D02*
D03*
Y270000D02*
D03*
X430000D02*
D03*
Y260000D02*
D03*
X440000D02*
D03*
Y270000D02*
D03*
X450000D02*
D03*
Y260000D02*
D03*
Y250000D02*
D03*
X440000D02*
D03*
X430000D02*
D03*
X420000D02*
D03*
X410000D02*
D03*
X400000D02*
D03*
X390000D02*
D03*
X370000D02*
D03*
X360000D02*
D03*
X380000D02*
D03*
X450000Y240000D02*
D03*
X440000D02*
D03*
X430000D02*
D03*
X420000D02*
D03*
X410000D02*
D03*
X400000D02*
D03*
X390000D02*
D03*
X370000D02*
D03*
X360000D02*
D03*
X380000D02*
D03*
X450000Y230000D02*
D03*
X440000D02*
D03*
X430000D02*
D03*
X420000D02*
D03*
X410000D02*
D03*
X400000D02*
D03*
X390000D02*
D03*
X370000D02*
D03*
X360000D02*
D03*
X380000D02*
D03*
X450000Y220000D02*
D03*
X440000D02*
D03*
X430000D02*
D03*
X420000D02*
D03*
X410000D02*
D03*
X400000D02*
D03*
X390000D02*
D03*
X370000D02*
D03*
X360000D02*
D03*
X380000D02*
D03*
X450000Y210000D02*
D03*
X440000D02*
D03*
X430000D02*
D03*
X420000D02*
D03*
X410000D02*
D03*
X400000D02*
D03*
X390000D02*
D03*
X370000D02*
D03*
X360000D02*
D03*
X380000D02*
D03*
X450000Y200000D02*
D03*
X440000D02*
D03*
X430000D02*
D03*
X420000D02*
D03*
X410000D02*
D03*
X400000D02*
D03*
X390000D02*
D03*
X370000D02*
D03*
X360000D02*
D03*
X380000D02*
D03*
X450000Y190000D02*
D03*
X440000D02*
D03*
X430000D02*
D03*
X420000D02*
D03*
X410000D02*
D03*
X400000D02*
D03*
X390000D02*
D03*
X370000D02*
D03*
X360000D02*
D03*
X380000D02*
D03*
X450000Y180000D02*
D03*
X440000D02*
D03*
X430000D02*
D03*
X420000D02*
D03*
X410000D02*
D03*
X400000D02*
D03*
X390000D02*
D03*
X370000D02*
D03*
X360000D02*
D03*
X380000D02*
D03*
X595000Y881000D02*
D03*
Y891000D02*
D03*
Y871000D02*
D03*
X620000Y745000D02*
D03*
X640000D02*
D03*
X630000D02*
D03*
Y735000D02*
D03*
X640000D02*
D03*
X610000D02*
D03*
Y745000D02*
D03*
X600000D02*
D03*
Y735000D02*
D03*
X590000D02*
D03*
Y745000D02*
D03*
X580000D02*
D03*
Y735000D02*
D03*
X570000D02*
D03*
Y745000D02*
D03*
X560000D02*
D03*
Y735000D02*
D03*
X550000D02*
D03*
Y745000D02*
D03*
Y755000D02*
D03*
X560000D02*
D03*
X570000D02*
D03*
X580000D02*
D03*
X590000D02*
D03*
X600000D02*
D03*
X610000D02*
D03*
X630000D02*
D03*
X640000D02*
D03*
X620000D02*
D03*
X550000Y765000D02*
D03*
X560000D02*
D03*
X570000D02*
D03*
X580000D02*
D03*
X590000D02*
D03*
X600000D02*
D03*
X610000D02*
D03*
X630000D02*
D03*
X640000D02*
D03*
X620000D02*
D03*
X550000Y775000D02*
D03*
X560000D02*
D03*
X570000D02*
D03*
X580000D02*
D03*
X590000D02*
D03*
X600000D02*
D03*
X610000D02*
D03*
X630000D02*
D03*
X640000D02*
D03*
X620000D02*
D03*
X550000Y785000D02*
D03*
X560000D02*
D03*
X570000D02*
D03*
X580000D02*
D03*
X590000D02*
D03*
X600000D02*
D03*
X610000D02*
D03*
X630000D02*
D03*
X640000D02*
D03*
X620000D02*
D03*
X550000Y795000D02*
D03*
X560000D02*
D03*
X570000D02*
D03*
X580000D02*
D03*
X590000D02*
D03*
X600000D02*
D03*
X610000D02*
D03*
X630000D02*
D03*
X640000D02*
D03*
X620000D02*
D03*
X550000Y805000D02*
D03*
X560000D02*
D03*
X570000D02*
D03*
X580000D02*
D03*
X590000D02*
D03*
X600000D02*
D03*
X610000D02*
D03*
X630000D02*
D03*
X640000D02*
D03*
X620000D02*
D03*
X550000Y815000D02*
D03*
X560000D02*
D03*
X570000D02*
D03*
X580000D02*
D03*
X590000D02*
D03*
X600000D02*
D03*
X610000D02*
D03*
X630000D02*
D03*
X640000D02*
D03*
X620000D02*
D03*
X550000Y825000D02*
D03*
X560000D02*
D03*
X570000D02*
D03*
X580000D02*
D03*
X590000D02*
D03*
X600000D02*
D03*
X610000D02*
D03*
X630000D02*
D03*
X640000D02*
D03*
X620000D02*
D03*
X595000Y596000D02*
D03*
Y606000D02*
D03*
Y586000D02*
D03*
X620000Y450000D02*
D03*
Y460000D02*
D03*
X640000D02*
D03*
X630000D02*
D03*
Y450000D02*
D03*
X640000D02*
D03*
X610000D02*
D03*
Y460000D02*
D03*
X600000D02*
D03*
Y450000D02*
D03*
X590000D02*
D03*
Y460000D02*
D03*
X580000D02*
D03*
Y450000D02*
D03*
X570000D02*
D03*
Y460000D02*
D03*
X560000D02*
D03*
Y450000D02*
D03*
X550000D02*
D03*
Y460000D02*
D03*
Y470000D02*
D03*
X560000D02*
D03*
X570000D02*
D03*
X580000D02*
D03*
X590000D02*
D03*
X600000D02*
D03*
X610000D02*
D03*
X630000D02*
D03*
X640000D02*
D03*
X620000D02*
D03*
X550000Y480000D02*
D03*
X560000D02*
D03*
X570000D02*
D03*
X580000D02*
D03*
X590000D02*
D03*
X600000D02*
D03*
X610000D02*
D03*
X630000D02*
D03*
X640000D02*
D03*
X620000D02*
D03*
X550000Y490000D02*
D03*
X560000D02*
D03*
X570000D02*
D03*
X580000D02*
D03*
X590000D02*
D03*
X600000D02*
D03*
X610000D02*
D03*
X630000D02*
D03*
X640000D02*
D03*
X620000D02*
D03*
X550000Y500000D02*
D03*
X560000D02*
D03*
X570000D02*
D03*
X580000D02*
D03*
X590000D02*
D03*
X600000D02*
D03*
X610000D02*
D03*
X630000D02*
D03*
X640000D02*
D03*
X620000D02*
D03*
X550000Y510000D02*
D03*
X560000D02*
D03*
X570000D02*
D03*
X580000D02*
D03*
X590000D02*
D03*
X600000D02*
D03*
X610000D02*
D03*
X630000D02*
D03*
X640000D02*
D03*
X620000D02*
D03*
X550000Y520000D02*
D03*
X560000D02*
D03*
X570000D02*
D03*
X580000D02*
D03*
X590000D02*
D03*
X600000D02*
D03*
X610000D02*
D03*
X630000D02*
D03*
X640000D02*
D03*
X620000D02*
D03*
X550000Y530000D02*
D03*
X560000D02*
D03*
X570000D02*
D03*
X580000D02*
D03*
X590000D02*
D03*
X600000D02*
D03*
X610000D02*
D03*
X630000D02*
D03*
X640000D02*
D03*
X620000D02*
D03*
X550000Y540000D02*
D03*
X560000D02*
D03*
X570000D02*
D03*
X580000D02*
D03*
X590000D02*
D03*
X600000D02*
D03*
X610000D02*
D03*
X630000D02*
D03*
X640000D02*
D03*
X620000D02*
D03*
X595000Y306000D02*
D03*
Y316000D02*
D03*
Y296000D02*
D03*
X620000Y160000D02*
D03*
Y170000D02*
D03*
X640000D02*
D03*
X630000D02*
D03*
Y160000D02*
D03*
X640000D02*
D03*
X610000D02*
D03*
Y170000D02*
D03*
X600000D02*
D03*
Y160000D02*
D03*
X590000D02*
D03*
Y170000D02*
D03*
X580000D02*
D03*
Y160000D02*
D03*
X570000D02*
D03*
Y170000D02*
D03*
X560000D02*
D03*
Y160000D02*
D03*
X550000D02*
D03*
Y170000D02*
D03*
Y180000D02*
D03*
X560000D02*
D03*
X570000D02*
D03*
X580000D02*
D03*
X590000D02*
D03*
X600000D02*
D03*
X610000D02*
D03*
X630000D02*
D03*
X640000D02*
D03*
X620000D02*
D03*
X550000Y190000D02*
D03*
X560000D02*
D03*
X570000D02*
D03*
X580000D02*
D03*
X590000D02*
D03*
X600000D02*
D03*
X610000D02*
D03*
X630000D02*
D03*
X640000D02*
D03*
X620000D02*
D03*
X550000Y200000D02*
D03*
X560000D02*
D03*
X570000D02*
D03*
X580000D02*
D03*
X590000D02*
D03*
X600000D02*
D03*
X610000D02*
D03*
X630000D02*
D03*
X640000D02*
D03*
X620000D02*
D03*
X550000Y210000D02*
D03*
X560000D02*
D03*
X570000D02*
D03*
X580000D02*
D03*
X590000D02*
D03*
X600000D02*
D03*
X610000D02*
D03*
X630000D02*
D03*
X640000D02*
D03*
X620000D02*
D03*
X550000Y220000D02*
D03*
X560000D02*
D03*
X570000D02*
D03*
X580000D02*
D03*
X590000D02*
D03*
X600000D02*
D03*
X610000D02*
D03*
X630000D02*
D03*
X640000D02*
D03*
X620000D02*
D03*
X550000Y230000D02*
D03*
X560000D02*
D03*
X570000D02*
D03*
X580000D02*
D03*
X590000D02*
D03*
X600000D02*
D03*
X610000D02*
D03*
X630000D02*
D03*
X640000D02*
D03*
X620000D02*
D03*
X550000Y240000D02*
D03*
X560000D02*
D03*
X570000D02*
D03*
X580000D02*
D03*
X590000D02*
D03*
X600000D02*
D03*
X610000D02*
D03*
X630000D02*
D03*
X640000D02*
D03*
X620000D02*
D03*
X550000Y250000D02*
D03*
X560000D02*
D03*
X570000D02*
D03*
X580000D02*
D03*
X590000D02*
D03*
X600000D02*
D03*
X610000D02*
D03*
X630000D02*
D03*
X640000D02*
D03*
X620000D02*
D03*
X221000Y434000D02*
D03*
X231000D02*
D03*
Y424000D02*
D03*
X221000D02*
D03*
Y480000D02*
D03*
X231000D02*
D03*
Y470000D02*
D03*
X221000D02*
D03*
X140000Y607000D02*
D03*
Y587000D02*
D03*
Y597000D02*
D03*
X221000Y144000D02*
D03*
X231000D02*
D03*
Y134000D02*
D03*
X221000D02*
D03*
Y190000D02*
D03*
X231000D02*
D03*
Y180000D02*
D03*
X221000D02*
D03*
X140000Y317000D02*
D03*
Y297000D02*
D03*
Y307000D02*
D03*
X779000Y861000D02*
D03*
X769000D02*
D03*
Y871000D02*
D03*
X779000D02*
D03*
Y815000D02*
D03*
X769000D02*
D03*
Y825000D02*
D03*
X779000D02*
D03*
X779000Y576000D02*
D03*
X769000D02*
D03*
Y586000D02*
D03*
X779000D02*
D03*
Y530000D02*
D03*
X769000D02*
D03*
Y540000D02*
D03*
X779000D02*
D03*
X779000Y286000D02*
D03*
X769000D02*
D03*
Y296000D02*
D03*
X779000D02*
D03*
Y240000D02*
D03*
X769000D02*
D03*
Y250000D02*
D03*
X779000D02*
D03*
X860000Y113000D02*
D03*
Y133000D02*
D03*
Y123000D02*
D03*
X843000Y894500D02*
D03*
Y884500D02*
D03*
X887000Y894500D02*
D03*
Y884500D02*
D03*
X843000Y609500D02*
D03*
Y599500D02*
D03*
X886000Y609500D02*
D03*
Y599500D02*
D03*
X843000Y319500D02*
D03*
Y309500D02*
D03*
X886000Y319500D02*
D03*
Y309500D02*
D03*
X231000Y709000D02*
D03*
X360000Y825000D02*
D03*
X410000Y845000D02*
D03*
Y835000D02*
D03*
X400000D02*
D03*
Y825000D02*
D03*
X390000D02*
D03*
Y815000D02*
D03*
X370000Y805000D02*
D03*
Y795000D02*
D03*
X360000D02*
D03*
Y785000D02*
D03*
X450000Y805000D02*
D03*
X440000D02*
D03*
Y795000D02*
D03*
X430000D02*
D03*
Y785000D02*
D03*
X420000D02*
D03*
Y775000D02*
D03*
X410000D02*
D03*
Y765000D02*
D03*
X400000D02*
D03*
Y755000D02*
D03*
X390000D02*
D03*
X231000Y719000D02*
D03*
X221000D02*
D03*
X231000Y755000D02*
D03*
X221000D02*
D03*
X140000Y872000D02*
D03*
X465000Y650000D02*
D03*
Y640000D02*
D03*
X535000Y650000D02*
D03*
Y640000D02*
D03*
Y660000D02*
D03*
Y375000D02*
D03*
Y355000D02*
D03*
Y365000D02*
D03*
X465000Y375000D02*
D03*
Y355000D02*
D03*
Y365000D02*
D03*
X970000Y885000D02*
D03*
Y875000D02*
D03*
Y865000D02*
D03*
Y795000D02*
D03*
Y785000D02*
D03*
Y775000D02*
D03*
Y705000D02*
D03*
Y695000D02*
D03*
Y685000D02*
D03*
Y400000D02*
D03*
Y410000D02*
D03*
Y420000D02*
D03*
Y490000D02*
D03*
Y500000D02*
D03*
Y510000D02*
D03*
Y580000D02*
D03*
Y590000D02*
D03*
Y600000D02*
D03*
Y110000D02*
D03*
Y120000D02*
D03*
Y130000D02*
D03*
Y200000D02*
D03*
Y210000D02*
D03*
Y220000D02*
D03*
Y290000D02*
D03*
Y300000D02*
D03*
Y310000D02*
D03*
X30000Y310000D02*
D03*
Y300000D02*
D03*
Y290000D02*
D03*
Y220000D02*
D03*
Y210000D02*
D03*
Y200000D02*
D03*
Y130000D02*
D03*
Y120000D02*
D03*
Y110000D02*
D03*
Y600000D02*
D03*
Y590000D02*
D03*
Y580000D02*
D03*
Y510000D02*
D03*
Y500000D02*
D03*
Y490000D02*
D03*
Y420000D02*
D03*
Y410000D02*
D03*
Y400000D02*
D03*
Y685000D02*
D03*
Y695000D02*
D03*
Y705000D02*
D03*
Y775000D02*
D03*
Y785000D02*
D03*
Y795000D02*
D03*
Y865000D02*
D03*
Y875000D02*
D03*
Y885000D02*
D03*
X465000Y660000D02*
D03*
X620000Y735000D02*
D03*
X405000Y709000D02*
D03*
Y689000D02*
D03*
Y699000D02*
D03*
X556900Y881000D02*
D03*
X443100Y699000D02*
D03*
X556900Y596000D02*
D03*
X443000Y415000D02*
D03*
X556900Y306000D02*
D03*
X443000Y125000D02*
D03*
X197000Y399000D02*
D03*
Y684000D02*
D03*
Y109000D02*
D03*
X803000Y896000D02*
D03*
Y611000D02*
D03*
Y321000D02*
D03*
X590500Y700000D02*
D03*
Y690000D02*
D03*
X580500D02*
D03*
Y700000D02*
D03*
X860000Y403000D02*
D03*
Y423000D02*
D03*
Y413000D02*
D03*
M02*
