G04 Layer_Color=8388736*
%FSLAX44Y44*%
%MOMM*%
G71*
G01*
G75*
%ADD10R,1.4000X1.4000*%
%ADD41R,1.6000X1.6000*%
%ADD42R,2.6000X4.1000*%
%ADD43R,1.6000X4.8000*%
%ADD44R,4.1000X2.6000*%
%ADD45R,2.2000X2.2000*%
%ADD46R,4.6000X10.2000*%
%ADD47R,5.4000X5.4000*%
%ADD48R,5.4000X5.4000*%
%ADD49R,1.2000X1.2000*%
%ADD50R,1.6000X1.6000*%
%ADD51R,11.2000X11.2000*%
%ADD52R,1.1000X3.2000*%
%ADD53R,2.3500X3.4500*%
%ADD54R,2.3500X1.2000*%
%ADD55R,8.2000X6.2000*%
%ADD56R,3.2000X2.2000*%
%ADD57C,1.9000*%
%ADD58R,1.9000X1.9000*%
G04:AMPARAMS|DCode=59|XSize=1.9mm|YSize=1.9mm|CornerRadius=0.525mm|HoleSize=0mm|Usage=FLASHONLY|Rotation=270.000|XOffset=0mm|YOffset=0mm|HoleType=Round|Shape=RoundedRectangle|*
%AMROUNDEDRECTD59*
21,1,1.9000,0.8500,0,0,270.0*
21,1,0.8500,1.9000,0,0,270.0*
1,1,1.0500,-0.4250,-0.4250*
1,1,1.0500,-0.4250,0.4250*
1,1,1.0500,0.4250,0.4250*
1,1,1.0500,0.4250,-0.4250*
%
%ADD59ROUNDEDRECTD59*%
G04:AMPARAMS|DCode=60|XSize=1.9mm|YSize=1.9mm|CornerRadius=0.525mm|HoleSize=0mm|Usage=FLASHONLY|Rotation=0.000|XOffset=0mm|YOffset=0mm|HoleType=Round|Shape=RoundedRectangle|*
%AMROUNDEDRECTD60*
21,1,1.9000,0.8500,0,0,0.0*
21,1,0.8500,1.9000,0,0,0.0*
1,1,1.0500,0.4250,-0.4250*
1,1,1.0500,-0.4250,-0.4250*
1,1,1.0500,-0.4250,0.4250*
1,1,1.0500,0.4250,0.4250*
%
%ADD60ROUNDEDRECTD60*%
%ADD61R,1.9000X1.9000*%
%ADD62C,6.2000*%
G36*
X859478Y954559D02*
X859770Y954527D01*
X860158Y954462D01*
X860612Y954300D01*
X861097Y954106D01*
X861616Y953847D01*
X862166Y953458D01*
X862198Y953426D01*
X862328Y953329D01*
X862490Y953167D01*
X862652Y952972D01*
X862846Y952746D01*
X862976Y952487D01*
X863105Y952195D01*
X863138Y951904D01*
Y951871D01*
Y951807D01*
X863105Y951677D01*
X863073Y951515D01*
X863008Y951353D01*
X862943Y951159D01*
X862814Y950997D01*
X862652Y950803D01*
X862619Y950770D01*
X862587Y950738D01*
X862490Y950673D01*
X862360Y950576D01*
X862004Y950414D01*
X861777Y950382D01*
X861551Y950349D01*
X861454D01*
X861324Y950382D01*
X861195Y950414D01*
X861000Y950479D01*
X860773Y950608D01*
X860547Y950738D01*
X860320Y950932D01*
X860288Y950965D01*
X860223Y951029D01*
X860093Y951126D01*
X859964Y951224D01*
X859608Y951418D01*
X859413Y951483D01*
X859219Y951515D01*
X859090D01*
X858960Y951483D01*
X858733Y951418D01*
X858474Y951321D01*
X858118Y951159D01*
X857729Y950965D01*
X857276Y950673D01*
X857211Y950641D01*
X857049Y950511D01*
X856758Y950317D01*
X856402Y950058D01*
X855916Y949734D01*
X855365Y949313D01*
X854750Y948827D01*
X854070Y948244D01*
Y943581D01*
X858669D01*
X858863Y943548D01*
X859090Y943516D01*
X859640Y943387D01*
X859899Y943289D01*
X860093Y943127D01*
X860126Y943095D01*
X860158Y943063D01*
X860255Y942965D01*
X860352Y942836D01*
X860514Y942480D01*
X860547Y942285D01*
X860579Y942026D01*
Y941994D01*
Y941929D01*
X860547Y941800D01*
X860514Y941638D01*
X860450Y941476D01*
X860385Y941281D01*
X860255Y941087D01*
X860093Y940925D01*
X860061Y940893D01*
X859996Y940860D01*
X859867Y940796D01*
X859705Y940731D01*
X859478Y940634D01*
X859219Y940569D01*
X858863Y940537D01*
X858474Y940504D01*
X848953D01*
X848759Y940537D01*
X848500Y940569D01*
X847949Y940698D01*
X847722Y940796D01*
X847496Y940925D01*
X847463Y940958D01*
X847431Y940990D01*
X847366Y941087D01*
X847269Y941217D01*
X847107Y941573D01*
X847075Y941800D01*
X847042Y942026D01*
Y942059D01*
Y942156D01*
X847075Y942253D01*
X847107Y942415D01*
X847237Y942771D01*
X847334Y942965D01*
X847496Y943127D01*
X847528Y943160D01*
X847593Y943192D01*
X847722Y943257D01*
X847884Y943354D01*
X848111Y943451D01*
X848402Y943516D01*
X848759Y943548D01*
X849147Y943581D01*
X850993D01*
Y951126D01*
X849698D01*
X849503Y951159D01*
X849244Y951191D01*
X848694Y951321D01*
X848467Y951418D01*
X848241Y951547D01*
X848208Y951580D01*
X848176Y951612D01*
X848111Y951709D01*
X848014Y951839D01*
X847852Y952195D01*
X847820Y952422D01*
X847787Y952649D01*
Y952681D01*
Y952778D01*
X847820Y952875D01*
X847852Y953037D01*
X847981Y953393D01*
X848079Y953588D01*
X848241Y953750D01*
X848273Y953782D01*
X848338Y953814D01*
X848467Y953879D01*
X848629Y953976D01*
X848856Y954073D01*
X849147Y954138D01*
X849503Y954171D01*
X849892Y954203D01*
X854070D01*
Y952260D01*
X854102Y952292D01*
X854167Y952325D01*
X854264Y952390D01*
X854394Y952487D01*
X854750Y952713D01*
X855171Y953005D01*
X855657Y953329D01*
X856175Y953620D01*
X856661Y953912D01*
X857114Y954106D01*
X857179Y954138D01*
X857308Y954171D01*
X857535Y954268D01*
X857794Y954365D01*
X858118Y954430D01*
X858474Y954527D01*
X858863Y954559D01*
X859219Y954592D01*
X859284D01*
X859478Y954559D01*
D02*
G37*
G36*
X785381D02*
X785673Y954527D01*
X786061Y954462D01*
X786515Y954300D01*
X787001Y954106D01*
X787519Y953847D01*
X788069Y953458D01*
X788102Y953426D01*
X788231Y953329D01*
X788393Y953167D01*
X788555Y952972D01*
X788749Y952746D01*
X788879Y952487D01*
X789008Y952195D01*
X789041Y951904D01*
Y951871D01*
Y951807D01*
X789008Y951677D01*
X788976Y951515D01*
X788911Y951353D01*
X788846Y951159D01*
X788717Y950997D01*
X788555Y950803D01*
X788523Y950770D01*
X788490Y950738D01*
X788393Y950673D01*
X788263Y950576D01*
X787907Y950414D01*
X787681Y950382D01*
X787454Y950349D01*
X787357D01*
X787227Y950382D01*
X787098Y950414D01*
X786903Y950479D01*
X786677Y950608D01*
X786450Y950738D01*
X786223Y950932D01*
X786191Y950965D01*
X786126Y951029D01*
X785996Y951126D01*
X785867Y951224D01*
X785511Y951418D01*
X785316Y951483D01*
X785122Y951515D01*
X784993D01*
X784863Y951483D01*
X784636Y951418D01*
X784377Y951321D01*
X784021Y951159D01*
X783632Y950965D01*
X783179Y950673D01*
X783114Y950641D01*
X782952Y950511D01*
X782661Y950317D01*
X782305Y950058D01*
X781819Y949734D01*
X781268Y949313D01*
X780653Y948827D01*
X779973Y948244D01*
Y943581D01*
X784572D01*
X784766Y943548D01*
X784993Y943516D01*
X785543Y943387D01*
X785802Y943289D01*
X785996Y943127D01*
X786029Y943095D01*
X786061Y943063D01*
X786158Y942965D01*
X786256Y942836D01*
X786417Y942480D01*
X786450Y942285D01*
X786482Y942026D01*
Y941994D01*
Y941929D01*
X786450Y941800D01*
X786417Y941638D01*
X786353Y941476D01*
X786288Y941281D01*
X786158Y941087D01*
X785996Y940925D01*
X785964Y940893D01*
X785899Y940860D01*
X785770Y940796D01*
X785608Y940731D01*
X785381Y940634D01*
X785122Y940569D01*
X784766Y940537D01*
X784377Y940504D01*
X774856D01*
X774662Y940537D01*
X774403Y940569D01*
X773852Y940698D01*
X773625Y940796D01*
X773399Y940925D01*
X773366Y940958D01*
X773334Y940990D01*
X773269Y941087D01*
X773172Y941217D01*
X773010Y941573D01*
X772978Y941800D01*
X772945Y942026D01*
Y942059D01*
Y942156D01*
X772978Y942253D01*
X773010Y942415D01*
X773140Y942771D01*
X773237Y942965D01*
X773399Y943127D01*
X773431Y943160D01*
X773496Y943192D01*
X773625Y943257D01*
X773787Y943354D01*
X774014Y943451D01*
X774305Y943516D01*
X774662Y943548D01*
X775050Y943581D01*
X776896D01*
Y951126D01*
X775601D01*
X775407Y951159D01*
X775147Y951191D01*
X774597Y951321D01*
X774370Y951418D01*
X774144Y951547D01*
X774111Y951580D01*
X774079Y951612D01*
X774014Y951709D01*
X773917Y951839D01*
X773755Y952195D01*
X773723Y952422D01*
X773690Y952649D01*
Y952681D01*
Y952778D01*
X773723Y952875D01*
X773755Y953037D01*
X773885Y953393D01*
X773982Y953588D01*
X774144Y953750D01*
X774176Y953782D01*
X774241Y953814D01*
X774370Y953879D01*
X774532Y953976D01*
X774759Y954073D01*
X775050Y954138D01*
X775407Y954171D01*
X775795Y954203D01*
X779973D01*
Y952260D01*
X780005Y952292D01*
X780070Y952325D01*
X780167Y952390D01*
X780297Y952487D01*
X780653Y952713D01*
X781074Y953005D01*
X781560Y953329D01*
X782078Y953620D01*
X782564Y953912D01*
X783017Y954106D01*
X783082Y954138D01*
X783211Y954171D01*
X783438Y954268D01*
X783697Y954365D01*
X784021Y954430D01*
X784377Y954527D01*
X784766Y954559D01*
X785122Y954592D01*
X785187D01*
X785381Y954559D01*
D02*
G37*
G36*
X174389Y970530D02*
X174759Y970483D01*
X175546Y970298D01*
X175916Y970159D01*
X176194Y969928D01*
X176240Y969882D01*
X176286Y969836D01*
X176425Y969697D01*
X176564Y969511D01*
X176795Y969003D01*
X176842Y968725D01*
X176888Y968355D01*
Y968308D01*
Y968216D01*
X176842Y968031D01*
X176795Y967799D01*
X176703Y967568D01*
X176610Y967290D01*
X176425Y967012D01*
X176194Y966781D01*
X176147Y966735D01*
X176055Y966689D01*
X175870Y966596D01*
X175639Y966503D01*
X175315Y966365D01*
X174898Y966272D01*
X174435Y966226D01*
X173834Y966179D01*
X173093D01*
X165688Y951000D01*
X161061D01*
X153656Y966179D01*
X152731D01*
X152453Y966226D01*
X152083Y966272D01*
X151296Y966457D01*
X150972Y966596D01*
X150648Y966781D01*
X150602Y966827D01*
X150555Y966874D01*
X150463Y967012D01*
X150324Y967198D01*
X150093Y967707D01*
X150046Y968031D01*
X150000Y968355D01*
Y968401D01*
Y968540D01*
X150046Y968679D01*
X150093Y968910D01*
X150278Y969419D01*
X150416Y969697D01*
X150648Y969928D01*
X150694Y969974D01*
X150787Y970021D01*
X150972Y970113D01*
X151203Y970252D01*
X151527Y970391D01*
X151944Y970483D01*
X152453Y970530D01*
X153008Y970576D01*
X158839D01*
X159117Y970530D01*
X159441Y970483D01*
X160228Y970298D01*
X160598Y970159D01*
X160875Y969928D01*
X160922Y969882D01*
X160968Y969836D01*
X161107Y969697D01*
X161246Y969511D01*
X161477Y969003D01*
X161523Y968725D01*
X161570Y968355D01*
Y968308D01*
Y968169D01*
X161523Y967984D01*
X161477Y967753D01*
X161338Y967475D01*
X161199Y967198D01*
X160968Y966874D01*
X160644Y966550D01*
X160552Y966503D01*
X160413Y966457D01*
X160228Y966365D01*
X159950Y966318D01*
X159580Y966226D01*
X159117Y966179D01*
X158562D01*
X163375Y956276D01*
X168188Y966179D01*
X167632D01*
X167308Y966226D01*
X166984Y966272D01*
X166660Y966318D01*
X166383Y966411D01*
X166151Y966550D01*
X166105Y966596D01*
X166012Y966689D01*
X165874Y966874D01*
X165688Y967105D01*
X165365Y967660D01*
X165272Y967984D01*
X165226Y968355D01*
Y968401D01*
Y968540D01*
X165272Y968679D01*
X165318Y968910D01*
X165503Y969419D01*
X165642Y969697D01*
X165874Y969928D01*
X165920Y969974D01*
X166012Y970021D01*
X166198Y970113D01*
X166429Y970252D01*
X166753Y970391D01*
X167123Y970483D01*
X167632Y970530D01*
X168188Y970576D01*
X174111D01*
X174389Y970530D01*
D02*
G37*
G36*
X880334Y943581D02*
X881047D01*
X881241Y943548D01*
X881468Y943516D01*
X882018Y943387D01*
X882277Y943289D01*
X882471Y943127D01*
X882504Y943095D01*
X882536Y943063D01*
X882633Y942965D01*
X882730Y942836D01*
X882892Y942480D01*
X882925Y942285D01*
X882957Y942026D01*
Y941994D01*
Y941929D01*
X882925Y941800D01*
X882892Y941638D01*
X882828Y941476D01*
X882763Y941281D01*
X882633Y941087D01*
X882471Y940925D01*
X882439Y940893D01*
X882374Y940860D01*
X882245Y940796D01*
X882083Y940731D01*
X881856Y940634D01*
X881597Y940569D01*
X881241Y940537D01*
X880852Y940504D01*
X877258D01*
Y941249D01*
X877225Y941217D01*
X877063Y941152D01*
X876869Y941055D01*
X876577Y940893D01*
X876254Y940763D01*
X875865Y940601D01*
X875023Y940342D01*
X874958D01*
X874829Y940277D01*
X874602Y940245D01*
X874310Y940180D01*
X873954Y940116D01*
X873533Y940083D01*
X873080Y940018D01*
X872302D01*
X872044Y940051D01*
X871752Y940083D01*
X871428Y940116D01*
X871040Y940180D01*
X870619Y940277D01*
X869744Y940504D01*
X869258Y940666D01*
X868805Y940860D01*
X868352Y941087D01*
X867866Y941379D01*
X867445Y941670D01*
X867024Y942026D01*
X866991Y942059D01*
X866927Y942123D01*
X866830Y942221D01*
X866700Y942383D01*
X866538Y942577D01*
X866344Y942836D01*
X866182Y943095D01*
X865987Y943419D01*
X865761Y943743D01*
X865599Y944131D01*
X865243Y944973D01*
X865113Y945459D01*
X865016Y945945D01*
X864951Y946463D01*
X864919Y947014D01*
Y947046D01*
Y947143D01*
Y947305D01*
X864951Y947532D01*
X864984Y947823D01*
X865048Y948115D01*
X865113Y948471D01*
X865210Y948859D01*
X865469Y949702D01*
X865631Y950155D01*
X865858Y950608D01*
X866117Y951062D01*
X866408Y951483D01*
X866732Y951936D01*
X867121Y952357D01*
X867153Y952390D01*
X867218Y952454D01*
X867348Y952551D01*
X867510Y952713D01*
X867736Y952875D01*
X867995Y953070D01*
X868287Y953264D01*
X868643Y953491D01*
X869032Y953685D01*
X869453Y953879D01*
X869906Y954073D01*
X870359Y954235D01*
X870878Y954397D01*
X871428Y954494D01*
X872011Y954559D01*
X872594Y954592D01*
X872788D01*
X873047Y954559D01*
X873339D01*
X873695Y954494D01*
X874084Y954430D01*
X874537Y954333D01*
X874958Y954203D01*
X875023D01*
X875152Y954138D01*
X875379Y954041D01*
X875671Y953944D01*
X876027Y953782D01*
X876415Y953588D01*
X876836Y953361D01*
X877258Y953102D01*
Y956988D01*
X876545D01*
X876351Y957020D01*
X876092Y957053D01*
X875541Y957182D01*
X875314Y957280D01*
X875088Y957409D01*
X875055Y957441D01*
X875023Y957474D01*
X874958Y957571D01*
X874861Y957701D01*
X874699Y958057D01*
X874667Y958284D01*
X874634Y958510D01*
Y958543D01*
Y958640D01*
X874667Y958737D01*
X874699Y958899D01*
X874829Y959255D01*
X874926Y959449D01*
X875088Y959611D01*
X875120Y959644D01*
X875185Y959676D01*
X875314Y959741D01*
X875476Y959838D01*
X875703Y959935D01*
X875994Y960000D01*
X876351Y960032D01*
X876739Y960065D01*
X880334D01*
Y943581D01*
D02*
G37*
G36*
X697051Y973239D02*
X697440D01*
X697666Y973207D01*
X698152Y973109D01*
X698346Y973045D01*
X698508Y972947D01*
X698541Y972915D01*
X698606Y972850D01*
X698703Y972721D01*
X698832Y972559D01*
X699059Y972170D01*
X699124Y971944D01*
X699156Y971684D01*
Y971652D01*
Y971587D01*
X699124Y971458D01*
X699091Y971296D01*
X699027Y971134D01*
X698962Y970940D01*
X698832Y970745D01*
X698670Y970583D01*
X698638Y970551D01*
X698573Y970519D01*
X698444Y970454D01*
X698282Y970389D01*
X698055Y970292D01*
X697796Y970227D01*
X697440Y970195D01*
X697051Y970162D01*
X692776D01*
X692582Y970195D01*
X692355Y970227D01*
X691805Y970357D01*
X691546Y970454D01*
X691351Y970583D01*
X691319Y970616D01*
X691287Y970648D01*
X691222Y970745D01*
X691125Y970875D01*
X690963Y971231D01*
X690930Y971458D01*
X690898Y971684D01*
Y971717D01*
Y971814D01*
X690930Y971911D01*
X690963Y972073D01*
X691092Y972429D01*
X691189Y972624D01*
X691351Y972786D01*
X691384Y972818D01*
X691449Y972850D01*
X691578Y972915D01*
X691740Y973012D01*
X691967Y973109D01*
X692226Y973174D01*
X692582Y973207D01*
X692971Y973239D01*
X693716D01*
X692938Y975150D01*
X685490D01*
X684712Y973239D01*
X685652D01*
X685846Y973207D01*
X686073Y973174D01*
X686623Y973045D01*
X686882Y972947D01*
X687076Y972786D01*
X687109Y972753D01*
X687141Y972721D01*
X687238Y972624D01*
X687336Y972494D01*
X687497Y972138D01*
X687530Y971944D01*
X687562Y971684D01*
Y971652D01*
Y971587D01*
X687530Y971458D01*
X687497Y971296D01*
X687433Y971134D01*
X687368Y970940D01*
X687238Y970745D01*
X687076Y970583D01*
X687044Y970551D01*
X686979Y970519D01*
X686850Y970454D01*
X686688Y970389D01*
X686461Y970292D01*
X686202Y970227D01*
X685846Y970195D01*
X685457Y970162D01*
X681182D01*
X680988Y970195D01*
X680761Y970227D01*
X680243Y970357D01*
X679984Y970454D01*
X679790Y970583D01*
X679758Y970616D01*
X679725Y970648D01*
X679628Y970745D01*
X679563Y970875D01*
X679369Y971231D01*
X679336Y971458D01*
X679304Y971684D01*
Y971717D01*
Y971814D01*
X679336Y971911D01*
X679369Y972073D01*
X679434Y972267D01*
X679498Y972429D01*
X679628Y972624D01*
X679790Y972786D01*
X679822Y972818D01*
X679887Y972850D01*
X679984Y972915D01*
X680146Y973012D01*
X680373Y973109D01*
X680664Y973174D01*
X680988Y973207D01*
X681377Y973239D01*
X686267Y985351D01*
X684065D01*
X683870Y985383D01*
X683644Y985416D01*
X683093Y985545D01*
X682834Y985642D01*
X682640Y985772D01*
X682607Y985804D01*
X682575Y985837D01*
X682510Y985934D01*
X682413Y986063D01*
X682251Y986420D01*
X682219Y986646D01*
X682186Y986873D01*
Y986905D01*
Y987003D01*
X682219Y987100D01*
X682251Y987262D01*
X682381Y987618D01*
X682478Y987812D01*
X682640Y987974D01*
X682672Y988007D01*
X682737Y988039D01*
X682867Y988104D01*
X683028Y988201D01*
X683255Y988298D01*
X683514Y988363D01*
X683870Y988395D01*
X684259Y988428D01*
X690866D01*
X697051Y973239D01*
D02*
G37*
G36*
X875007Y984218D02*
X875233Y984185D01*
X875751Y984120D01*
X876367Y983991D01*
X877047Y983796D01*
X877759Y983537D01*
X878504Y983181D01*
X878537D01*
X878601Y983149D01*
X878699Y983084D01*
X878828Y982987D01*
X879184Y982760D01*
X879605Y982436D01*
X880091Y982048D01*
X880609Y981562D01*
X881063Y981011D01*
X881484Y980364D01*
Y980331D01*
X881516Y980299D01*
X881581Y980202D01*
X881646Y980072D01*
X881807Y979716D01*
X882002Y979263D01*
X882164Y978712D01*
X882326Y978097D01*
X882455Y977417D01*
X882488Y976737D01*
Y976704D01*
Y976672D01*
Y976575D01*
Y976445D01*
X882423Y976089D01*
X882358Y975635D01*
X882228Y975117D01*
X882067Y974534D01*
X881807Y973919D01*
X881484Y973271D01*
Y973239D01*
X881451Y973207D01*
X881289Y973012D01*
X881063Y972688D01*
X880739Y972332D01*
X880350Y971911D01*
X879832Y971458D01*
X879217Y971037D01*
X878537Y970648D01*
X878504D01*
X878439Y970616D01*
X878342Y970551D01*
X878213Y970486D01*
X878018Y970422D01*
X877824Y970357D01*
X877306Y970162D01*
X876691Y970000D01*
X876011Y969838D01*
X875233Y969709D01*
X874456Y969677D01*
X874100D01*
X873906Y969709D01*
X873679Y969741D01*
X873161Y969806D01*
X872545Y969903D01*
X871865Y970065D01*
X871153Y970292D01*
X870408Y970616D01*
X870376D01*
X870311Y970648D01*
X870214Y970713D01*
X870084Y970810D01*
X869760Y971004D01*
X869339Y971328D01*
X868854Y971684D01*
X868368Y972138D01*
X867914Y972688D01*
X867493Y973271D01*
Y973304D01*
X867461Y973336D01*
X867396Y973433D01*
X867331Y973563D01*
X867169Y973887D01*
X867008Y974340D01*
X866813Y974858D01*
X866651Y975473D01*
X866522Y976089D01*
X866489Y976769D01*
Y976801D01*
Y976866D01*
Y976963D01*
X866522Y977093D01*
X866554Y977449D01*
X866619Y977902D01*
X866749Y978453D01*
X866910Y979068D01*
X867169Y979716D01*
X867493Y980396D01*
Y980428D01*
X867558Y980461D01*
X867590Y980558D01*
X867688Y980687D01*
X867914Y981011D01*
X868238Y981432D01*
X868659Y981853D01*
X869177Y982339D01*
X869760Y982793D01*
X870440Y983214D01*
X870473D01*
X870538Y983246D01*
X870635Y983311D01*
X870764Y983375D01*
X870959Y983440D01*
X871153Y983537D01*
X871671Y983732D01*
X872286Y983926D01*
X872966Y984088D01*
X873679Y984218D01*
X874456Y984250D01*
X874812D01*
X875007Y984218D01*
D02*
G37*
G36*
X800715D02*
X801169Y984153D01*
X801687Y984088D01*
X802270Y983958D01*
X802885Y983796D01*
X803468Y983570D01*
X803501D01*
X803533Y983537D01*
X803727Y983473D01*
X804019Y983311D01*
X804375Y983149D01*
X804731Y982954D01*
X805152Y982695D01*
X805508Y982436D01*
X805832Y982145D01*
X805865Y982080D01*
X806027Y981951D01*
X806221Y981691D01*
X806448Y981368D01*
X806739Y980979D01*
X807031Y980493D01*
X807322Y979975D01*
X807614Y979392D01*
X807646Y979327D01*
X807678Y979198D01*
X807775Y978939D01*
X807873Y978615D01*
X807937Y978226D01*
X808035Y977773D01*
X808067Y977287D01*
X808099Y976737D01*
X808132Y975441D01*
X795437D01*
X795469Y975376D01*
X795534Y975247D01*
X795631Y975020D01*
X795825Y974729D01*
X796052Y974405D01*
X796344Y974081D01*
X796700Y973757D01*
X797121Y973466D01*
X797186Y973433D01*
X797347Y973369D01*
X797607Y973239D01*
X797995Y973109D01*
X798481Y972980D01*
X799064Y972850D01*
X799712Y972786D01*
X800456Y972753D01*
X800780D01*
X800942Y972786D01*
X801136D01*
X801396Y972818D01*
X801687Y972850D01*
X801979Y972883D01*
X802335Y972915D01*
X803112Y973045D01*
X804019Y973239D01*
X805023Y973466D01*
X805088D01*
X805217Y973530D01*
X805411Y973563D01*
X805670Y973628D01*
X806189Y973725D01*
X806448Y973790D01*
X806739D01*
X806869Y973757D01*
X806998Y973725D01*
X807354Y973595D01*
X807516Y973498D01*
X807678Y973336D01*
X807711Y973304D01*
X807743Y973271D01*
X807808Y973174D01*
X807905Y973045D01*
X808067Y972688D01*
X808099Y972494D01*
X808132Y972235D01*
Y972203D01*
Y972138D01*
X808099Y972041D01*
X808067Y971879D01*
X807937Y971555D01*
X807840Y971393D01*
X807678Y971231D01*
X807646Y971199D01*
X807549Y971134D01*
X807354Y971037D01*
X807095Y970907D01*
X806674Y970745D01*
X806448Y970648D01*
X806189Y970551D01*
X805865Y970454D01*
X805541Y970357D01*
X805152Y970259D01*
X804731Y970162D01*
X804699D01*
X804634Y970130D01*
X804504D01*
X804343Y970098D01*
X804116Y970065D01*
X803889Y970000D01*
X803598Y969968D01*
X803306Y969936D01*
X802594Y969838D01*
X801849Y969741D01*
X801039Y969709D01*
X800230Y969677D01*
X799874D01*
X799614Y969709D01*
X799291Y969741D01*
X798934Y969774D01*
X798546Y969838D01*
X798092Y969936D01*
X797153Y970195D01*
X796667Y970357D01*
X796182Y970551D01*
X795696Y970778D01*
X795210Y971069D01*
X794724Y971393D01*
X794303Y971749D01*
X794271Y971782D01*
X794206Y971846D01*
X794109Y971976D01*
X793947Y972138D01*
X793785Y972332D01*
X793623Y972591D01*
X793397Y972850D01*
X793202Y973174D01*
X793008Y973530D01*
X792814Y973919D01*
X792457Y974826D01*
X792295Y975279D01*
X792198Y975797D01*
X792133Y976348D01*
X792101Y976898D01*
Y976931D01*
Y977028D01*
X792133Y977222D01*
Y977449D01*
X792166Y977708D01*
X792231Y978032D01*
X792295Y978388D01*
X792393Y978777D01*
X792522Y979198D01*
X792684Y979619D01*
X792878Y980072D01*
X793105Y980526D01*
X793397Y980979D01*
X793720Y981400D01*
X794077Y981821D01*
X794498Y982210D01*
X794530Y982242D01*
X794595Y982307D01*
X794724Y982404D01*
X794919Y982533D01*
X795145Y982695D01*
X795437Y982857D01*
X795728Y983052D01*
X796084Y983246D01*
X796473Y983408D01*
X796894Y983602D01*
X797833Y983926D01*
X798351Y984055D01*
X798902Y984153D01*
X799453Y984218D01*
X800035Y984250D01*
X800359D01*
X800715Y984218D01*
D02*
G37*
G36*
X818220Y954559D02*
X818446Y954527D01*
X818964Y954462D01*
X819580Y954333D01*
X820260Y954138D01*
X820972Y953879D01*
X821717Y953523D01*
X821750D01*
X821814Y953491D01*
X821911Y953426D01*
X822041Y953329D01*
X822397Y953102D01*
X822818Y952778D01*
X823304Y952390D01*
X823822Y951904D01*
X824276Y951353D01*
X824697Y950705D01*
Y950673D01*
X824729Y950641D01*
X824794Y950544D01*
X824858Y950414D01*
X825020Y950058D01*
X825215Y949604D01*
X825377Y949054D01*
X825539Y948438D01*
X825668Y947758D01*
X825701Y947078D01*
Y947046D01*
Y947014D01*
Y946916D01*
Y946787D01*
X825636Y946431D01*
X825571Y945977D01*
X825442Y945459D01*
X825279Y944876D01*
X825020Y944261D01*
X824697Y943613D01*
Y943581D01*
X824664Y943548D01*
X824502Y943354D01*
X824276Y943030D01*
X823952Y942674D01*
X823563Y942253D01*
X823045Y941800D01*
X822430Y941379D01*
X821750Y940990D01*
X821717D01*
X821652Y940958D01*
X821555Y940893D01*
X821426Y940828D01*
X821231Y940763D01*
X821037Y940698D01*
X820519Y940504D01*
X819904Y940342D01*
X819223Y940180D01*
X818446Y940051D01*
X817669Y940018D01*
X817313D01*
X817119Y940051D01*
X816892Y940083D01*
X816374Y940148D01*
X815758Y940245D01*
X815078Y940407D01*
X814366Y940634D01*
X813621Y940958D01*
X813588D01*
X813524Y940990D01*
X813427Y941055D01*
X813297Y941152D01*
X812973Y941346D01*
X812552Y941670D01*
X812066Y942026D01*
X811581Y942480D01*
X811127Y943030D01*
X810706Y943613D01*
Y943645D01*
X810674Y943678D01*
X810609Y943775D01*
X810544Y943905D01*
X810382Y944229D01*
X810220Y944682D01*
X810026Y945200D01*
X809864Y945815D01*
X809735Y946431D01*
X809702Y947111D01*
Y947143D01*
Y947208D01*
Y947305D01*
X809735Y947435D01*
X809767Y947791D01*
X809832Y948244D01*
X809961Y948795D01*
X810123Y949410D01*
X810382Y950058D01*
X810706Y950738D01*
Y950770D01*
X810771Y950803D01*
X810803Y950900D01*
X810901Y951029D01*
X811127Y951353D01*
X811451Y951774D01*
X811872Y952195D01*
X812390Y952681D01*
X812973Y953134D01*
X813653Y953555D01*
X813686D01*
X813751Y953588D01*
X813848Y953652D01*
X813977Y953717D01*
X814172Y953782D01*
X814366Y953879D01*
X814884Y954073D01*
X815499Y954268D01*
X816179Y954430D01*
X816892Y954559D01*
X817669Y954592D01*
X818025D01*
X818220Y954559D01*
D02*
G37*
G36*
X708758Y958737D02*
X709017Y958705D01*
X709341Y958672D01*
X709665Y958640D01*
X710054Y958543D01*
X710831Y958348D01*
X711673Y958057D01*
X712094Y957862D01*
X712483Y957636D01*
X712871Y957344D01*
X713227Y957053D01*
X713260Y957020D01*
X713292Y956988D01*
X713389Y956891D01*
X713519Y956761D01*
X713648Y956567D01*
X713810Y956373D01*
X714167Y955887D01*
X714490Y955272D01*
X714782Y954559D01*
X714911Y954171D01*
X715009Y953750D01*
X715041Y953329D01*
X715073Y952875D01*
Y952811D01*
Y952649D01*
X715041Y952390D01*
X715009Y952033D01*
X714911Y951645D01*
X714814Y951224D01*
X714652Y950770D01*
X714426Y950317D01*
X714393Y950285D01*
X714329Y950155D01*
X714231Y949993D01*
X714069Y949766D01*
X713843Y949475D01*
X713584Y949183D01*
X713260Y948827D01*
X712871Y948503D01*
X712839Y948471D01*
X712677Y948374D01*
X712483Y948212D01*
X712191Y948018D01*
X711867Y947791D01*
X711479Y947564D01*
X711058Y947370D01*
X710637Y947176D01*
X710572Y947143D01*
X710442Y947111D01*
X710183Y947046D01*
X709827Y946981D01*
X709406Y946884D01*
X708888Y946819D01*
X708305Y946787D01*
X707625Y946755D01*
X704710D01*
Y943581D01*
X708013D01*
X708208Y943548D01*
X708434Y943516D01*
X708985Y943387D01*
X709244Y943289D01*
X709438Y943127D01*
X709471Y943095D01*
X709503Y943063D01*
X709600Y942965D01*
X709697Y942836D01*
X709859Y942480D01*
X709892Y942285D01*
X709924Y942026D01*
Y941994D01*
Y941929D01*
X709892Y941800D01*
X709859Y941638D01*
X709795Y941476D01*
X709730Y941281D01*
X709600Y941087D01*
X709438Y940925D01*
X709406Y940893D01*
X709341Y940860D01*
X709212Y940796D01*
X709050Y940731D01*
X708823Y940634D01*
X708564Y940569D01*
X708208Y940537D01*
X707819Y940504D01*
X700954D01*
X700759Y940537D01*
X700500Y940569D01*
X699950Y940698D01*
X699723Y940796D01*
X699496Y940925D01*
X699464Y940958D01*
X699431Y940990D01*
X699367Y941087D01*
X699269Y941217D01*
X699108Y941573D01*
X699075Y941800D01*
X699043Y942026D01*
Y942059D01*
Y942156D01*
X699075Y942253D01*
X699108Y942415D01*
X699237Y942771D01*
X699334Y942965D01*
X699496Y943127D01*
X699529Y943160D01*
X699593Y943192D01*
X699723Y943257D01*
X699885Y943354D01*
X700111Y943451D01*
X700403Y943516D01*
X700759Y943548D01*
X701148Y943581D01*
X701634D01*
Y955693D01*
X700954D01*
X700759Y955725D01*
X700500Y955758D01*
X699950Y955887D01*
X699723Y955984D01*
X699496Y956114D01*
X699464Y956146D01*
X699431Y956179D01*
X699367Y956276D01*
X699269Y956405D01*
X699108Y956761D01*
X699075Y956988D01*
X699043Y957215D01*
Y957247D01*
Y957344D01*
X699075Y957441D01*
X699108Y957604D01*
X699237Y957960D01*
X699334Y958154D01*
X699496Y958316D01*
X699529Y958348D01*
X699593Y958381D01*
X699723Y958446D01*
X699885Y958543D01*
X700111Y958640D01*
X700403Y958705D01*
X700759Y958737D01*
X701148Y958769D01*
X708532D01*
X708758Y958737D01*
D02*
G37*
G36*
X800537D02*
X800797D01*
X801056Y958705D01*
X801703Y958575D01*
X802416Y958381D01*
X803161Y958122D01*
X803873Y957733D01*
X804229Y957474D01*
X804553Y957215D01*
X804585Y957182D01*
X804618Y957150D01*
X804715Y957053D01*
X804812Y956956D01*
X805104Y956600D01*
X805427Y956179D01*
X805719Y955628D01*
X806011Y955013D01*
X806205Y954300D01*
X806237Y953912D01*
X806270Y953523D01*
Y953491D01*
Y953361D01*
X806237Y953167D01*
X806205Y952908D01*
X806172Y952616D01*
X806108Y952292D01*
X805978Y951969D01*
X805848Y951612D01*
X805816Y951580D01*
X805784Y951450D01*
X805687Y951288D01*
X805557Y951094D01*
X805395Y950835D01*
X805201Y950576D01*
X804942Y950285D01*
X804683Y949993D01*
X804715D01*
X804747Y949961D01*
X804909Y949831D01*
X805168Y949669D01*
X805492Y949410D01*
X805848Y949119D01*
X806205Y948762D01*
X806561Y948374D01*
X806852Y947953D01*
X806885Y947888D01*
X806982Y947758D01*
X807079Y947499D01*
X807241Y947176D01*
X807371Y946787D01*
X807468Y946333D01*
X807565Y945848D01*
X807597Y945297D01*
Y945232D01*
Y945103D01*
X807565Y944876D01*
X807533Y944585D01*
X807468Y944261D01*
X807371Y943905D01*
X807241Y943516D01*
X807047Y943127D01*
X807014Y943095D01*
X806982Y942998D01*
X806885Y942868D01*
X806788Y942706D01*
X806464Y942318D01*
X806075Y941929D01*
X806043Y941897D01*
X805946Y941832D01*
X805784Y941702D01*
X805557Y941573D01*
X805298Y941379D01*
X804974Y941217D01*
X804618Y941055D01*
X804197Y940893D01*
X804132D01*
X804003Y940828D01*
X803776Y940763D01*
X803452Y940698D01*
X803031Y940634D01*
X802545Y940569D01*
X802027Y940537D01*
X801412Y940504D01*
X792150D01*
X791955Y940537D01*
X791696Y940569D01*
X791146Y940698D01*
X790919Y940796D01*
X790692Y940925D01*
X790660Y940958D01*
X790628Y940990D01*
X790563Y941087D01*
X790466Y941217D01*
X790304Y941573D01*
X790271Y941800D01*
X790239Y942026D01*
Y942059D01*
Y942156D01*
X790271Y942253D01*
X790304Y942415D01*
X790433Y942771D01*
X790530Y942965D01*
X790692Y943127D01*
X790725Y943160D01*
X790789Y943192D01*
X790919Y943257D01*
X791081Y943354D01*
X791308Y943451D01*
X791599Y943516D01*
X791955Y943548D01*
X792344Y943581D01*
X792830D01*
Y955693D01*
X792150D01*
X791955Y955725D01*
X791696Y955758D01*
X791146Y955887D01*
X790919Y955984D01*
X790692Y956114D01*
X790660Y956146D01*
X790628Y956179D01*
X790563Y956276D01*
X790466Y956405D01*
X790304Y956761D01*
X790271Y956988D01*
X790239Y957215D01*
Y957247D01*
Y957344D01*
X790271Y957441D01*
X790304Y957604D01*
X790433Y957960D01*
X790530Y958154D01*
X790692Y958316D01*
X790725Y958348D01*
X790789Y958381D01*
X790919Y958446D01*
X791081Y958543D01*
X791308Y958640D01*
X791599Y958705D01*
X791955Y958737D01*
X792344Y958769D01*
X800343D01*
X800537Y958737D01*
D02*
G37*
G36*
X751474Y954171D02*
X751604Y954138D01*
X751960Y954009D01*
X752122Y953912D01*
X752316Y953750D01*
X752348Y953717D01*
X752381Y953685D01*
X752478Y953588D01*
X752575Y953458D01*
X752737Y953102D01*
X752769Y952908D01*
X752802Y952649D01*
Y952616D01*
Y952551D01*
X752769Y952422D01*
X752737Y952260D01*
X752672Y952098D01*
X752608Y951904D01*
X752478Y951709D01*
X752316Y951547D01*
X752284Y951515D01*
X752219Y951483D01*
X752122Y951418D01*
X751992Y951353D01*
X751668Y951191D01*
X751474Y951159D01*
X751247Y951126D01*
X748689Y940504D01*
X745839D01*
X743572Y946172D01*
X741370Y940504D01*
X738520D01*
X735929Y951126D01*
X735832D01*
X735735Y951159D01*
X735573Y951191D01*
X735249Y951321D01*
X735055Y951418D01*
X734861Y951547D01*
X734828Y951580D01*
X734796Y951612D01*
X734731Y951709D01*
X734634Y951839D01*
X734472Y952195D01*
X734440Y952422D01*
X734407Y952649D01*
Y952681D01*
Y952778D01*
X734440Y952875D01*
X734472Y953037D01*
X734602Y953393D01*
X734699Y953588D01*
X734861Y953750D01*
X734893Y953782D01*
X734958Y953814D01*
X735055Y953879D01*
X735184Y953976D01*
X735508Y954138D01*
X735703Y954171D01*
X735929Y954203D01*
X739265D01*
X739492Y954171D01*
X739751Y954138D01*
X740301Y954009D01*
X740560Y953912D01*
X740787Y953750D01*
X740819Y953717D01*
X740852Y953685D01*
X740949Y953588D01*
X741046Y953458D01*
X741208Y953102D01*
X741240Y952908D01*
X741273Y952649D01*
Y952616D01*
Y952551D01*
X741240Y952422D01*
X741208Y952260D01*
X741143Y952066D01*
X741046Y951871D01*
X740917Y951677D01*
X740722Y951483D01*
X740690D01*
X740625Y951418D01*
X740528Y951385D01*
X740366Y951321D01*
X740139Y951256D01*
X739848Y951191D01*
X739492Y951159D01*
X739071Y951126D01*
X740269Y946172D01*
X742212Y951224D01*
X744900D01*
X746843Y946172D01*
X748074Y951126D01*
X747653D01*
X747426Y951159D01*
X747167Y951191D01*
X746908Y951224D01*
X746681Y951288D01*
X746519Y951385D01*
X746487Y951418D01*
X746422Y951483D01*
X746325Y951612D01*
X746228Y951774D01*
X746001Y952163D01*
X745936Y952390D01*
X745904Y952649D01*
Y952681D01*
Y952778D01*
X745936Y952875D01*
X745969Y953037D01*
X746098Y953393D01*
X746195Y953588D01*
X746357Y953750D01*
X746390Y953782D01*
X746454Y953814D01*
X746584Y953879D01*
X746746Y953976D01*
X747005Y954073D01*
X747296Y954138D01*
X747653Y954171D01*
X748074Y954203D01*
X751345D01*
X751474Y954171D01*
D02*
G37*
G36*
X725599Y954559D02*
X725825Y954527D01*
X726343Y954462D01*
X726959Y954333D01*
X727639Y954138D01*
X728351Y953879D01*
X729096Y953523D01*
X729128D01*
X729193Y953491D01*
X729290Y953426D01*
X729420Y953329D01*
X729776Y953102D01*
X730197Y952778D01*
X730683Y952390D01*
X731201Y951904D01*
X731655Y951353D01*
X732076Y950705D01*
Y950673D01*
X732108Y950641D01*
X732173Y950544D01*
X732237Y950414D01*
X732399Y950058D01*
X732594Y949604D01*
X732756Y949054D01*
X732917Y948438D01*
X733047Y947758D01*
X733079Y947078D01*
Y947046D01*
Y947014D01*
Y946916D01*
Y946787D01*
X733015Y946431D01*
X732950Y945977D01*
X732820Y945459D01*
X732658Y944876D01*
X732399Y944261D01*
X732076Y943613D01*
Y943581D01*
X732043Y943548D01*
X731881Y943354D01*
X731655Y943030D01*
X731331Y942674D01*
X730942Y942253D01*
X730424Y941800D01*
X729809Y941379D01*
X729128Y940990D01*
X729096D01*
X729031Y940958D01*
X728934Y940893D01*
X728805Y940828D01*
X728610Y940763D01*
X728416Y940698D01*
X727898Y940504D01*
X727282Y940342D01*
X726602Y940180D01*
X725825Y940051D01*
X725048Y940018D01*
X724692D01*
X724497Y940051D01*
X724271Y940083D01*
X723753Y940148D01*
X723137Y940245D01*
X722457Y940407D01*
X721745Y940634D01*
X721000Y940958D01*
X720967D01*
X720903Y940990D01*
X720806Y941055D01*
X720676Y941152D01*
X720352Y941346D01*
X719931Y941670D01*
X719445Y942026D01*
X718960Y942480D01*
X718506Y943030D01*
X718085Y943613D01*
Y943645D01*
X718053Y943678D01*
X717988Y943775D01*
X717923Y943905D01*
X717761Y944229D01*
X717599Y944682D01*
X717405Y945200D01*
X717243Y945815D01*
X717114Y946431D01*
X717081Y947111D01*
Y947143D01*
Y947208D01*
Y947305D01*
X717114Y947435D01*
X717146Y947791D01*
X717211Y948244D01*
X717340Y948795D01*
X717502Y949410D01*
X717761Y950058D01*
X718085Y950738D01*
Y950770D01*
X718150Y950803D01*
X718182Y950900D01*
X718279Y951029D01*
X718506Y951353D01*
X718830Y951774D01*
X719251Y952195D01*
X719769Y952681D01*
X720352Y953134D01*
X721032Y953555D01*
X721065D01*
X721129Y953588D01*
X721227Y953652D01*
X721356Y953717D01*
X721550Y953782D01*
X721745Y953879D01*
X722263Y954073D01*
X722878Y954268D01*
X723558Y954430D01*
X724271Y954559D01*
X725048Y954592D01*
X725404D01*
X725599Y954559D01*
D02*
G37*
G36*
X836485D02*
X836711D01*
X836971Y954527D01*
X837618Y954430D01*
X838331Y954300D01*
X839075Y954073D01*
X839788Y953750D01*
X840436Y953329D01*
X840468D01*
X840500Y953264D01*
X840695Y953102D01*
X840954Y952811D01*
X841245Y952454D01*
X841537Y951969D01*
X841796Y951385D01*
X841990Y950705D01*
X842023Y950317D01*
X842055Y949928D01*
Y943581D01*
X842767D01*
X842962Y943548D01*
X843188Y943516D01*
X843739Y943387D01*
X843998Y943289D01*
X844192Y943127D01*
X844225Y943095D01*
X844257Y943063D01*
X844354Y942965D01*
X844451Y942836D01*
X844613Y942480D01*
X844646Y942285D01*
X844678Y942026D01*
Y941994D01*
Y941929D01*
X844646Y941800D01*
X844613Y941638D01*
X844549Y941476D01*
X844484Y941281D01*
X844354Y941087D01*
X844192Y940925D01*
X844160Y940893D01*
X844095Y940860D01*
X843966Y940796D01*
X843804Y940731D01*
X843577Y940634D01*
X843318Y940569D01*
X842962Y940537D01*
X842573Y940504D01*
X838978D01*
Y941217D01*
X838914Y941184D01*
X838784Y941120D01*
X838525Y941022D01*
X838233Y940860D01*
X837845Y940731D01*
X837392Y940569D01*
X836906Y940439D01*
X836388Y940310D01*
X836323D01*
X836161Y940277D01*
X835902Y940213D01*
X835546Y940180D01*
X835157Y940116D01*
X834736Y940051D01*
X833829Y940018D01*
X833603D01*
X833408Y940051D01*
X833214D01*
X832955Y940083D01*
X832404Y940180D01*
X831757Y940342D01*
X831109Y940569D01*
X830429Y940893D01*
X829813Y941314D01*
X829781D01*
X829749Y941379D01*
X829587Y941541D01*
X829328Y941800D01*
X829036Y942156D01*
X828745Y942609D01*
X828518Y943095D01*
X828324Y943645D01*
X828291Y943937D01*
X828259Y944229D01*
Y944261D01*
Y944326D01*
Y944423D01*
X828291Y944552D01*
X828356Y944909D01*
X828518Y945394D01*
X828745Y945945D01*
X828907Y946236D01*
X829101Y946528D01*
X829328Y946852D01*
X829587Y947176D01*
X829878Y947467D01*
X830234Y947791D01*
X830267Y947823D01*
X830332Y947856D01*
X830429Y947953D01*
X830591Y948050D01*
X830785Y948179D01*
X831044Y948309D01*
X831336Y948471D01*
X831659Y948633D01*
X832016Y948795D01*
X832437Y948957D01*
X832890Y949086D01*
X833376Y949216D01*
X833894Y949313D01*
X834477Y949410D01*
X835060Y949442D01*
X835707Y949475D01*
X836258D01*
X836647Y949442D01*
X837132Y949410D01*
X837683Y949345D01*
X838298Y949248D01*
X838978Y949151D01*
Y949896D01*
Y949928D01*
Y950025D01*
X838946Y950155D01*
X838914Y950317D01*
X838817Y950479D01*
X838719Y950705D01*
X838557Y950867D01*
X838363Y951062D01*
X838331Y951094D01*
X838233Y951126D01*
X838104Y951191D01*
X837877Y951288D01*
X837553Y951385D01*
X837165Y951450D01*
X836679Y951483D01*
X836096Y951515D01*
X835837D01*
X835546Y951483D01*
X835157Y951450D01*
X834639Y951385D01*
X834024Y951288D01*
X833311Y951159D01*
X832534Y950965D01*
X832501D01*
X832404Y950932D01*
X832242Y950900D01*
X832080Y950867D01*
X831659Y950803D01*
X831465Y950770D01*
X831174D01*
X831044Y950803D01*
X830915Y950835D01*
X830591Y950965D01*
X830396Y951062D01*
X830234Y951191D01*
X830202Y951224D01*
X830170Y951288D01*
X830105Y951385D01*
X830040Y951515D01*
X829878Y951871D01*
X829846Y952066D01*
X829813Y952325D01*
Y952357D01*
Y952390D01*
X829846Y952551D01*
X829878Y952778D01*
X829943Y953005D01*
X829975Y953070D01*
X830072Y953167D01*
X830202Y953329D01*
X830364Y953458D01*
X830429Y953491D01*
X830493Y953523D01*
X830623Y953588D01*
X830785Y953652D01*
X830979Y953717D01*
X831206Y953782D01*
X831497Y953879D01*
X831562D01*
X831692Y953944D01*
X831918Y954009D01*
X832210Y954073D01*
X832566Y954138D01*
X832955Y954235D01*
X833829Y954397D01*
X833894D01*
X834024Y954430D01*
X834250Y954462D01*
X834542Y954494D01*
X834898Y954527D01*
X835254Y954559D01*
X835999Y954592D01*
X836258D01*
X836485Y954559D01*
D02*
G37*
G36*
X762453D02*
X762906Y954494D01*
X763424Y954430D01*
X764007Y954300D01*
X764622Y954138D01*
X765205Y953912D01*
X765238D01*
X765270Y953879D01*
X765464Y953814D01*
X765756Y953652D01*
X766112Y953491D01*
X766468Y953296D01*
X766889Y953037D01*
X767246Y952778D01*
X767570Y952487D01*
X767602Y952422D01*
X767764Y952292D01*
X767958Y952033D01*
X768185Y951709D01*
X768476Y951321D01*
X768768Y950835D01*
X769059Y950317D01*
X769351Y949734D01*
X769383Y949669D01*
X769415Y949540D01*
X769513Y949280D01*
X769610Y948957D01*
X769675Y948568D01*
X769772Y948115D01*
X769804Y947629D01*
X769836Y947078D01*
X769869Y945783D01*
X757174D01*
X757206Y945718D01*
X757271Y945589D01*
X757368Y945362D01*
X757562Y945070D01*
X757789Y944747D01*
X758081Y944423D01*
X758437Y944099D01*
X758858Y943808D01*
X758923Y943775D01*
X759085Y943710D01*
X759344Y943581D01*
X759732Y943451D01*
X760218Y943322D01*
X760801Y943192D01*
X761449Y943127D01*
X762194Y943095D01*
X762517D01*
X762679Y943127D01*
X762874D01*
X763133Y943160D01*
X763424Y943192D01*
X763716Y943224D01*
X764072Y943257D01*
X764849Y943387D01*
X765756Y943581D01*
X766760Y943808D01*
X766825D01*
X766954Y943872D01*
X767149Y943905D01*
X767408Y943969D01*
X767926Y944066D01*
X768185Y944131D01*
X768476D01*
X768606Y944099D01*
X768735Y944066D01*
X769092Y943937D01*
X769253Y943840D01*
X769415Y943678D01*
X769448Y943645D01*
X769480Y943613D01*
X769545Y943516D01*
X769642Y943387D01*
X769804Y943030D01*
X769836Y942836D01*
X769869Y942577D01*
Y942544D01*
Y942480D01*
X769836Y942383D01*
X769804Y942221D01*
X769675Y941897D01*
X769577Y941735D01*
X769415Y941573D01*
X769383Y941541D01*
X769286Y941476D01*
X769092Y941379D01*
X768832Y941249D01*
X768411Y941087D01*
X768185Y940990D01*
X767926Y940893D01*
X767602Y940796D01*
X767278Y940698D01*
X766889Y940601D01*
X766468Y940504D01*
X766436D01*
X766371Y940472D01*
X766242D01*
X766080Y940439D01*
X765853Y940407D01*
X765626Y940342D01*
X765335Y940310D01*
X765043Y940277D01*
X764331Y940180D01*
X763586Y940083D01*
X762776Y940051D01*
X761967Y940018D01*
X761611D01*
X761351Y940051D01*
X761028Y940083D01*
X760671Y940116D01*
X760283Y940180D01*
X759829Y940277D01*
X758890Y940537D01*
X758404Y940698D01*
X757919Y940893D01*
X757433Y941120D01*
X756947Y941411D01*
X756461Y941735D01*
X756040Y942091D01*
X756008Y942123D01*
X755943Y942188D01*
X755846Y942318D01*
X755684Y942480D01*
X755522Y942674D01*
X755360Y942933D01*
X755134Y943192D01*
X754939Y943516D01*
X754745Y943872D01*
X754551Y944261D01*
X754194Y945168D01*
X754033Y945621D01*
X753935Y946139D01*
X753871Y946690D01*
X753838Y947240D01*
Y947273D01*
Y947370D01*
X753871Y947564D01*
Y947791D01*
X753903Y948050D01*
X753968Y948374D01*
X754033Y948730D01*
X754130Y949119D01*
X754259Y949540D01*
X754421Y949961D01*
X754615Y950414D01*
X754842Y950867D01*
X755134Y951321D01*
X755458Y951742D01*
X755814Y952163D01*
X756235Y952551D01*
X756267Y952584D01*
X756332Y952649D01*
X756461Y952746D01*
X756656Y952875D01*
X756882Y953037D01*
X757174Y953199D01*
X757465Y953393D01*
X757822Y953588D01*
X758210Y953750D01*
X758631Y953944D01*
X759570Y954268D01*
X760089Y954397D01*
X760639Y954494D01*
X761190Y954559D01*
X761773Y954592D01*
X762096D01*
X762453Y954559D01*
D02*
G37*
G36*
X753271Y988395D02*
X753498Y988363D01*
X754049Y988233D01*
X754308Y988136D01*
X754502Y987974D01*
X754535Y987942D01*
X754567Y987909D01*
X754664Y987812D01*
X754761Y987683D01*
X754923Y987326D01*
X754956Y987132D01*
X754988Y986873D01*
Y986841D01*
Y986776D01*
X754956Y986646D01*
X754923Y986484D01*
X754858Y986322D01*
X754794Y986128D01*
X754664Y985934D01*
X754502Y985772D01*
X754470Y985740D01*
X754405Y985707D01*
X754275Y985642D01*
X754113Y985578D01*
X753887Y985480D01*
X753628Y985416D01*
X753271Y985383D01*
X752883Y985351D01*
Y973239D01*
X753077D01*
X753271Y973207D01*
X753498Y973174D01*
X754049Y973045D01*
X754308Y972947D01*
X754502Y972786D01*
X754535Y972753D01*
X754567Y972721D01*
X754664Y972624D01*
X754761Y972494D01*
X754923Y972138D01*
X754956Y971944D01*
X754988Y971684D01*
Y971652D01*
Y971587D01*
X754956Y971458D01*
X754923Y971296D01*
X754858Y971134D01*
X754794Y970940D01*
X754664Y970745D01*
X754502Y970583D01*
X754470Y970551D01*
X754405Y970519D01*
X754275Y970454D01*
X754113Y970389D01*
X753887Y970292D01*
X753628Y970227D01*
X753271Y970195D01*
X752883Y970162D01*
X748478D01*
X748284Y970195D01*
X748025Y970227D01*
X747475Y970357D01*
X747248Y970454D01*
X747021Y970583D01*
X746989Y970616D01*
X746956Y970648D01*
X746892Y970745D01*
X746795Y970875D01*
X746633Y971231D01*
X746600Y971458D01*
X746568Y971684D01*
Y971717D01*
Y971814D01*
X746600Y971911D01*
X746633Y972073D01*
X746762Y972429D01*
X746859Y972624D01*
X747021Y972786D01*
X747054Y972818D01*
X747118Y972850D01*
X747248Y972915D01*
X747410Y973012D01*
X747636Y973109D01*
X747928Y973174D01*
X748284Y973207D01*
X748673Y973239D01*
X749806D01*
Y982436D01*
X746211Y974502D01*
X743556D01*
X739929Y982436D01*
Y973239D01*
X741224D01*
X741419Y973207D01*
X741645Y973174D01*
X742196Y973045D01*
X742455Y972947D01*
X742649Y972786D01*
X742682Y972753D01*
X742714Y972721D01*
X742811Y972624D01*
X742908Y972494D01*
X743070Y972138D01*
X743103Y971944D01*
X743135Y971684D01*
Y971652D01*
Y971587D01*
X743103Y971458D01*
X743070Y971296D01*
X743005Y971134D01*
X742941Y970940D01*
X742811Y970745D01*
X742649Y970583D01*
X742617Y970551D01*
X742552Y970519D01*
X742422Y970454D01*
X742261Y970389D01*
X742034Y970292D01*
X741775Y970227D01*
X741419Y970195D01*
X741030Y970162D01*
X736658D01*
X736464Y970195D01*
X736205Y970227D01*
X735686Y970357D01*
X735427Y970454D01*
X735233Y970583D01*
X735201Y970616D01*
X735168Y970648D01*
X735071Y970745D01*
X735006Y970875D01*
X734812Y971231D01*
X734780Y971458D01*
X734747Y971684D01*
Y971717D01*
Y971814D01*
X734780Y971911D01*
X734812Y972073D01*
X734877Y972267D01*
X734942Y972429D01*
X735071Y972624D01*
X735233Y972786D01*
X735265Y972818D01*
X735330Y972850D01*
X735427Y972915D01*
X735622Y973012D01*
X735816Y973109D01*
X736107Y973174D01*
X736464Y973207D01*
X736852Y973239D01*
Y985351D01*
X736658D01*
X736464Y985383D01*
X736205Y985416D01*
X735686Y985545D01*
X735629Y985567D01*
X735427Y985480D01*
X735168Y985416D01*
X734812Y985383D01*
X734423Y985351D01*
X732610Y970162D01*
X729242D01*
X726230Y978906D01*
X723348Y970162D01*
X719883D01*
X718037Y985351D01*
X717842D01*
X717648Y985383D01*
X717421Y985416D01*
X716903Y985513D01*
X716644Y985610D01*
X716450Y985740D01*
X716417Y985772D01*
X716385Y985804D01*
X716288Y985901D01*
X716223Y986031D01*
X716126Y986193D01*
X716029Y986355D01*
X715996Y986582D01*
X715964Y986841D01*
Y986873D01*
Y986970D01*
X715996Y987067D01*
X716029Y987229D01*
X716094Y987424D01*
X716158Y987618D01*
X716288Y987812D01*
X716450Y987974D01*
X716482Y988007D01*
X716547Y988039D01*
X716676Y988104D01*
X716838Y988201D01*
X717065Y988298D01*
X717324Y988363D01*
X717648Y988395D01*
X718037Y988428D01*
X722991D01*
X723186Y988395D01*
X723412Y988363D01*
X723963Y988233D01*
X724222Y988136D01*
X724416Y987974D01*
X724449Y987942D01*
X724481Y987909D01*
X724578Y987812D01*
X724676Y987683D01*
X724837Y987326D01*
X724870Y987132D01*
X724902Y986873D01*
Y986841D01*
Y986776D01*
X724870Y986646D01*
X724837Y986484D01*
X724773Y986322D01*
X724708Y986128D01*
X724578Y985934D01*
X724416Y985772D01*
X724384Y985740D01*
X724319Y985707D01*
X724190Y985642D01*
X724028Y985578D01*
X723801Y985480D01*
X723542Y985416D01*
X723186Y985383D01*
X722797Y985351D01*
X721178D01*
X722214Y976672D01*
X724643Y983861D01*
X727817D01*
X730278Y976672D01*
X731314Y985351D01*
X729501D01*
X729307Y985383D01*
X729047Y985416D01*
X728497Y985545D01*
X728270Y985642D01*
X728044Y985772D01*
X728011Y985804D01*
X727979Y985837D01*
X727914Y985934D01*
X727817Y986063D01*
X727655Y986420D01*
X727623Y986646D01*
X727590Y986873D01*
Y986905D01*
Y987003D01*
X727623Y987100D01*
X727655Y987262D01*
X727785Y987618D01*
X727882Y987812D01*
X728044Y987974D01*
X728076Y988007D01*
X728141Y988039D01*
X728270Y988104D01*
X728432Y988201D01*
X728659Y988298D01*
X728950Y988363D01*
X729307Y988395D01*
X729695Y988428D01*
X734618D01*
X734812Y988395D01*
X735039Y988363D01*
X735589Y988233D01*
X735645Y988212D01*
X735816Y988298D01*
X736107Y988363D01*
X736464Y988395D01*
X736852Y988428D01*
X740641D01*
X744884Y979133D01*
X749061Y988428D01*
X753077D01*
X753271Y988395D01*
D02*
G37*
G36*
X837699Y984218D02*
X837926D01*
X838185Y984185D01*
X838833Y984088D01*
X839545Y983958D01*
X840290Y983732D01*
X841002Y983408D01*
X841650Y982987D01*
X841683D01*
X841715Y982922D01*
X841909Y982760D01*
X842168Y982469D01*
X842460Y982112D01*
X842751Y981627D01*
X843010Y981044D01*
X843205Y980364D01*
X843237Y979975D01*
X843269Y979586D01*
Y973239D01*
X843982D01*
X844176Y973207D01*
X844403Y973174D01*
X844953Y973045D01*
X845212Y972947D01*
X845407Y972786D01*
X845439Y972753D01*
X845472Y972721D01*
X845569Y972624D01*
X845666Y972494D01*
X845828Y972138D01*
X845860Y971944D01*
X845893Y971684D01*
Y971652D01*
Y971587D01*
X845860Y971458D01*
X845828Y971296D01*
X845763Y971134D01*
X845698Y970940D01*
X845569Y970745D01*
X845407Y970583D01*
X845374Y970551D01*
X845310Y970519D01*
X845180Y970454D01*
X845018Y970389D01*
X844791Y970292D01*
X844532Y970227D01*
X844176Y970195D01*
X843788Y970162D01*
X840193D01*
Y970875D01*
X840128Y970843D01*
X839998Y970778D01*
X839739Y970680D01*
X839448Y970519D01*
X839059Y970389D01*
X838606Y970227D01*
X838120Y970098D01*
X837602Y969968D01*
X837537D01*
X837375Y969936D01*
X837116Y969871D01*
X836760Y969838D01*
X836371Y969774D01*
X835950Y969709D01*
X835044Y969677D01*
X834817D01*
X834623Y969709D01*
X834428D01*
X834169Y969741D01*
X833619Y969838D01*
X832971Y970000D01*
X832323Y970227D01*
X831643Y970551D01*
X831028Y970972D01*
X830995D01*
X830963Y971037D01*
X830801Y971199D01*
X830542Y971458D01*
X830251Y971814D01*
X829959Y972267D01*
X829733Y972753D01*
X829538Y973304D01*
X829506Y973595D01*
X829473Y973887D01*
Y973919D01*
Y973984D01*
Y974081D01*
X829506Y974211D01*
X829570Y974567D01*
X829733Y975052D01*
X829959Y975603D01*
X830121Y975894D01*
X830315Y976186D01*
X830542Y976510D01*
X830801Y976834D01*
X831093Y977125D01*
X831449Y977449D01*
X831481Y977481D01*
X831546Y977514D01*
X831643Y977611D01*
X831805Y977708D01*
X831999Y977838D01*
X832259Y977967D01*
X832550Y978129D01*
X832874Y978291D01*
X833230Y978453D01*
X833651Y978615D01*
X834104Y978744D01*
X834590Y978874D01*
X835108Y978971D01*
X835691Y979068D01*
X836274Y979101D01*
X836922Y979133D01*
X837473D01*
X837861Y979101D01*
X838347Y979068D01*
X838897Y979004D01*
X839513Y978906D01*
X840193Y978809D01*
Y979554D01*
Y979586D01*
Y979684D01*
X840160Y979813D01*
X840128Y979975D01*
X840031Y980137D01*
X839934Y980364D01*
X839772Y980526D01*
X839577Y980720D01*
X839545Y980752D01*
X839448Y980785D01*
X839318Y980849D01*
X839092Y980947D01*
X838768Y981044D01*
X838379Y981108D01*
X837894Y981141D01*
X837310Y981173D01*
X837051D01*
X836760Y981141D01*
X836371Y981108D01*
X835853Y981044D01*
X835238Y980947D01*
X834525Y980817D01*
X833748Y980623D01*
X833716D01*
X833619Y980590D01*
X833457Y980558D01*
X833295Y980526D01*
X832874Y980461D01*
X832680Y980428D01*
X832388D01*
X832259Y980461D01*
X832129Y980493D01*
X831805Y980623D01*
X831611Y980720D01*
X831449Y980849D01*
X831416Y980882D01*
X831384Y980947D01*
X831319Y981044D01*
X831255Y981173D01*
X831093Y981529D01*
X831060Y981724D01*
X831028Y981983D01*
Y982015D01*
Y982048D01*
X831060Y982210D01*
X831093Y982436D01*
X831157Y982663D01*
X831190Y982728D01*
X831287Y982825D01*
X831416Y982987D01*
X831578Y983116D01*
X831643Y983149D01*
X831708Y983181D01*
X831837Y983246D01*
X831999Y983311D01*
X832194Y983375D01*
X832420Y983440D01*
X832712Y983537D01*
X832777D01*
X832906Y983602D01*
X833133Y983667D01*
X833424Y983732D01*
X833781Y983796D01*
X834169Y983894D01*
X835044Y984055D01*
X835108D01*
X835238Y984088D01*
X835465Y984120D01*
X835756Y984153D01*
X836112Y984185D01*
X836469Y984218D01*
X837213Y984250D01*
X837473D01*
X837699Y984218D01*
D02*
G37*
G36*
X216827Y956137D02*
X217197Y956091D01*
X217567Y955952D01*
X217984Y955813D01*
X218354Y955582D01*
X218724Y955304D01*
X218770Y955258D01*
X218863Y955165D01*
X219002Y954980D01*
X219187Y954749D01*
X219372Y954425D01*
X219511Y954054D01*
X219603Y953684D01*
X219650Y953221D01*
Y953175D01*
Y953036D01*
X219603Y952805D01*
X219557Y952481D01*
X219418Y952157D01*
X219279Y951833D01*
X219048Y951463D01*
X218724Y951139D01*
X218678Y951093D01*
X218585Y951000D01*
X218354Y950861D01*
X218076Y950722D01*
X217752Y950583D01*
X217336Y950445D01*
X216873Y950352D01*
X216318Y950306D01*
X216086D01*
X215809Y950352D01*
X215438Y950398D01*
X215068Y950491D01*
X214652Y950676D01*
X214281Y950861D01*
X213911Y951139D01*
X213865Y951185D01*
X213772Y951278D01*
X213633Y951463D01*
X213494Y951694D01*
X213309Y952018D01*
X213171Y952388D01*
X213078Y952759D01*
X213032Y953221D01*
Y953268D01*
Y953453D01*
X213078Y953684D01*
X213124Y953962D01*
X213263Y954286D01*
X213402Y954610D01*
X213633Y954980D01*
X213911Y955304D01*
X213957Y955350D01*
X214096Y955443D01*
X214281Y955582D01*
X214559Y955767D01*
X214883Y955906D01*
X215299Y956044D01*
X215762Y956137D01*
X216318Y956183D01*
X216549D01*
X216827Y956137D01*
D02*
G37*
G36*
X825231Y983829D02*
X825458Y983796D01*
X825976Y983667D01*
X826235Y983570D01*
X826429Y983408D01*
X826462Y983375D01*
X826494Y983343D01*
X826591Y983246D01*
X826688Y983116D01*
X826850Y982760D01*
X826883Y982566D01*
X826915Y982307D01*
Y982274D01*
Y982210D01*
X826883Y982080D01*
X826850Y981951D01*
X826721Y981594D01*
X826624Y981400D01*
X826462Y981238D01*
X826429Y981206D01*
X826397Y981173D01*
X826300Y981108D01*
X826138Y981011D01*
X825976Y980947D01*
X825781Y980882D01*
X825522Y980817D01*
X825231Y980785D01*
X821183Y977255D01*
X825879Y973239D01*
X826008D01*
X826170Y973207D01*
X826364Y973142D01*
X826753Y973012D01*
X826980Y972883D01*
X827142Y972753D01*
X827174Y972721D01*
X827206Y972688D01*
X827271Y972591D01*
X827368Y972462D01*
X827498Y972138D01*
X827530Y971911D01*
X827563Y971684D01*
Y971652D01*
Y971587D01*
X827530Y971458D01*
X827498Y971296D01*
X827433Y971134D01*
X827368Y970940D01*
X827239Y970745D01*
X827077Y970583D01*
X827045Y970551D01*
X826980Y970519D01*
X826850Y970454D01*
X826688Y970389D01*
X826462Y970292D01*
X826202Y970227D01*
X825879Y970195D01*
X825490Y970162D01*
X821766D01*
X821571Y970195D01*
X821345Y970227D01*
X820827Y970357D01*
X820567Y970454D01*
X820373Y970583D01*
X820341Y970616D01*
X820308Y970648D01*
X820244Y970745D01*
X820146Y970875D01*
X820049Y971037D01*
X819985Y971231D01*
X819952Y971458D01*
X819920Y971717D01*
Y971749D01*
Y971814D01*
X819952Y971911D01*
Y972041D01*
X820049Y972332D01*
X820244Y972656D01*
X820276Y972688D01*
X820308Y972721D01*
X820503Y972883D01*
X820794Y973077D01*
X821183Y973239D01*
X818851Y975247D01*
X816519Y973239D01*
X816552D01*
X816649Y973207D01*
X816778Y973174D01*
X816908Y973109D01*
X817264Y972915D01*
X817426Y972786D01*
X817556Y972656D01*
X817620Y972591D01*
X817718Y972397D01*
X817815Y972105D01*
X817879Y971717D01*
Y971684D01*
Y971587D01*
X817847Y971458D01*
X817815Y971296D01*
X817750Y971134D01*
X817685Y970940D01*
X817556Y970745D01*
X817394Y970583D01*
X817361Y970551D01*
X817297Y970519D01*
X817199Y970454D01*
X817038Y970389D01*
X816811Y970292D01*
X816519Y970227D01*
X816196Y970195D01*
X815807Y970162D01*
X812115D01*
X811921Y970195D01*
X811694Y970227D01*
X811176Y970357D01*
X810917Y970454D01*
X810723Y970583D01*
X810690Y970616D01*
X810658Y970648D01*
X810593Y970745D01*
X810496Y970875D01*
X810334Y971231D01*
X810302Y971458D01*
X810269Y971684D01*
Y971717D01*
Y971782D01*
X810302Y971911D01*
X810334Y972073D01*
X810463Y972397D01*
X810561Y972591D01*
X810690Y972753D01*
X810723Y972786D01*
X810755Y972818D01*
X810884Y972883D01*
X811014Y972980D01*
X811176Y973045D01*
X811403Y973142D01*
X811662Y973207D01*
X811953Y973239D01*
X816519Y977222D01*
X812439Y980785D01*
X812309D01*
X812180Y980817D01*
X811985Y980849D01*
X811597Y980979D01*
X811403Y981108D01*
X811241Y981238D01*
Y981270D01*
X811176Y981335D01*
X811111Y981400D01*
X811046Y981529D01*
X810917Y981886D01*
X810884Y982080D01*
X810852Y982307D01*
Y982339D01*
Y982436D01*
X810884Y982533D01*
X810917Y982695D01*
X811046Y983052D01*
X811143Y983246D01*
X811305Y983408D01*
X811338Y983440D01*
X811403Y983473D01*
X811532Y983537D01*
X811694Y983634D01*
X811921Y983732D01*
X812180Y983796D01*
X812504Y983829D01*
X812892Y983861D01*
X816001D01*
X816196Y983829D01*
X816422Y983796D01*
X816940Y983667D01*
X817199Y983570D01*
X817394Y983408D01*
X817426Y983375D01*
X817458Y983343D01*
X817556Y983246D01*
X817653Y983116D01*
X817815Y982760D01*
X817847Y982566D01*
X817879Y982307D01*
Y982274D01*
Y982177D01*
X817847Y982015D01*
X817782Y981789D01*
X817653Y981562D01*
X817523Y981335D01*
X817297Y981108D01*
X817005Y980882D01*
X818851Y979295D01*
X820729Y980947D01*
X820697Y980979D01*
X820600Y981044D01*
X820470Y981173D01*
X820341Y981335D01*
X820179Y981529D01*
X820049Y981756D01*
X819952Y982015D01*
X819920Y982274D01*
Y982307D01*
Y982404D01*
X819952Y982533D01*
X819985Y982695D01*
X820114Y983052D01*
X820211Y983246D01*
X820373Y983408D01*
X820406Y983440D01*
X820470Y983473D01*
X820600Y983537D01*
X820762Y983634D01*
X820988Y983732D01*
X821248Y983796D01*
X821571Y983829D01*
X821960Y983861D01*
X825037D01*
X825231Y983829D01*
D02*
G37*
G36*
X520000Y905000D02*
X520000Y96000D01*
X480000Y96000D01*
X480000Y905000D01*
X520000Y905000D01*
D02*
G37*
G36*
X900073Y973239D02*
X900785D01*
X900980Y973207D01*
X901206Y973174D01*
X901757Y973045D01*
X902016Y972947D01*
X902210Y972786D01*
X902243Y972753D01*
X902275Y972721D01*
X902372Y972624D01*
X902469Y972494D01*
X902631Y972138D01*
X902663Y971944D01*
X902696Y971684D01*
Y971652D01*
Y971587D01*
X902663Y971458D01*
X902631Y971296D01*
X902566Y971134D01*
X902502Y970940D01*
X902372Y970745D01*
X902210Y970583D01*
X902178Y970551D01*
X902113Y970519D01*
X901983Y970454D01*
X901822Y970389D01*
X901595Y970292D01*
X901336Y970227D01*
X900980Y970195D01*
X900591Y970162D01*
X896996D01*
Y970907D01*
X896964Y970875D01*
X896802Y970810D01*
X896608Y970713D01*
X896316Y970551D01*
X895992Y970422D01*
X895603Y970259D01*
X894762Y970000D01*
X894697D01*
X894567Y969936D01*
X894341Y969903D01*
X894049Y969838D01*
X893693Y969774D01*
X893272Y969741D01*
X892818Y969677D01*
X892041D01*
X891782Y969709D01*
X891491Y969741D01*
X891167Y969774D01*
X890778Y969838D01*
X890357Y969936D01*
X889483Y970162D01*
X888997Y970324D01*
X888544Y970519D01*
X888090Y970745D01*
X887604Y971037D01*
X887183Y971328D01*
X886762Y971684D01*
X886730Y971717D01*
X886665Y971782D01*
X886568Y971879D01*
X886439Y972041D01*
X886277Y972235D01*
X886082Y972494D01*
X885920Y972753D01*
X885726Y973077D01*
X885499Y973401D01*
X885338Y973790D01*
X884981Y974632D01*
X884852Y975117D01*
X884755Y975603D01*
X884690Y976121D01*
X884657Y976672D01*
Y976704D01*
Y976801D01*
Y976963D01*
X884690Y977190D01*
X884722Y977481D01*
X884787Y977773D01*
X884852Y978129D01*
X884949Y978518D01*
X885208Y979360D01*
X885370Y979813D01*
X885597Y980266D01*
X885856Y980720D01*
X886147Y981141D01*
X886471Y981594D01*
X886860Y982015D01*
X886892Y982048D01*
X886957Y982112D01*
X887086Y982210D01*
X887248Y982372D01*
X887475Y982533D01*
X887734Y982728D01*
X888026Y982922D01*
X888382Y983149D01*
X888770Y983343D01*
X889191Y983537D01*
X889645Y983732D01*
X890098Y983894D01*
X890616Y984055D01*
X891167Y984153D01*
X891750Y984218D01*
X892333Y984250D01*
X892527D01*
X892786Y984218D01*
X893077D01*
X893434Y984153D01*
X893822Y984088D01*
X894276Y983991D01*
X894697Y983861D01*
X894762D01*
X894891Y983796D01*
X895118Y983699D01*
X895409Y983602D01*
X895766Y983440D01*
X896154Y983246D01*
X896575Y983019D01*
X896996Y982760D01*
Y986646D01*
X896284D01*
X896089Y986679D01*
X895830Y986711D01*
X895280Y986841D01*
X895053Y986938D01*
X894826Y987067D01*
X894794Y987100D01*
X894762Y987132D01*
X894697Y987229D01*
X894600Y987359D01*
X894438Y987715D01*
X894405Y987942D01*
X894373Y988168D01*
Y988201D01*
Y988298D01*
X894405Y988395D01*
X894438Y988557D01*
X894567Y988913D01*
X894664Y989108D01*
X894826Y989269D01*
X894859Y989302D01*
X894923Y989334D01*
X895053Y989399D01*
X895215Y989496D01*
X895442Y989593D01*
X895733Y989658D01*
X896089Y989690D01*
X896478Y989723D01*
X900073D01*
Y973239D01*
D02*
G37*
G36*
X857227Y984218D02*
X857519Y984185D01*
X857843Y984120D01*
X858199Y984055D01*
X858587Y983991D01*
X859429Y983732D01*
X859883Y983537D01*
X860336Y983343D01*
X860790Y983084D01*
X861243Y982793D01*
X861696Y982469D01*
X862117Y982080D01*
X862150Y982048D01*
X862215Y981983D01*
X862312Y981853D01*
X862474Y981691D01*
X862636Y981497D01*
X862830Y981270D01*
X863024Y980979D01*
X863251Y980655D01*
X863445Y980331D01*
X863640Y979943D01*
X863996Y979101D01*
X864158Y978647D01*
X864255Y978161D01*
X864320Y977676D01*
X864352Y977158D01*
Y977125D01*
Y977028D01*
X864320Y976866D01*
Y976639D01*
X864287Y976380D01*
X864222Y976089D01*
X864125Y975765D01*
X864028Y975376D01*
X863866Y974988D01*
X863704Y974599D01*
X863478Y974178D01*
X863219Y973757D01*
X862927Y973336D01*
X862571Y972915D01*
X862150Y972526D01*
X861696Y972138D01*
X861664Y972105D01*
X861599Y972073D01*
X861470Y971976D01*
X861308Y971879D01*
X861114Y971749D01*
X860854Y971620D01*
X860563Y971458D01*
X860239Y971328D01*
X859883Y971166D01*
X859527Y971004D01*
X858652Y970745D01*
X857713Y970551D01*
X857227Y970519D01*
X856709Y970486D01*
X856515D01*
X856256Y970519D01*
X855964D01*
X855608Y970551D01*
X855219Y970616D01*
X854345Y970810D01*
X854280Y970843D01*
X854151Y970875D01*
X853924Y970972D01*
X853633Y971069D01*
X853309Y971231D01*
X852920Y971425D01*
X852499Y971620D01*
X852078Y971879D01*
Y966794D01*
X854118D01*
X854313Y966762D01*
X854539Y966730D01*
X855090Y966632D01*
X855349Y966503D01*
X855543Y966373D01*
X855576Y966341D01*
X855608Y966309D01*
X855705Y966211D01*
X855802Y966082D01*
X855964Y965726D01*
X855997Y965531D01*
X856029Y965272D01*
Y965240D01*
Y965175D01*
X855997Y965045D01*
X855964Y964884D01*
X855900Y964722D01*
X855835Y964527D01*
X855705Y964333D01*
X855543Y964171D01*
X855511Y964139D01*
X855446Y964106D01*
X855317Y964042D01*
X855155Y963944D01*
X854928Y963847D01*
X854669Y963783D01*
X854313Y963750D01*
X853924Y963718D01*
X848289D01*
X848095Y963750D01*
X847836Y963783D01*
X847285Y963912D01*
X847058Y964009D01*
X846832Y964171D01*
X846799Y964203D01*
X846767Y964236D01*
X846702Y964333D01*
X846605Y964463D01*
X846443Y964819D01*
X846411Y965045D01*
X846378Y965272D01*
Y965305D01*
Y965402D01*
X846411Y965499D01*
X846443Y965661D01*
X846573Y966017D01*
X846670Y966211D01*
X846832Y966373D01*
X846864Y966406D01*
X846929Y966438D01*
X847058Y966503D01*
X847220Y966600D01*
X847447Y966665D01*
X847738Y966730D01*
X848095Y966762D01*
X848483Y966794D01*
X849001D01*
Y980785D01*
X848289D01*
X848095Y980817D01*
X847836Y980849D01*
X847285Y980979D01*
X847058Y981076D01*
X846832Y981206D01*
X846799Y981238D01*
X846767Y981270D01*
X846702Y981368D01*
X846605Y981497D01*
X846443Y981853D01*
X846411Y982080D01*
X846378Y982307D01*
Y982339D01*
Y982436D01*
X846411Y982533D01*
X846443Y982695D01*
X846573Y983052D01*
X846670Y983246D01*
X846832Y983408D01*
X846864Y983440D01*
X846929Y983473D01*
X847058Y983537D01*
X847220Y983634D01*
X847447Y983732D01*
X847738Y983796D01*
X848095Y983829D01*
X848483Y983861D01*
X852078D01*
Y982760D01*
X852143Y982793D01*
X852272Y982890D01*
X852499Y983019D01*
X852758Y983181D01*
X853114Y983343D01*
X853471Y983537D01*
X853892Y983699D01*
X854313Y983861D01*
X854377Y983894D01*
X854507Y983926D01*
X854734Y983991D01*
X855058Y984055D01*
X855414Y984120D01*
X855802Y984185D01*
X856256Y984250D01*
X857033D01*
X857227Y984218D01*
D02*
G37*
G36*
X712758Y988395D02*
X712984Y988363D01*
X713535Y988233D01*
X713794Y988136D01*
X713988Y987974D01*
X714021Y987942D01*
X714053Y987909D01*
X714150Y987812D01*
X714248Y987683D01*
X714409Y987326D01*
X714442Y987132D01*
X714474Y986873D01*
Y986841D01*
Y986776D01*
X714442Y986646D01*
X714409Y986484D01*
X714345Y986322D01*
X714280Y986128D01*
X714150Y985934D01*
X713988Y985772D01*
X713956Y985740D01*
X713891Y985707D01*
X713762Y985642D01*
X713600Y985578D01*
X713373Y985480D01*
X713114Y985416D01*
X712758Y985383D01*
X712369Y985351D01*
X709260D01*
Y973239D01*
X712563D01*
X712758Y973207D01*
X712984Y973174D01*
X713535Y973045D01*
X713794Y972947D01*
X713988Y972786D01*
X714021Y972753D01*
X714053Y972721D01*
X714150Y972624D01*
X714248Y972494D01*
X714409Y972138D01*
X714442Y971944D01*
X714474Y971684D01*
Y971652D01*
Y971587D01*
X714442Y971458D01*
X714409Y971296D01*
X714345Y971134D01*
X714280Y970940D01*
X714150Y970745D01*
X713988Y970583D01*
X713956Y970551D01*
X713891Y970519D01*
X713762Y970454D01*
X713600Y970389D01*
X713373Y970292D01*
X713114Y970227D01*
X712758Y970195D01*
X712369Y970162D01*
X702880D01*
X702686Y970195D01*
X702427Y970227D01*
X701877Y970357D01*
X701650Y970454D01*
X701423Y970583D01*
X701391Y970616D01*
X701358Y970648D01*
X701293Y970745D01*
X701196Y970875D01*
X701034Y971231D01*
X701002Y971458D01*
X700970Y971684D01*
Y971717D01*
Y971814D01*
X701002Y971911D01*
X701034Y972073D01*
X701164Y972429D01*
X701261Y972624D01*
X701423Y972786D01*
X701456Y972818D01*
X701520Y972850D01*
X701650Y972915D01*
X701812Y973012D01*
X702038Y973109D01*
X702330Y973174D01*
X702686Y973207D01*
X703075Y973239D01*
X706184D01*
Y985351D01*
X702880D01*
X702686Y985383D01*
X702427Y985416D01*
X701877Y985545D01*
X701650Y985642D01*
X701423Y985772D01*
X701391Y985804D01*
X701358Y985837D01*
X701293Y985934D01*
X701196Y986063D01*
X701034Y986420D01*
X701002Y986646D01*
X700970Y986873D01*
Y986905D01*
Y987003D01*
X701002Y987100D01*
X701034Y987262D01*
X701164Y987618D01*
X701261Y987812D01*
X701423Y987974D01*
X701456Y988007D01*
X701520Y988039D01*
X701650Y988104D01*
X701812Y988201D01*
X702038Y988298D01*
X702330Y988363D01*
X702686Y988395D01*
X703075Y988428D01*
X712563D01*
X712758Y988395D01*
D02*
G37*
G36*
X778629Y983116D02*
X778661Y983149D01*
X778791Y983214D01*
X778985Y983311D01*
X779212Y983440D01*
X779503Y983570D01*
X779827Y983699D01*
X780540Y983958D01*
X780572D01*
X780702Y983991D01*
X780928Y984055D01*
X781187Y984120D01*
X781479Y984153D01*
X781835Y984218D01*
X782580Y984250D01*
X782839D01*
X783163Y984218D01*
X783519Y984185D01*
X783972Y984120D01*
X784458Y984023D01*
X784944Y983894D01*
X785430Y983699D01*
X785495Y983667D01*
X785657Y983602D01*
X785883Y983473D01*
X786175Y983278D01*
X786498Y983052D01*
X786822Y982760D01*
X787179Y982404D01*
X787502Y981983D01*
X787535Y981918D01*
X787632Y981789D01*
X787762Y981529D01*
X787923Y981173D01*
X788085Y980752D01*
X788215Y980234D01*
X788312Y979684D01*
X788344Y979036D01*
Y973239D01*
X788733D01*
X788960Y973207D01*
X789445Y973109D01*
X789640Y973045D01*
X789802Y972947D01*
X789834Y972915D01*
X789899Y972850D01*
X789996Y972721D01*
X790126Y972559D01*
X790352Y972170D01*
X790417Y971944D01*
X790449Y971684D01*
Y971652D01*
Y971587D01*
X790417Y971458D01*
X790385Y971296D01*
X790320Y971134D01*
X790255Y970940D01*
X790126Y970745D01*
X789964Y970583D01*
X789931Y970551D01*
X789866Y970519D01*
X789737Y970454D01*
X789575Y970389D01*
X789348Y970292D01*
X789089Y970227D01*
X788733Y970195D01*
X788344Y970162D01*
X785073D01*
X784879Y970195D01*
X784620Y970227D01*
X784070Y970357D01*
X783843Y970454D01*
X783616Y970583D01*
X783584Y970616D01*
X783551Y970648D01*
X783487Y970745D01*
X783390Y970875D01*
X783228Y971231D01*
X783195Y971458D01*
X783163Y971684D01*
Y971717D01*
Y971814D01*
X783195Y971944D01*
X783228Y972105D01*
X783325Y972300D01*
X783422Y972494D01*
X783584Y972721D01*
X783778Y972947D01*
X783811D01*
X783843Y972980D01*
X783940Y973045D01*
X784102Y973109D01*
X784296Y973142D01*
X784555Y973207D01*
X784879Y973239D01*
X785268D01*
Y978842D01*
Y978906D01*
Y979036D01*
X785236Y979230D01*
X785203Y979489D01*
X785138Y979781D01*
X785041Y980040D01*
X784912Y980299D01*
X784717Y980493D01*
X784685Y980526D01*
X784588Y980590D01*
X784426Y980720D01*
X784199Y980849D01*
X783875Y980947D01*
X783519Y981076D01*
X783098Y981141D01*
X782580Y981173D01*
X782418D01*
X782224Y981141D01*
X781965Y981108D01*
X781705Y981076D01*
X781382Y981011D01*
X781090Y980882D01*
X780766Y980752D01*
X780734Y980720D01*
X780604Y980687D01*
X780443Y980558D01*
X780183Y980396D01*
X779892Y980169D01*
X779536Y979878D01*
X779115Y979489D01*
X778629Y979036D01*
Y973239D01*
X779017D01*
X779244Y973207D01*
X779730Y973109D01*
X779924Y973045D01*
X780086Y972947D01*
X780119Y972915D01*
X780183Y972850D01*
X780281Y972721D01*
X780410Y972559D01*
X780637Y972170D01*
X780702Y971944D01*
X780734Y971684D01*
Y971652D01*
Y971587D01*
X780702Y971458D01*
X780669Y971296D01*
X780604Y971134D01*
X780540Y970940D01*
X780410Y970745D01*
X780248Y970583D01*
X780216Y970551D01*
X780151Y970519D01*
X780022Y970454D01*
X779860Y970389D01*
X779633Y970292D01*
X779374Y970227D01*
X779017Y970195D01*
X778629Y970162D01*
X775358D01*
X775164Y970195D01*
X774905Y970227D01*
X774354Y970357D01*
X774127Y970454D01*
X773901Y970583D01*
X773868Y970616D01*
X773836Y970648D01*
X773771Y970745D01*
X773674Y970875D01*
X773512Y971231D01*
X773480Y971458D01*
X773447Y971684D01*
Y971717D01*
Y971814D01*
X773480Y971944D01*
X773512Y972105D01*
X773609Y972300D01*
X773706Y972494D01*
X773868Y972721D01*
X774063Y972947D01*
X774095D01*
X774127Y972980D01*
X774225Y973045D01*
X774387Y973109D01*
X774581Y973142D01*
X774840Y973207D01*
X775164Y973239D01*
X775552D01*
Y986646D01*
X774840D01*
X774646Y986679D01*
X774387Y986711D01*
X773836Y986841D01*
X773609Y986938D01*
X773383Y987067D01*
X773350Y987100D01*
X773318Y987132D01*
X773253Y987229D01*
X773156Y987359D01*
X772994Y987715D01*
X772962Y987942D01*
X772929Y988168D01*
Y988201D01*
Y988298D01*
X772962Y988395D01*
X772994Y988557D01*
X773123Y988913D01*
X773221Y989108D01*
X773383Y989269D01*
X773415Y989302D01*
X773480Y989334D01*
X773609Y989399D01*
X773771Y989496D01*
X773998Y989593D01*
X774289Y989658D01*
X774646Y989690D01*
X775034Y989723D01*
X778629D01*
Y983116D01*
D02*
G37*
G36*
X192067Y955396D02*
X196788D01*
X197066Y955350D01*
X197390Y955304D01*
X198176Y955119D01*
X198547Y954980D01*
X198824Y954749D01*
X198870Y954702D01*
X198917Y954656D01*
X199056Y954517D01*
X199194Y954332D01*
X199426Y953823D01*
X199472Y953545D01*
X199518Y953175D01*
Y953129D01*
Y953036D01*
X199472Y952851D01*
X199426Y952620D01*
X199333Y952388D01*
X199241Y952111D01*
X199056Y951833D01*
X198824Y951602D01*
X198778Y951555D01*
X198685Y951509D01*
X198500Y951416D01*
X198269Y951324D01*
X197945Y951185D01*
X197575Y951093D01*
X197066Y951046D01*
X196510Y951000D01*
X182950D01*
X182673Y951046D01*
X182303Y951093D01*
X181516Y951278D01*
X181192Y951416D01*
X180868Y951602D01*
X180822Y951648D01*
X180775Y951694D01*
X180683Y951833D01*
X180544Y952018D01*
X180313Y952527D01*
X180266Y952851D01*
X180220Y953175D01*
Y953221D01*
Y953360D01*
X180266Y953499D01*
X180313Y953730D01*
X180498Y954240D01*
X180637Y954517D01*
X180868Y954749D01*
X180914Y954795D01*
X181007Y954841D01*
X181192Y954934D01*
X181423Y955072D01*
X181747Y955211D01*
X182164Y955304D01*
X182673Y955350D01*
X183228Y955396D01*
X187671D01*
Y973816D01*
X183691Y972797D01*
X183645D01*
X183552Y972751D01*
X183367Y972705D01*
X183182D01*
X182719Y972612D01*
X182256Y972566D01*
X182118D01*
X181979Y972612D01*
X181747Y972658D01*
X181285Y972844D01*
X181053Y972982D01*
X180822Y973214D01*
X180775Y973260D01*
X180729Y973353D01*
X180637Y973492D01*
X180544Y973677D01*
X180313Y974186D01*
X180266Y974463D01*
X180220Y974834D01*
Y974880D01*
Y974972D01*
X180266Y975157D01*
Y975343D01*
X180405Y975805D01*
X180637Y976222D01*
X180683Y976268D01*
X180729Y976314D01*
X180868Y976407D01*
X181053Y976546D01*
X181285Y976685D01*
X181655Y976824D01*
X182025Y977009D01*
X182534Y977148D01*
X192067Y979600D01*
Y955396D01*
D02*
G37*
G36*
X243622Y979554D02*
X244270Y979462D01*
X244964Y979323D01*
X245705Y979091D01*
X246445Y978814D01*
X247185Y978397D01*
X247278Y978351D01*
X247509Y978166D01*
X247880Y977888D01*
X248342Y977425D01*
X248852Y976824D01*
X249453Y976083D01*
X250055Y975204D01*
X250379Y974649D01*
X250703Y974093D01*
Y974047D01*
X250795Y973954D01*
X250842Y973769D01*
X250980Y973538D01*
X251119Y973260D01*
X251258Y972890D01*
X251397Y972520D01*
X251582Y972057D01*
X251860Y971085D01*
X252137Y969928D01*
X252322Y968679D01*
X252415Y967383D01*
Y962523D01*
Y962477D01*
Y962338D01*
Y962107D01*
X252369Y961783D01*
X252322Y961413D01*
X252276Y960950D01*
X252230Y960441D01*
X252091Y959885D01*
X251813Y958636D01*
X251351Y957248D01*
X251073Y956507D01*
X250749Y955767D01*
X250379Y955026D01*
X249916Y954286D01*
X249870Y954240D01*
X249823Y954101D01*
X249638Y953916D01*
X249453Y953684D01*
X249175Y953360D01*
X248898Y953036D01*
X248528Y952666D01*
X248065Y952342D01*
X247602Y951972D01*
X247047Y951602D01*
X246491Y951278D01*
X245843Y950954D01*
X245149Y950722D01*
X244409Y950537D01*
X243576Y950398D01*
X242743Y950352D01*
X242326D01*
X241817Y950398D01*
X241215Y950491D01*
X240475Y950630D01*
X239735Y950861D01*
X238994Y951139D01*
X238254Y951509D01*
X238161Y951555D01*
X237930Y951740D01*
X237560Y952064D01*
X237143Y952481D01*
X236588Y953083D01*
X235986Y953823D01*
X235384Y954749D01*
X235060Y955258D01*
X234736Y955813D01*
Y955859D01*
X234690Y955952D01*
X234598Y956137D01*
X234505Y956368D01*
X234366Y956646D01*
X234227Y957016D01*
X234089Y957386D01*
X233950Y957849D01*
X233626Y958867D01*
X233394Y959978D01*
X233209Y961228D01*
X233117Y962523D01*
Y967383D01*
Y967429D01*
Y967568D01*
Y967799D01*
X233163Y968123D01*
X233209Y968493D01*
X233256Y968956D01*
X233302Y969465D01*
X233441Y970021D01*
X233718Y971270D01*
X234135Y972658D01*
X234412Y973399D01*
X234783Y974139D01*
X235153Y974880D01*
X235569Y975620D01*
X235616Y975667D01*
X235708Y975805D01*
X235847Y975991D01*
X236032Y976222D01*
X236310Y976546D01*
X236588Y976870D01*
X236958Y977240D01*
X237421Y977610D01*
X237883Y977980D01*
X238393Y978351D01*
X238994Y978675D01*
X239642Y978999D01*
X240336Y979230D01*
X241077Y979415D01*
X241863Y979554D01*
X242696Y979600D01*
X243159D01*
X243622Y979554D01*
D02*
G37*
G36*
X270093D02*
X270741Y979462D01*
X271436Y979323D01*
X272176Y979091D01*
X272917Y978814D01*
X273657Y978397D01*
X273750Y978351D01*
X273981Y978166D01*
X274351Y977888D01*
X274814Y977425D01*
X275323Y976824D01*
X275925Y976083D01*
X276526Y975204D01*
X276850Y974649D01*
X277174Y974093D01*
Y974047D01*
X277267Y973954D01*
X277313Y973769D01*
X277452Y973538D01*
X277591Y973260D01*
X277729Y972890D01*
X277868Y972520D01*
X278053Y972057D01*
X278331Y971085D01*
X278609Y969928D01*
X278794Y968679D01*
X278887Y967383D01*
Y962523D01*
Y962477D01*
Y962338D01*
Y962107D01*
X278840Y961783D01*
X278794Y961413D01*
X278748Y960950D01*
X278701Y960441D01*
X278563Y959885D01*
X278285Y958636D01*
X277822Y957248D01*
X277544Y956507D01*
X277220Y955767D01*
X276850Y955026D01*
X276387Y954286D01*
X276341Y954240D01*
X276295Y954101D01*
X276110Y953916D01*
X275925Y953684D01*
X275647Y953360D01*
X275369Y953036D01*
X274999Y952666D01*
X274536Y952342D01*
X274074Y951972D01*
X273518Y951602D01*
X272963Y951278D01*
X272315Y950954D01*
X271621Y950722D01*
X270880Y950537D01*
X270047Y950398D01*
X269214Y950352D01*
X268798D01*
X268289Y950398D01*
X267687Y950491D01*
X266947Y950630D01*
X266206Y950861D01*
X265466Y951139D01*
X264725Y951509D01*
X264633Y951555D01*
X264401Y951740D01*
X264031Y952064D01*
X263615Y952481D01*
X263059Y953083D01*
X262458Y953823D01*
X261856Y954749D01*
X261532Y955258D01*
X261208Y955813D01*
Y955859D01*
X261162Y955952D01*
X261069Y956137D01*
X260977Y956368D01*
X260838Y956646D01*
X260699Y957016D01*
X260560Y957386D01*
X260421Y957849D01*
X260097Y958867D01*
X259866Y959978D01*
X259681Y961228D01*
X259588Y962523D01*
Y967383D01*
Y967429D01*
Y967568D01*
Y967799D01*
X259634Y968123D01*
X259681Y968493D01*
X259727Y968956D01*
X259773Y969465D01*
X259912Y970021D01*
X260190Y971270D01*
X260606Y972658D01*
X260884Y973399D01*
X261254Y974139D01*
X261625Y974880D01*
X262041Y975620D01*
X262087Y975667D01*
X262180Y975805D01*
X262319Y975991D01*
X262504Y976222D01*
X262781Y976546D01*
X263059Y976870D01*
X263429Y977240D01*
X263892Y977610D01*
X264355Y977980D01*
X264864Y978351D01*
X265466Y978675D01*
X266113Y978999D01*
X266808Y979230D01*
X267548Y979415D01*
X268335Y979554D01*
X269168Y979600D01*
X269631D01*
X270093Y979554D01*
D02*
G37*
%LPC*%
G36*
X872594Y951515D02*
X872400D01*
X872270Y951483D01*
X871914Y951450D01*
X871460Y951353D01*
X870942Y951191D01*
X870424Y950965D01*
X869841Y950641D01*
X869323Y950187D01*
X869258Y950123D01*
X869129Y949961D01*
X868902Y949669D01*
X868675Y949280D01*
X868416Y948827D01*
X868190Y948277D01*
X868060Y947661D01*
X867995Y946981D01*
Y946949D01*
Y946916D01*
Y946819D01*
X868028Y946690D01*
X868060Y946366D01*
X868157Y945977D01*
X868287Y945556D01*
X868513Y945070D01*
X868805Y944617D01*
X869194Y944164D01*
X869258Y944131D01*
X869420Y944002D01*
X869679Y943840D01*
X870068Y943645D01*
X870554Y943419D01*
X871137Y943257D01*
X871817Y943127D01*
X872594Y943095D01*
X872821D01*
X872950Y943127D01*
X873145D01*
X873371Y943160D01*
X873857Y943224D01*
X874408Y943354D01*
X874958Y943548D01*
X875541Y943808D01*
X876027Y944164D01*
X876092Y944229D01*
X876221Y944358D01*
X876415Y944585D01*
X876642Y944909D01*
X876869Y945330D01*
X877063Y945783D01*
X877193Y946333D01*
X877258Y946916D01*
Y946949D01*
Y947014D01*
Y947111D01*
X877225Y947240D01*
X877193Y947597D01*
X877095Y948050D01*
X876934Y948568D01*
X876674Y949119D01*
X876351Y949669D01*
X875897Y950187D01*
X875833Y950252D01*
X875671Y950382D01*
X875379Y950608D01*
X874990Y950867D01*
X874505Y951094D01*
X873922Y951321D01*
X873307Y951450D01*
X872594Y951515D01*
D02*
G37*
G36*
X689214Y984347D02*
X686720Y978226D01*
X691708D01*
X689214Y984347D01*
D02*
G37*
G36*
X874456Y981173D02*
X874262D01*
X874100Y981141D01*
X873938D01*
X873711Y981108D01*
X873225Y981011D01*
X872675Y980849D01*
X872092Y980590D01*
X871509Y980266D01*
X870959Y979813D01*
X870894Y979748D01*
X870732Y979586D01*
X870505Y979295D01*
X870278Y978939D01*
X870019Y978485D01*
X869793Y977935D01*
X869631Y977352D01*
X869598Y977028D01*
X869566Y976704D01*
Y976639D01*
X869598Y976445D01*
X869631Y976186D01*
X869728Y975830D01*
X869922Y975409D01*
X870149Y974955D01*
X870505Y974470D01*
X870699Y974211D01*
X870959Y973984D01*
X870991D01*
X871023Y973919D01*
X871218Y973790D01*
X871509Y973595D01*
X871930Y973369D01*
X872448Y973142D01*
X873031Y972947D01*
X873711Y972818D01*
X874456Y972753D01*
X874650D01*
X874812Y972786D01*
X874974D01*
X875201Y972818D01*
X875687Y972915D01*
X876237Y973045D01*
X876820Y973271D01*
X877436Y973563D01*
X877986Y973984D01*
X878018D01*
X878051Y974049D01*
X878213Y974211D01*
X878439Y974470D01*
X878699Y974793D01*
X878958Y975214D01*
X879184Y975668D01*
X879346Y976186D01*
X879411Y976445D01*
Y976737D01*
Y976769D01*
Y976801D01*
Y976996D01*
X879346Y977287D01*
X879281Y977643D01*
X879152Y978064D01*
X878958Y978518D01*
X878666Y979004D01*
X878310Y979457D01*
Y979489D01*
X878245Y979522D01*
X878148Y979619D01*
X878051Y979716D01*
X877727Y980007D01*
X877274Y980331D01*
X876723Y980623D01*
X876075Y980914D01*
X875298Y981108D01*
X874910Y981141D01*
X874456Y981173D01*
D02*
G37*
G36*
X800100D02*
X799841D01*
X799550Y981141D01*
X799193Y981076D01*
X798740Y981011D01*
X798287Y980882D01*
X797833Y980720D01*
X797380Y980493D01*
X797315Y980461D01*
X797186Y980364D01*
X796991Y980234D01*
X796732Y980007D01*
X796441Y979716D01*
X796117Y979392D01*
X795825Y978971D01*
X795534Y978518D01*
X804699D01*
X804667Y978583D01*
X804569Y978744D01*
X804407Y978971D01*
X804213Y979263D01*
X803922Y979586D01*
X803598Y979910D01*
X803242Y980234D01*
X802821Y980493D01*
X802756Y980526D01*
X802626Y980590D01*
X802367Y980720D01*
X802043Y980849D01*
X801655Y980947D01*
X801201Y981076D01*
X800683Y981141D01*
X800100Y981173D01*
D02*
G37*
G36*
X817669Y951515D02*
X817475D01*
X817313Y951483D01*
X817151D01*
X816924Y951450D01*
X816438Y951353D01*
X815888Y951191D01*
X815305Y950932D01*
X814722Y950608D01*
X814172Y950155D01*
X814107Y950090D01*
X813945Y949928D01*
X813718Y949637D01*
X813491Y949280D01*
X813232Y948827D01*
X813006Y948277D01*
X812844Y947694D01*
X812811Y947370D01*
X812779Y947046D01*
Y946981D01*
X812811Y946787D01*
X812844Y946528D01*
X812941Y946172D01*
X813135Y945751D01*
X813362Y945297D01*
X813718Y944811D01*
X813912Y944552D01*
X814172Y944326D01*
X814204D01*
X814236Y944261D01*
X814431Y944131D01*
X814722Y943937D01*
X815143Y943710D01*
X815661Y943484D01*
X816244Y943289D01*
X816924Y943160D01*
X817669Y943095D01*
X817863D01*
X818025Y943127D01*
X818187D01*
X818414Y943160D01*
X818900Y943257D01*
X819450Y943387D01*
X820033Y943613D01*
X820648Y943905D01*
X821199Y944326D01*
X821231D01*
X821264Y944390D01*
X821426Y944552D01*
X821652Y944811D01*
X821911Y945135D01*
X822171Y945556D01*
X822397Y946010D01*
X822559Y946528D01*
X822624Y946787D01*
Y947078D01*
Y947111D01*
Y947143D01*
Y947337D01*
X822559Y947629D01*
X822494Y947985D01*
X822365Y948406D01*
X822171Y948859D01*
X821879Y949345D01*
X821523Y949799D01*
Y949831D01*
X821458Y949864D01*
X821361Y949961D01*
X821264Y950058D01*
X820940Y950349D01*
X820487Y950673D01*
X819936Y950965D01*
X819288Y951256D01*
X818511Y951450D01*
X818122Y951483D01*
X817669Y951515D01*
D02*
G37*
G36*
X708272Y955693D02*
X704710D01*
Y949831D01*
X707884D01*
X708272Y949896D01*
X708726Y949961D01*
X709244Y950058D01*
X709795Y950220D01*
X710313Y950446D01*
X710799Y950738D01*
X710863Y950770D01*
X710993Y950900D01*
X711187Y951094D01*
X711414Y951353D01*
X711608Y951677D01*
X711803Y952066D01*
X711932Y952487D01*
X711997Y952940D01*
Y953005D01*
Y953134D01*
X711932Y953329D01*
X711867Y953588D01*
X711770Y953879D01*
X711576Y954203D01*
X711349Y954527D01*
X711025Y954851D01*
X710993Y954883D01*
X710831Y954980D01*
X710637Y955110D01*
X710313Y955272D01*
X709924Y955434D01*
X709471Y955563D01*
X708888Y955660D01*
X708272Y955693D01*
D02*
G37*
G36*
X799955D02*
X795906D01*
Y951159D01*
X799631D01*
X799955Y951224D01*
X800376Y951288D01*
X800861Y951385D01*
X801379Y951547D01*
X801865Y951774D01*
X802351Y952066D01*
X802383Y952098D01*
X802480Y952163D01*
X802610Y952325D01*
X802772Y952487D01*
X802934Y952713D01*
X803063Y952972D01*
X803161Y953296D01*
X803193Y953620D01*
Y953652D01*
Y953750D01*
X803161Y953912D01*
X803096Y954106D01*
X802999Y954333D01*
X802869Y954559D01*
X802675Y954818D01*
X802416Y955045D01*
X802383Y955077D01*
X802254Y955142D01*
X802092Y955239D01*
X801833Y955369D01*
X801477Y955498D01*
X801056Y955596D01*
X800537Y955660D01*
X799955Y955693D01*
D02*
G37*
G36*
X799987Y948082D02*
X795906D01*
Y943581D01*
X801541D01*
X801898Y943613D01*
X802286Y943645D01*
X802740Y943710D01*
X803161Y943808D01*
X803582Y943937D01*
X803905Y944131D01*
X803938Y944164D01*
X804003Y944196D01*
X804100Y944293D01*
X804229Y944455D01*
X804326Y944617D01*
X804424Y944811D01*
X804488Y945070D01*
X804521Y945330D01*
Y945362D01*
X804488Y945491D01*
X804456Y945686D01*
X804391Y945912D01*
X804229Y946204D01*
X804035Y946495D01*
X803744Y946852D01*
X803355Y947176D01*
X803290Y947208D01*
X803128Y947305D01*
X802869Y947467D01*
X802513Y947629D01*
X802027Y947791D01*
X801444Y947953D01*
X800764Y948050D01*
X799987Y948082D01*
D02*
G37*
G36*
X725048Y951515D02*
X724854D01*
X724692Y951483D01*
X724530D01*
X724303Y951450D01*
X723817Y951353D01*
X723267Y951191D01*
X722684Y950932D01*
X722101Y950608D01*
X721550Y950155D01*
X721486Y950090D01*
X721324Y949928D01*
X721097Y949637D01*
X720870Y949280D01*
X720611Y948827D01*
X720385Y948277D01*
X720223Y947694D01*
X720190Y947370D01*
X720158Y947046D01*
Y946981D01*
X720190Y946787D01*
X720223Y946528D01*
X720320Y946172D01*
X720514Y945751D01*
X720741Y945297D01*
X721097Y944811D01*
X721291Y944552D01*
X721550Y944326D01*
X721583D01*
X721615Y944261D01*
X721809Y944131D01*
X722101Y943937D01*
X722522Y943710D01*
X723040Y943484D01*
X723623Y943289D01*
X724303Y943160D01*
X725048Y943095D01*
X725242D01*
X725404Y943127D01*
X725566D01*
X725793Y943160D01*
X726279Y943257D01*
X726829Y943387D01*
X727412Y943613D01*
X728027Y943905D01*
X728578Y944326D01*
X728610D01*
X728643Y944390D01*
X728805Y944552D01*
X729031Y944811D01*
X729290Y945135D01*
X729549Y945556D01*
X729776Y946010D01*
X729938Y946528D01*
X730003Y946787D01*
Y947078D01*
Y947111D01*
Y947143D01*
Y947337D01*
X729938Y947629D01*
X729873Y947985D01*
X729744Y948406D01*
X729549Y948859D01*
X729258Y949345D01*
X728902Y949799D01*
Y949831D01*
X728837Y949864D01*
X728740Y949961D01*
X728643Y950058D01*
X728319Y950349D01*
X727865Y950673D01*
X727315Y950965D01*
X726667Y951256D01*
X725890Y951450D01*
X725501Y951483D01*
X725048Y951515D01*
D02*
G37*
G36*
X836128Y946398D02*
X835222D01*
X834865Y946366D01*
X834445Y946269D01*
X833926Y946172D01*
X833376Y946010D01*
X832825Y945783D01*
X832307Y945459D01*
X832275Y945427D01*
X832178Y945362D01*
X832048Y945232D01*
X831886Y945103D01*
X831724Y944909D01*
X831595Y944714D01*
X831497Y944520D01*
X831465Y944293D01*
Y944261D01*
Y944229D01*
X831530Y944034D01*
X831627Y943808D01*
X831724Y943678D01*
X831854Y943581D01*
X831886Y943548D01*
X831983Y943516D01*
X832145Y943419D01*
X832404Y943354D01*
X832696Y943257D01*
X833052Y943160D01*
X833473Y943127D01*
X833926Y943095D01*
X834121D01*
X834347Y943127D01*
X834639Y943160D01*
X835027Y943192D01*
X835448Y943289D01*
X835902Y943387D01*
X836420Y943516D01*
X836452D01*
X836485Y943548D01*
X836647Y943581D01*
X836938Y943678D01*
X837262Y943840D01*
X837683Y944002D01*
X838104Y944196D01*
X838557Y944455D01*
X838978Y944714D01*
Y946010D01*
X838946D01*
X838881Y946042D01*
X838784D01*
X838654Y946074D01*
X838298Y946139D01*
X837845Y946204D01*
X837327Y946269D01*
X836744Y946333D01*
X836128Y946398D01*
D02*
G37*
G36*
X761837Y951515D02*
X761578D01*
X761287Y951483D01*
X760930Y951418D01*
X760477Y951353D01*
X760024Y951224D01*
X759570Y951062D01*
X759117Y950835D01*
X759052Y950803D01*
X758923Y950705D01*
X758728Y950576D01*
X758469Y950349D01*
X758178Y950058D01*
X757854Y949734D01*
X757562Y949313D01*
X757271Y948859D01*
X766436D01*
X766404Y948924D01*
X766306Y949086D01*
X766144Y949313D01*
X765950Y949604D01*
X765659Y949928D01*
X765335Y950252D01*
X764979Y950576D01*
X764558Y950835D01*
X764493Y950867D01*
X764363Y950932D01*
X764104Y951062D01*
X763780Y951191D01*
X763392Y951288D01*
X762938Y951418D01*
X762420Y951483D01*
X761837Y951515D01*
D02*
G37*
G36*
X837343Y976056D02*
X836436D01*
X836080Y976024D01*
X835659Y975927D01*
X835141Y975830D01*
X834590Y975668D01*
X834040Y975441D01*
X833521Y975117D01*
X833489Y975085D01*
X833392Y975020D01*
X833262Y974891D01*
X833101Y974761D01*
X832939Y974567D01*
X832809Y974372D01*
X832712Y974178D01*
X832680Y973951D01*
Y973919D01*
Y973887D01*
X832744Y973692D01*
X832841Y973466D01*
X832939Y973336D01*
X833068Y973239D01*
X833101Y973207D01*
X833198Y973174D01*
X833360Y973077D01*
X833619Y973012D01*
X833910Y972915D01*
X834266Y972818D01*
X834687Y972786D01*
X835141Y972753D01*
X835335D01*
X835562Y972786D01*
X835853Y972818D01*
X836242Y972850D01*
X836663Y972947D01*
X837116Y973045D01*
X837634Y973174D01*
X837667D01*
X837699Y973207D01*
X837861Y973239D01*
X838153Y973336D01*
X838476Y973498D01*
X838897Y973660D01*
X839318Y973854D01*
X839772Y974113D01*
X840193Y974372D01*
Y975668D01*
X840160D01*
X840096Y975700D01*
X839998D01*
X839869Y975733D01*
X839513Y975797D01*
X839059Y975862D01*
X838541Y975927D01*
X837958Y975992D01*
X837343Y976056D01*
D02*
G37*
G36*
X892333Y981173D02*
X892138D01*
X892009Y981141D01*
X891653Y981108D01*
X891199Y981011D01*
X890681Y980849D01*
X890163Y980623D01*
X889580Y980299D01*
X889062Y979846D01*
X888997Y979781D01*
X888867Y979619D01*
X888641Y979327D01*
X888414Y978939D01*
X888155Y978485D01*
X887928Y977935D01*
X887799Y977319D01*
X887734Y976639D01*
Y976607D01*
Y976575D01*
Y976477D01*
X887766Y976348D01*
X887799Y976024D01*
X887896Y975635D01*
X888026Y975214D01*
X888252Y974729D01*
X888544Y974275D01*
X888932Y973822D01*
X888997Y973790D01*
X889159Y973660D01*
X889418Y973498D01*
X889807Y973304D01*
X890292Y973077D01*
X890875Y972915D01*
X891555Y972786D01*
X892333Y972753D01*
X892559D01*
X892689Y972786D01*
X892883D01*
X893110Y972818D01*
X893596Y972883D01*
X894146Y973012D01*
X894697Y973207D01*
X895280Y973466D01*
X895766Y973822D01*
X895830Y973887D01*
X895960Y974016D01*
X896154Y974243D01*
X896381Y974567D01*
X896608Y974988D01*
X896802Y975441D01*
X896931Y975992D01*
X896996Y976575D01*
Y976607D01*
Y976672D01*
Y976769D01*
X896964Y976898D01*
X896931Y977255D01*
X896834Y977708D01*
X896672Y978226D01*
X896413Y978777D01*
X896089Y979327D01*
X895636Y979846D01*
X895571Y979910D01*
X895409Y980040D01*
X895118Y980266D01*
X894729Y980526D01*
X894243Y980752D01*
X893660Y980979D01*
X893045Y981108D01*
X892333Y981173D01*
D02*
G37*
G36*
X856677D02*
X856450D01*
X856288Y981141D01*
X856094Y981108D01*
X855867Y981076D01*
X855349Y980947D01*
X854766Y980752D01*
X854151Y980428D01*
X853827Y980234D01*
X853535Y980007D01*
X853244Y979748D01*
X852985Y979425D01*
X852952Y979360D01*
X852855Y979230D01*
X852693Y979004D01*
X852532Y978680D01*
X852370Y978323D01*
X852208Y977935D01*
X852111Y977546D01*
X852078Y977125D01*
Y977060D01*
X852111Y976931D01*
X852143Y976672D01*
X852240Y976380D01*
X852402Y975992D01*
X852629Y975603D01*
X852952Y975182D01*
X853373Y974729D01*
X853438Y974664D01*
X853600Y974534D01*
X853892Y974372D01*
X854280Y974146D01*
X854766Y973919D01*
X855317Y973757D01*
X855964Y973628D01*
X856677Y973563D01*
X856871D01*
X857001Y973595D01*
X857357Y973628D01*
X857810Y973692D01*
X858328Y973854D01*
X858879Y974049D01*
X859429Y974308D01*
X859948Y974696D01*
X860012Y974761D01*
X860142Y974891D01*
X860369Y975150D01*
X860628Y975441D01*
X860854Y975797D01*
X861081Y976218D01*
X861211Y976672D01*
X861275Y977158D01*
Y977190D01*
Y977287D01*
X861243Y977417D01*
X861211Y977611D01*
X861146Y977838D01*
X861049Y978129D01*
X860919Y978453D01*
X860757Y978809D01*
X860725Y978842D01*
X860660Y978971D01*
X860531Y979165D01*
X860369Y979392D01*
X860142Y979651D01*
X859883Y979943D01*
X859559Y980234D01*
X859170Y980493D01*
X859138Y980526D01*
X858976Y980590D01*
X858749Y980720D01*
X858458Y980849D01*
X858102Y980947D01*
X857681Y981076D01*
X857195Y981141D01*
X856677Y981173D01*
D02*
G37*
G36*
X242743Y975204D02*
X242650D01*
X242419Y975157D01*
X242048Y975111D01*
X241586Y975019D01*
X241030Y974787D01*
X240475Y974510D01*
X239920Y974093D01*
X239411Y973538D01*
Y973492D01*
X239318Y973445D01*
X239226Y973306D01*
X239133Y973075D01*
X238994Y972844D01*
X238809Y972566D01*
X238624Y972196D01*
X238485Y971825D01*
X238115Y970946D01*
X237791Y969882D01*
X237606Y968679D01*
X237513Y967383D01*
Y962523D01*
Y962477D01*
Y962385D01*
Y962153D01*
X237560Y961922D01*
Y961598D01*
X237606Y961228D01*
X237791Y960395D01*
X238022Y959423D01*
X238393Y958358D01*
X238902Y957294D01*
X239179Y956739D01*
X239550Y956229D01*
X239596Y956183D01*
X239781Y955998D01*
X240012Y955767D01*
X240382Y955489D01*
X240845Y955211D01*
X241401Y954980D01*
X242048Y954795D01*
X242789Y954749D01*
X242882D01*
X243113Y954795D01*
X243483Y954841D01*
X243946Y954934D01*
X244455Y955165D01*
X245010Y955443D01*
X245566Y955813D01*
X246075Y956368D01*
X246121Y956415D01*
X246167Y956507D01*
X246260Y956646D01*
X246399Y956831D01*
X246538Y957063D01*
X246676Y957340D01*
X246861Y957710D01*
X247047Y958081D01*
X247417Y958960D01*
X247695Y960024D01*
X247926Y961228D01*
X248018Y962523D01*
Y967383D01*
Y967429D01*
Y967522D01*
Y967753D01*
X247972Y967984D01*
Y968308D01*
X247926Y968679D01*
X247787Y969511D01*
X247509Y970530D01*
X247139Y971548D01*
X246676Y972658D01*
X246353Y973167D01*
X245982Y973677D01*
X245936Y973723D01*
X245751Y973908D01*
X245519Y974139D01*
X245149Y974463D01*
X244686Y974741D01*
X244131Y974972D01*
X243483Y975157D01*
X242743Y975204D01*
D02*
G37*
G36*
X269214D02*
X269122D01*
X268890Y975157D01*
X268520Y975111D01*
X268057Y975019D01*
X267502Y974787D01*
X266947Y974510D01*
X266391Y974093D01*
X265882Y973538D01*
Y973492D01*
X265790Y973445D01*
X265697Y973306D01*
X265604Y973075D01*
X265466Y972844D01*
X265280Y972566D01*
X265095Y972196D01*
X264956Y971825D01*
X264586Y970946D01*
X264262Y969882D01*
X264077Y968679D01*
X263985Y967383D01*
Y962523D01*
Y962477D01*
Y962385D01*
Y962153D01*
X264031Y961922D01*
Y961598D01*
X264077Y961228D01*
X264262Y960395D01*
X264494Y959423D01*
X264864Y958358D01*
X265373Y957294D01*
X265651Y956739D01*
X266021Y956229D01*
X266067Y956183D01*
X266252Y955998D01*
X266484Y955767D01*
X266854Y955489D01*
X267317Y955211D01*
X267872Y954980D01*
X268520Y954795D01*
X269261Y954749D01*
X269353D01*
X269584Y954795D01*
X269955Y954841D01*
X270417Y954934D01*
X270926Y955165D01*
X271482Y955443D01*
X272037Y955813D01*
X272546Y956368D01*
X272593Y956415D01*
X272639Y956507D01*
X272731Y956646D01*
X272870Y956831D01*
X273009Y957063D01*
X273148Y957340D01*
X273333Y957710D01*
X273518Y958081D01*
X273888Y958960D01*
X274166Y960024D01*
X274397Y961228D01*
X274490Y962523D01*
Y967383D01*
Y967429D01*
Y967522D01*
Y967753D01*
X274444Y967984D01*
Y968308D01*
X274397Y968679D01*
X274259Y969511D01*
X273981Y970530D01*
X273611Y971548D01*
X273148Y972658D01*
X272824Y973167D01*
X272454Y973677D01*
X272407Y973723D01*
X272222Y973908D01*
X271991Y974139D01*
X271621Y974463D01*
X271158Y974741D01*
X270603Y974972D01*
X269955Y975157D01*
X269214Y975204D01*
D02*
G37*
%LPD*%
D10*
X896500Y15000D02*
D03*
X877500D02*
D03*
X887000Y45000D02*
D03*
D41*
X336000Y690000D02*
D03*
X314000D02*
D03*
X664000Y890000D02*
D03*
X686000D02*
D03*
X336000Y405000D02*
D03*
X314000D02*
D03*
X664000Y605000D02*
D03*
X686000D02*
D03*
X336000Y115000D02*
D03*
X314000D02*
D03*
X664000Y315000D02*
D03*
X686000D02*
D03*
D42*
X414500Y885000D02*
D03*
X477500D02*
D03*
X585500Y695000D02*
D03*
X522500D02*
D03*
X414500Y600000D02*
D03*
X477500D02*
D03*
X585500Y410000D02*
D03*
X522500D02*
D03*
X414500Y310000D02*
D03*
X477500D02*
D03*
X585500Y120000D02*
D03*
X522500D02*
D03*
D43*
X140000Y882000D02*
D03*
Y796000D02*
D03*
X860000Y698000D02*
D03*
Y784000D02*
D03*
X140000Y597000D02*
D03*
Y511000D02*
D03*
X860000Y413000D02*
D03*
Y499000D02*
D03*
X140000Y307000D02*
D03*
Y221000D02*
D03*
X860000Y123000D02*
D03*
Y209000D02*
D03*
D44*
X162000Y690500D02*
D03*
Y753500D02*
D03*
X892000Y826500D02*
D03*
Y889500D02*
D03*
X109000Y690500D02*
D03*
Y753500D02*
D03*
X838000Y826500D02*
D03*
Y889500D02*
D03*
X109000Y468000D02*
D03*
Y405000D02*
D03*
X891000Y541500D02*
D03*
Y604500D02*
D03*
X162000Y468500D02*
D03*
Y405500D02*
D03*
X838000Y541500D02*
D03*
Y604500D02*
D03*
X108000Y178500D02*
D03*
Y115500D02*
D03*
X891000Y251500D02*
D03*
Y314500D02*
D03*
X162000Y178500D02*
D03*
Y115500D02*
D03*
X838000Y251500D02*
D03*
Y314500D02*
D03*
D45*
X681000Y77000D02*
D03*
X649000D02*
D03*
X823000Y51000D02*
D03*
X855000D02*
D03*
D46*
X221000Y841000D02*
D03*
X321000D02*
D03*
X779000Y739000D02*
D03*
X679000D02*
D03*
X221000Y556000D02*
D03*
X321000D02*
D03*
X779000Y454000D02*
D03*
X679000D02*
D03*
X221000Y266000D02*
D03*
X321000D02*
D03*
X779000Y164000D02*
D03*
X679000D02*
D03*
D47*
X665000Y35000D02*
D03*
D48*
X335000Y35000D02*
D03*
D49*
X125000Y14000D02*
D03*
Y30000D02*
D03*
X291000Y30000D02*
D03*
Y14000D02*
D03*
Y70000D02*
D03*
Y54000D02*
D03*
X426000Y30000D02*
D03*
Y14000D02*
D03*
X797000Y14000D02*
D03*
Y30000D02*
D03*
Y55000D02*
D03*
Y71000D02*
D03*
D50*
X197000Y706000D02*
D03*
Y684000D02*
D03*
X803000Y874000D02*
D03*
Y896000D02*
D03*
X197000Y738000D02*
D03*
Y760000D02*
D03*
X803000Y842000D02*
D03*
Y820000D02*
D03*
X197000Y421000D02*
D03*
Y399000D02*
D03*
X803000Y589000D02*
D03*
Y611000D02*
D03*
X197000Y453000D02*
D03*
Y475000D02*
D03*
X803000Y557000D02*
D03*
Y535000D02*
D03*
X197000Y131000D02*
D03*
Y109000D02*
D03*
X803000Y299000D02*
D03*
Y321000D02*
D03*
X197000Y163000D02*
D03*
Y185000D02*
D03*
X803000Y267000D02*
D03*
Y245000D02*
D03*
D51*
X405000Y800000D02*
D03*
X595000Y780000D02*
D03*
X405000Y515000D02*
D03*
X595000Y495000D02*
D03*
X405000Y225000D02*
D03*
X595000Y205000D02*
D03*
D52*
X405000Y699000D02*
D03*
X392300D02*
D03*
X417700D02*
D03*
X379600D02*
D03*
X366900D02*
D03*
X430400D02*
D03*
X443100D02*
D03*
X595000Y881000D02*
D03*
X607700D02*
D03*
X582300D02*
D03*
X620400D02*
D03*
X633100D02*
D03*
X569600D02*
D03*
X556900D02*
D03*
X405000Y414000D02*
D03*
X392300D02*
D03*
X417700D02*
D03*
X379600D02*
D03*
X366900D02*
D03*
X430400D02*
D03*
X443100D02*
D03*
X595000Y596000D02*
D03*
X607700D02*
D03*
X582300D02*
D03*
X620400D02*
D03*
X633100D02*
D03*
X569600D02*
D03*
X556900D02*
D03*
X405000Y124000D02*
D03*
X392300D02*
D03*
X417700D02*
D03*
X379600D02*
D03*
X366900D02*
D03*
X430400D02*
D03*
X443100D02*
D03*
X595000Y306000D02*
D03*
X607700D02*
D03*
X582300D02*
D03*
X620400D02*
D03*
X633100D02*
D03*
X569600D02*
D03*
X556900D02*
D03*
D53*
X774250Y42500D02*
D03*
X209750Y42000D02*
D03*
D54*
X715750Y19500D02*
D03*
Y42500D02*
D03*
Y65500D02*
D03*
X268250Y65000D02*
D03*
Y42000D02*
D03*
Y19000D02*
D03*
D55*
X302000Y737000D02*
D03*
X698000Y843000D02*
D03*
X302000Y452000D02*
D03*
X698000Y558000D02*
D03*
X302000Y162000D02*
D03*
X698000Y268000D02*
D03*
D56*
X226000Y714000D02*
D03*
Y760000D02*
D03*
X774000Y866000D02*
D03*
Y820000D02*
D03*
X226000Y429000D02*
D03*
Y475000D02*
D03*
X774000Y581000D02*
D03*
Y535000D02*
D03*
X226000Y139000D02*
D03*
Y185000D02*
D03*
X774000Y291000D02*
D03*
Y245000D02*
D03*
D57*
X386000Y977900D02*
D03*
X411400D02*
D03*
X436800D02*
D03*
X462200D02*
D03*
X487600D02*
D03*
X563800D02*
D03*
X538400D02*
D03*
X513000D02*
D03*
X614600D02*
D03*
X589200D02*
D03*
X411400Y952500D02*
D03*
X436800D02*
D03*
X462200D02*
D03*
X538400D02*
D03*
X513000D02*
D03*
X487600D02*
D03*
X589200D02*
D03*
X563800D02*
D03*
X614600D02*
D03*
X56000Y877600D02*
D03*
Y852200D02*
D03*
X944000Y877600D02*
D03*
Y903000D02*
D03*
X56000Y787600D02*
D03*
Y762200D02*
D03*
X944000Y787600D02*
D03*
Y813000D02*
D03*
X174400Y22000D02*
D03*
X56000Y697200D02*
D03*
Y671800D02*
D03*
X944000Y697600D02*
D03*
Y723000D02*
D03*
X449200Y22000D02*
D03*
X474600D02*
D03*
X500000D02*
D03*
X525400D02*
D03*
X56000Y592400D02*
D03*
Y567000D02*
D03*
X944000Y592400D02*
D03*
Y617800D02*
D03*
X56000Y502600D02*
D03*
Y477200D02*
D03*
X944000Y502400D02*
D03*
Y527800D02*
D03*
X56000Y412600D02*
D03*
Y387200D02*
D03*
X944000Y412600D02*
D03*
Y438000D02*
D03*
X851400Y22000D02*
D03*
X56000Y302200D02*
D03*
Y276800D02*
D03*
X944000Y302200D02*
D03*
Y327600D02*
D03*
X594600Y47400D02*
D03*
Y22000D02*
D03*
X620000D02*
D03*
X56000Y212400D02*
D03*
Y187000D02*
D03*
X944000Y212400D02*
D03*
Y237800D02*
D03*
X56000Y122400D02*
D03*
Y97000D02*
D03*
X944000Y122400D02*
D03*
Y147800D02*
D03*
D58*
X386000Y952500D02*
D03*
D59*
X56000Y903000D02*
D03*
X944000Y852200D02*
D03*
X56000Y813000D02*
D03*
X944000Y762200D02*
D03*
X56000Y722600D02*
D03*
X944000Y672200D02*
D03*
X56000Y617800D02*
D03*
X944000Y567000D02*
D03*
X56000Y528000D02*
D03*
X944000Y477000D02*
D03*
X56000Y438000D02*
D03*
X944000Y387200D02*
D03*
X56000Y327600D02*
D03*
X944000Y276800D02*
D03*
X56000Y237800D02*
D03*
X944000Y187000D02*
D03*
X56000Y147800D02*
D03*
X944000Y97000D02*
D03*
D60*
X149000Y22000D02*
D03*
X550800Y22000D02*
D03*
X826000D02*
D03*
D61*
X620000Y47400D02*
D03*
D62*
X56000Y36000D02*
D03*
X944000D02*
D03*
X56000Y964000D02*
D03*
X944000D02*
D03*
M02*
