G04 Layer_Color=16711935*
%FSLAX44Y44*%
%MOMM*%
G71*
G01*
G75*
%ADD57C,1.9000*%
%ADD58R,1.9000X1.9000*%
G04:AMPARAMS|DCode=59|XSize=1.9mm|YSize=1.9mm|CornerRadius=0.525mm|HoleSize=0mm|Usage=FLASHONLY|Rotation=270.000|XOffset=0mm|YOffset=0mm|HoleType=Round|Shape=RoundedRectangle|*
%AMROUNDEDRECTD59*
21,1,1.9000,0.8500,0,0,270.0*
21,1,0.8500,1.9000,0,0,270.0*
1,1,1.0500,-0.4250,-0.4250*
1,1,1.0500,-0.4250,0.4250*
1,1,1.0500,0.4250,0.4250*
1,1,1.0500,0.4250,-0.4250*
%
%ADD59ROUNDEDRECTD59*%
G04:AMPARAMS|DCode=60|XSize=1.9mm|YSize=1.9mm|CornerRadius=0.525mm|HoleSize=0mm|Usage=FLASHONLY|Rotation=0.000|XOffset=0mm|YOffset=0mm|HoleType=Round|Shape=RoundedRectangle|*
%AMROUNDEDRECTD60*
21,1,1.9000,0.8500,0,0,0.0*
21,1,0.8500,1.9000,0,0,0.0*
1,1,1.0500,0.4250,-0.4250*
1,1,1.0500,-0.4250,-0.4250*
1,1,1.0500,-0.4250,0.4250*
1,1,1.0500,0.4250,0.4250*
%
%ADD60ROUNDEDRECTD60*%
%ADD61R,1.9000X1.9000*%
%ADD62C,6.2000*%
G36*
X40000Y80000D02*
X20000Y80000D01*
X20000Y920000D01*
X40000Y920000D01*
X40000Y80000D01*
D02*
G37*
G36*
X980000Y920000D02*
X980000Y80000D01*
X960000Y80000D01*
X960000Y920000D01*
X980000Y920000D01*
D02*
G37*
D57*
X386000Y977900D02*
D03*
X411400D02*
D03*
X436800D02*
D03*
X462200D02*
D03*
X487600D02*
D03*
X563800D02*
D03*
X538400D02*
D03*
X513000D02*
D03*
X614600D02*
D03*
X589200D02*
D03*
X411400Y952500D02*
D03*
X436800D02*
D03*
X462200D02*
D03*
X538400D02*
D03*
X513000D02*
D03*
X487600D02*
D03*
X589200D02*
D03*
X563800D02*
D03*
X614600D02*
D03*
X56000Y877600D02*
D03*
Y852200D02*
D03*
X944000Y877600D02*
D03*
Y903000D02*
D03*
X56000Y787600D02*
D03*
Y762200D02*
D03*
X944000Y787600D02*
D03*
Y813000D02*
D03*
X174400Y22000D02*
D03*
X56000Y697200D02*
D03*
Y671800D02*
D03*
X944000Y697600D02*
D03*
Y723000D02*
D03*
X449200Y22000D02*
D03*
X474600D02*
D03*
X500000D02*
D03*
X525400D02*
D03*
X56000Y592400D02*
D03*
Y567000D02*
D03*
X944000Y592400D02*
D03*
Y617800D02*
D03*
X56000Y502600D02*
D03*
Y477200D02*
D03*
X944000Y502400D02*
D03*
Y527800D02*
D03*
X56000Y412600D02*
D03*
Y387200D02*
D03*
X944000Y412600D02*
D03*
Y438000D02*
D03*
X851400Y22000D02*
D03*
X56000Y302200D02*
D03*
Y276800D02*
D03*
X944000Y302200D02*
D03*
Y327600D02*
D03*
X594600Y47400D02*
D03*
Y22000D02*
D03*
X620000D02*
D03*
X56000Y212400D02*
D03*
Y187000D02*
D03*
X944000Y212400D02*
D03*
Y237800D02*
D03*
X56000Y122400D02*
D03*
Y97000D02*
D03*
X944000Y122400D02*
D03*
Y147800D02*
D03*
D58*
X386000Y952500D02*
D03*
D59*
X56000Y903000D02*
D03*
X944000Y852200D02*
D03*
X56000Y813000D02*
D03*
X944000Y762200D02*
D03*
X56000Y722600D02*
D03*
X944000Y672200D02*
D03*
X56000Y617800D02*
D03*
X944000Y567000D02*
D03*
X56000Y528000D02*
D03*
X944000Y477000D02*
D03*
X56000Y438000D02*
D03*
X944000Y387200D02*
D03*
X56000Y327600D02*
D03*
X944000Y276800D02*
D03*
X56000Y237800D02*
D03*
X944000Y187000D02*
D03*
X56000Y147800D02*
D03*
X944000Y97000D02*
D03*
D60*
X149000Y22000D02*
D03*
X550800Y22000D02*
D03*
X826000D02*
D03*
D61*
X620000Y47400D02*
D03*
D62*
X56000Y36000D02*
D03*
X944000D02*
D03*
X56000Y964000D02*
D03*
X944000D02*
D03*
M02*
