M48
;Layer_Color=9474304
;FILE_FORMAT=4:4
METRIC,LZ
;TYPE=PLATED
T1F00S00C0.3000
T2F00S00C1.0000
T3F00S00C3.5000
%
T01
X008775Y00015
X00855Y00051
X00895Y00075
X00905
X00915
X00915Y00085
X00905
X00895
X0086Y00113
Y00123
Y00133
X0097Y0013
Y0012
Y0011
Y002
Y0021
Y0022
X00779Y0024
Y0025
X00769
Y0024
X0064Y0024
Y0023
Y0022
Y0021
Y002
Y0019
Y0018
Y0017
Y0016
X0063
Y0017
Y0018
Y0019
Y002
Y0021
Y0022
Y0023
Y0024
Y0025
X0064
X0062
Y0024
Y0023
Y0022
Y0021
Y002
Y0019
Y0018
Y0017
Y0016
X0061
Y0017
Y0018
Y0019
Y002
Y0021
Y0022
Y0023
Y0024
Y0025
X006
Y0024
Y0023
Y0022
Y0021
Y002
Y0019
Y0018
Y0017
Y0016
X0059
Y0017
Y0018
Y0019
Y002
Y0021
Y0022
Y0023
Y0024
Y0025
X0058
Y0024
Y0023
Y0022
Y0021
Y002
Y0019
Y0018
Y0017
Y0016
X0057
Y0017
Y0018
Y0019
Y002
Y0021
Y0022
Y0023
Y0024
Y0025
X0056
Y0024
Y0023
Y0022
Y0021
Y002
Y0019
Y0018
Y0017
Y0016
X0055
Y0017
Y0018
Y0019
Y002
Y0021
Y0022
Y0023
Y0024
Y0025
X0045Y0025
Y0026
Y0027
X0044
Y0026
Y0025
Y0024
Y0023
Y0022
Y0021
Y002
Y0019
Y0018
X0045
Y0019
Y002
Y0021
Y0022
Y0023
Y0024
X0043
Y0025
Y0026
Y0027
X0042
Y0026
Y0025
Y0024
Y0023
Y0022
Y0021
Y002
Y0019
Y0018
X0043
Y0019
Y002
Y0021
Y0022
Y0023
X0041
Y0024
Y0025
Y0026
Y0027
X004
Y0026
Y0025
Y0024
Y0023
Y0022
Y0021
Y002
Y0019
Y0018
X0041
Y0019
Y002
Y0021
Y0022
X0039
Y0023
Y0024
Y0025
Y0026
Y0027
X0038
Y0026
Y0025
Y0024
Y0023
Y0022
Y0021
Y002
Y0019
Y0018
X0039
Y0019
Y002
Y0021
X0037
Y0022
Y0023
Y0024
Y0025
Y0026
Y0027
X0036
Y0026
Y0025
Y0024
Y0023
Y0022
Y0021
Y002
Y0019
Y0018
X0037
Y0019
Y002
X00405Y00134
Y00124
Y00114
X00443Y00125
X00580499Y00125
X00590499
Y00115
X00580499
X00649Y00077
X0035Y00045
Y00035
Y00025
X0034
Y00035
Y00045
X0033
X0032
Y00035
X0033
Y00025
X0032
X00291Y0003
Y0007
X0026825Y00065
X00231Y00134
Y00144
X00221
Y00134
Y0018
Y0019
X00231
Y0018
X00197Y00109
X00157Y001105
Y001205
X00114
Y001105
X0003Y0011
Y0012
Y0013
Y002
Y0021
Y0022
X00125Y00014
X0014Y00297
Y00307
Y00317
X00157Y004005
Y004105
X00114
Y004005
X00197Y00399
X00221Y00424
Y00434
X00231
Y00424
Y0047
Y0048
X00221
Y0047
X0014Y00587
Y00597
Y00607
X0003Y006
Y0059
Y0058
Y0051
Y005
Y0049
Y0042
Y0041
Y004
Y0031
Y003
Y0029
X004095Y00305
X004195
Y00315
X004095
X00405Y00404
Y00414
Y00424
X00443Y00415
X0044Y0047
Y0048
Y0049
Y005
Y0051
Y0052
Y0053
Y0054
Y0055
Y0056
X0043
Y0055
Y0054
Y0053
Y0052
Y0051
Y005
Y0049
Y0048
Y0047
X0042
Y0048
Y0049
Y005
Y0051
Y0052
Y0053
Y0054
Y0055
Y0056
X0041
Y0055
Y0054
Y0053
Y0052
Y0051
Y005
Y0049
Y0048
Y0047
X004
Y0048
Y0049
Y005
Y0051
Y0052
Y0053
Y0054
Y0055
Y0056
X0039
Y0055
Y0054
Y0053
Y0052
Y0051
Y005
Y0049
Y0048
Y0047
X0038
Y0048
Y0049
Y005
Y0051
Y0052
Y0053
Y0054
Y0055
Y0056
X0037
Y0055
Y0054
Y0053
Y0052
Y0051
Y005
Y0049
Y0048
Y0047
X0036
Y0048
Y0049
Y005
Y0051
Y0052
Y0053
Y0054
Y0055
Y0056
X004095Y00595
X004195
Y00605
X004095
X0045Y0056
Y0055
Y0054
Y0053
Y0052
Y0051
Y005
Y0049
Y0048
Y0047
X0055Y0047
Y0046
Y0045
X0056
Y0046
Y0047
Y0048
Y0049
Y005
Y0051
Y0052
Y0053
Y0054
X0055
Y0053
Y0052
Y0051
Y005
Y0049
Y0048
X0057
Y0047
Y0046
Y0045
X0058
Y0046
Y0047
Y0048
Y0049
Y005
Y0051
Y0052
Y0053
Y0054
X0057
Y0053
Y0052
Y0051
Y005
Y0049
X0059
Y0048
Y0047
Y0046
Y0045
X006
Y0046
Y0047
Y0048
Y0049
Y005
Y0051
Y0052
Y0053
Y0054
X0059
Y0053
Y0052
Y0051
Y005
X0061
Y0049
Y0048
Y0047
Y0046
Y0045
X0062
Y0046
Y0047
Y0048
Y0049
Y005
Y0051
Y0052
Y0053
Y0054
X0061
Y0053
Y0052
Y0051
X0063
Y005
Y0049
Y0048
Y0047
Y0046
Y0045
X0064
Y0046
Y0047
Y0048
Y0049
Y005
Y0051
Y0052
Y0053
Y0054
X0063
Y0053
Y0052
X00595Y00586
Y00596
Y00606
X005569Y00596
X00535Y0064
Y0065
Y0066
X00465
Y0065
Y0064
Y00375
Y00365
Y00355
X00535
Y00365
Y00375
X00580499Y00405
X00590499
Y00415
X00580499
X00595Y00316
Y00306
Y00296
X005569Y00306
X00769Y00296
Y00286
X00779
Y00296
X00803Y00321
X00843Y003195
Y003095
X00886Y003095
Y003195
X0097Y0031
Y003
Y0029
Y004
Y0041
Y0042
Y0049
Y005
Y0051
Y0058
Y0059
Y006
X00886Y005995
Y006095
X00843
Y005995
X00803Y00611
X00779Y00586
Y00576
X00769
Y00586
Y0054
Y0053
X00779
Y0054
X0086Y00423
Y00413
Y00403
X0086Y00688
Y00698
Y00708
X0097Y00705
Y00695
Y00685
Y00775
Y00785
Y00795
Y00865
Y00875
Y00885
X00887Y008845
Y008945
X00843Y008945
Y008845
X00803Y00896
X0077Y00895
X0076
X0075
X00769Y00871
Y00861
X00779
Y00871
Y00825
Y00815
X00769
Y00825
X0074Y00895
X0073
X00595Y00891
Y00881
Y00871
X005569Y00881
X0056Y00825
Y00815
Y00805
Y00795
Y00785
Y00775
Y00765
Y00755
Y00745
Y00735
X0057
Y00745
Y00755
Y00765
Y00775
Y00785
Y00795
Y00805
Y00815
Y00825
X0058
Y00815
Y00805
Y00795
Y00785
Y00775
Y00765
Y00755
Y00745
Y00735
X0059
Y00745
Y00755
Y00765
Y00775
Y00785
Y00795
Y00805
Y00815
Y00825
X006
Y00815
Y00805
Y00795
Y00785
Y00775
Y00765
Y00755
Y00745
Y00735
X0061
Y00745
Y00755
Y00765
Y00775
Y00785
Y00795
Y00805
Y00815
Y00825
X0062
Y00815
Y00805
Y00795
Y00785
Y00775
Y00765
Y00755
Y00745
Y00735
X0063
Y00745
Y00755
Y00765
Y00775
Y00785
Y00795
Y00805
Y00815
Y00825
X0064
Y00815
Y00805
Y00795
Y00785
Y00775
Y00765
Y00755
Y00745
Y00735
X005905Y007
X005805
Y0069
X005905
X0055Y00735
Y00745
Y00755
Y00765
Y00775
Y00785
Y00795
Y00805
Y00815
Y00825
X0045Y00825
Y00815
Y00805
Y00795
Y00785
Y00775
Y00765
Y00755
X0044
Y00765
Y00775
Y00785
Y00795
Y00805
Y00815
Y00825
Y00835
Y00845
X0045
Y00835
X0043
Y00825
Y00815
Y00805
Y00795
Y00785
Y00775
Y00765
Y00755
X0042
Y00765
Y00775
Y00785
Y00795
Y00805
Y00815
Y00825
Y00835
Y00845
X0043
X0041
Y00835
Y00825
Y00815
Y00805
Y00795
Y00785
Y00775
Y00765
Y00755
X004
Y00765
Y00775
Y00785
Y00795
Y00805
Y00815
Y00825
Y00835
Y00845
X0039
Y00835
Y00825
Y00815
Y00805
Y00795
Y00785
Y00775
Y00765
Y00755
X0038
Y00765
Y00775
Y00785
Y00795
Y00805
Y00815
Y00825
Y00835
Y00845
X0037
Y00835
Y00825
Y00815
Y00805
Y00795
Y00785
Y00775
Y00765
Y00755
X0036
Y00765
Y00775
Y00785
Y00795
Y00805
Y00815
Y00825
Y00835
Y00845
X004095Y0088
X004195
Y0089
X004095
X00405Y00709
Y00699
Y00689
X004431Y00699
X00231Y00709
Y00719
X00221
Y00709
Y00755
Y00765
X00231
Y00755
X00197Y00684
X00157Y006855
Y006955
X00114
Y006855
X0003Y00685
Y00695
Y00705
Y00775
Y00785
Y00795
Y00865
Y00875
Y00885
X0014Y00882
Y00892
Y00872
T02
X00826Y00022
X008514
X00944Y00097
Y001224
Y001478
Y00187
Y002124
Y002378
Y002768
X0062Y000474
X005946
Y00022
X0062
X005508
X005254
X005
X004746
X004492
X001744Y00022
X00149
X00056Y00097
Y001224
Y001478
Y00187
Y002124
Y002378
Y002768
Y003022
Y003276
X00056Y003872
Y004126
Y00438
Y004772
Y005026
Y00528
Y00567
Y005924
Y006178
X00056Y006718
X00944Y006722
X00944Y006178
Y005924
Y00567
Y005278
Y005024
Y00477
Y00438
Y004126
Y003872
X00944Y003276
Y003022
Y006976
Y00723
Y007622
Y007876
Y00813
Y008522
Y008776
Y00903
X006146Y009525
Y009779
X005892
X005638
X005384
X00513
X004876
X004622
X004368
X004114
X00386
Y009525
X004114
X004368
X004622
X004876
X00513
X005384
X005638
X005892
X00056Y00903
Y008776
Y008522
Y00813
Y007876
Y007622
Y007226
Y006972
T03
X00944Y00036
X00056
X00944Y00964
X00056
M30
