G04 Layer_Color=65535*
%FSLAX44Y44*%
%MOMM*%
G71*
G01*
G75*
%ADD30C,0.2000*%
D30*
X304000Y680000D02*
Y700000D01*
X346000Y680000D02*
Y700000D01*
X304000Y680000D02*
X346000D01*
X304000Y700000D02*
X346000D01*
X654000Y880000D02*
X696000D01*
X654000Y900000D02*
X696000D01*
X654000Y880000D02*
Y900000D01*
X696000Y880000D02*
Y900000D01*
X398000Y860000D02*
Y910000D01*
X494000D01*
Y860000D02*
Y910000D01*
X398000Y860000D02*
X494000D01*
X602000Y670000D02*
Y720000D01*
X506000Y670000D02*
X602000D01*
X506000D02*
Y720000D01*
X602000D01*
X93000Y770000D02*
X187000D01*
X196000Y779000D01*
Y908000D01*
X84000D02*
X196000D01*
X84000Y779000D02*
Y908000D01*
Y779000D02*
X93000Y770000D01*
X137000Y674000D02*
X187000D01*
X137000D02*
Y770000D01*
X187000D01*
Y674000D02*
Y770000D01*
X813000Y810000D02*
X907000D01*
X804000Y801000D02*
X813000Y810000D01*
X804000Y672000D02*
Y801000D01*
Y672000D02*
X916000D01*
Y801000D01*
X907000Y810000D02*
X916000Y801000D01*
X867000Y810000D02*
Y906000D01*
Y810000D02*
X917000D01*
Y906000D01*
X867000D02*
X917000D01*
X84000Y674000D02*
X134000D01*
X84000D02*
Y770000D01*
X134000D01*
Y674000D02*
Y770000D01*
X813000Y810000D02*
Y906000D01*
Y810000D02*
X863000D01*
Y906000D01*
X813000D02*
X863000D01*
X304000Y415000D02*
X346000D01*
X304000Y395000D02*
X346000D01*
Y415000D01*
X304000Y395000D02*
Y415000D01*
X654000Y595000D02*
X696000D01*
X654000Y615000D02*
X696000D01*
X654000Y595000D02*
Y615000D01*
X696000Y595000D02*
Y615000D01*
X398000Y575000D02*
Y625000D01*
X494000D01*
Y575000D02*
Y625000D01*
X398000Y575000D02*
X494000D01*
X602000Y385000D02*
Y435000D01*
X506000Y385000D02*
X602000D01*
X506000D02*
Y435000D01*
X602000D01*
X93000Y485000D02*
X187000D01*
X196000Y494000D01*
Y623000D01*
X84000D02*
X196000D01*
X84000Y494000D02*
Y623000D01*
Y494000D02*
X93000Y485000D01*
X134000Y388500D02*
Y484500D01*
X84000D02*
X134000D01*
X84000Y388500D02*
Y484500D01*
Y388500D02*
X134000D01*
X813000Y525000D02*
X907000D01*
X804000Y516000D02*
X813000Y525000D01*
X804000Y387000D02*
Y516000D01*
Y387000D02*
X916000D01*
Y516000D01*
X907000Y525000D02*
X916000Y516000D01*
X866000Y525000D02*
Y621000D01*
Y525000D02*
X916000D01*
Y621000D01*
X866000D02*
X916000D01*
X187000Y389000D02*
Y485000D01*
X137000D02*
X187000D01*
X137000Y389000D02*
Y485000D01*
Y389000D02*
X187000D01*
X813000Y525000D02*
Y621000D01*
Y525000D02*
X863000D01*
Y621000D01*
X813000D02*
X863000D01*
X304000Y125000D02*
X346000D01*
X304000Y105000D02*
X346000D01*
Y125000D01*
X304000Y105000D02*
Y125000D01*
X654000Y305000D02*
X696000D01*
X654000Y325000D02*
X696000D01*
X654000Y305000D02*
Y325000D01*
X696000Y305000D02*
Y325000D01*
X398000Y285000D02*
Y335000D01*
X494000D01*
Y285000D02*
Y335000D01*
X398000Y285000D02*
X494000D01*
X602000Y95000D02*
Y145000D01*
X506000Y95000D02*
X602000D01*
X506000D02*
Y145000D01*
X602000D01*
X93000Y195000D02*
X187000D01*
X196000Y204000D01*
Y333000D01*
X84000D02*
X196000D01*
X84000Y204000D02*
Y333000D01*
Y204000D02*
X93000Y195000D01*
X133000Y99000D02*
Y195000D01*
X83000D02*
X133000D01*
X83000Y99000D02*
Y195000D01*
Y99000D02*
X133000D01*
X813000Y235000D02*
X907000D01*
X804000Y226000D02*
X813000Y235000D01*
X804000Y97000D02*
Y226000D01*
Y97000D02*
X916000D01*
Y226000D01*
X907000Y235000D02*
X916000Y226000D01*
X866000Y235000D02*
Y331000D01*
Y235000D02*
X916000D01*
Y331000D01*
X866000D02*
X916000D01*
X187000Y99000D02*
Y195000D01*
X137000D02*
X187000D01*
X137000Y99000D02*
Y195000D01*
Y99000D02*
X187000D01*
X813000Y235000D02*
Y331000D01*
Y235000D02*
X863000D01*
Y331000D01*
X813000D02*
X863000D01*
X636000Y64000D02*
Y90000D01*
X694000D01*
Y64000D02*
Y90000D01*
X636000Y64000D02*
X694000D01*
X868000Y38000D02*
Y64000D01*
X810000Y38000D02*
X868000D01*
X810000D02*
Y64000D01*
X868000D01*
X196000Y774000D02*
Y908000D01*
X346000D01*
Y774000D02*
Y908000D01*
X196000Y774000D02*
X346000D01*
X804000Y672000D02*
Y806000D01*
X654000Y672000D02*
X804000D01*
X654000D02*
Y806000D01*
X804000D01*
X196000Y489000D02*
Y623000D01*
X346000D01*
Y489000D02*
Y623000D01*
X196000Y489000D02*
X346000D01*
X804000Y387000D02*
Y521000D01*
X654000Y387000D02*
X804000D01*
X654000D02*
Y521000D01*
X804000D01*
X196000Y199000D02*
Y333000D01*
X346000D01*
Y199000D02*
Y333000D01*
X196000Y199000D02*
X346000D01*
X804000Y97000D02*
Y231000D01*
X654000Y97000D02*
X804000D01*
X654000D02*
Y231000D01*
X804000D01*
X332000Y915500D02*
Y995000D01*
Y915500D02*
X668000D01*
Y995000D01*
X40000Y919000D02*
X72000D01*
X40000Y836000D02*
Y919000D01*
Y836000D02*
X72000D01*
Y919000D01*
X928000Y836200D02*
X960000D01*
Y919200D01*
X928000D02*
X960000D01*
X928000Y836200D02*
Y919200D01*
X40000Y829000D02*
X72000D01*
X40000Y746000D02*
Y829000D01*
Y746000D02*
X72000D01*
Y829000D01*
X928000Y746200D02*
X960000D01*
Y829200D01*
X928000D02*
X960000D01*
X928000Y746200D02*
Y829200D01*
X133000Y6000D02*
X190000D01*
X133000D02*
Y38000D01*
X190000D01*
Y6000D02*
Y38000D01*
X40000Y738600D02*
X72000D01*
X40000Y655600D02*
Y738600D01*
Y655600D02*
X72000D01*
Y738600D01*
X928000Y656200D02*
X960000D01*
Y739200D01*
X928000D02*
X960000D01*
X928000Y656200D02*
Y739200D01*
X433800Y6000D02*
X566800D01*
X433800D02*
Y38000D01*
X566800D01*
Y6000D02*
Y38000D01*
X40000Y633800D02*
X72000D01*
X40000Y550800D02*
Y633800D01*
Y550800D02*
X72000D01*
Y633800D01*
X928000Y551000D02*
X960000D01*
Y634000D01*
X928000D02*
X960000D01*
X928000Y551000D02*
Y634000D01*
X40000Y544000D02*
X72000D01*
X40000Y461000D02*
Y544000D01*
Y461000D02*
X72000D01*
Y544000D01*
X928000Y461000D02*
X960000D01*
Y544000D01*
X928000D02*
X960000D01*
X928000Y461000D02*
Y544000D01*
X636000Y6000D02*
Y64000D01*
Y6000D02*
X694000D01*
Y64000D01*
X636000D02*
X694000D01*
X306000Y6000D02*
X364000D01*
Y64000D01*
X306000D02*
X364000D01*
X306000Y6000D02*
Y64000D01*
X40000Y454000D02*
X72000D01*
X40000Y371000D02*
Y454000D01*
Y371000D02*
X72000D01*
Y454000D01*
X928000Y371200D02*
X960000D01*
Y454200D01*
X928000D02*
X960000D01*
X928000Y371200D02*
Y454200D01*
X810000Y6000D02*
X867000D01*
X810000D02*
Y38000D01*
X867000D01*
Y6000D02*
Y38000D01*
X40000Y343600D02*
X72000D01*
X40000Y260600D02*
Y343600D01*
Y260600D02*
X72000D01*
Y343600D01*
X928000Y260800D02*
X960000D01*
Y343800D01*
X928000D02*
X960000D01*
X928000Y260800D02*
Y343800D01*
X579000Y6400D02*
Y63400D01*
Y6400D02*
X636000D01*
Y63400D01*
X579000D02*
X636000D01*
X40000Y253800D02*
X72000D01*
X40000Y170800D02*
Y253800D01*
Y170800D02*
X72000D01*
Y253800D01*
X928000Y171000D02*
X960000D01*
Y254000D01*
X928000D02*
X960000D01*
X928000Y171000D02*
Y254000D01*
X40000Y163800D02*
X72000D01*
X40000Y80800D02*
Y163800D01*
Y80800D02*
X72000D01*
Y163800D01*
X928000Y81000D02*
X960000D01*
Y164000D01*
X928000D02*
X960000D01*
X928000Y81000D02*
Y164000D01*
X117000Y6000D02*
X133000D01*
X117000D02*
Y38000D01*
X133000D01*
Y6000D02*
Y38000D01*
X283000Y38000D02*
X299000D01*
Y6000D02*
Y38000D01*
X283000Y6000D02*
X299000D01*
X283000D02*
Y38000D01*
Y78000D02*
X299000D01*
Y46000D02*
Y78000D01*
X283000Y46000D02*
X299000D01*
X283000D02*
Y78000D01*
X418000Y6000D02*
Y38000D01*
Y6000D02*
X434000D01*
Y38000D01*
X418000D02*
X434000D01*
X207000Y674000D02*
Y716000D01*
X187000Y674000D02*
Y716000D01*
Y674000D02*
X207000D01*
X187000Y716000D02*
X207000D01*
X793000Y864000D02*
X813000D01*
X793000Y906000D02*
X813000D01*
Y864000D02*
Y906000D01*
X793000Y864000D02*
Y906000D01*
X187000Y728000D02*
Y770000D01*
X207000Y728000D02*
Y770000D01*
X187000D02*
X207000D01*
X187000Y728000D02*
X207000D01*
X793000Y852000D02*
X813000D01*
X793000Y810000D02*
X813000D01*
X793000D02*
Y852000D01*
X813000Y810000D02*
Y852000D01*
X187000Y431000D02*
X207000D01*
X187000Y389000D02*
X207000D01*
X187000D02*
Y431000D01*
X207000Y389000D02*
Y431000D01*
X793000Y579000D02*
X813000D01*
X793000Y621000D02*
X813000D01*
Y579000D02*
Y621000D01*
X793000Y579000D02*
Y621000D01*
X187000Y443000D02*
X207000D01*
X187000Y485000D02*
X207000D01*
Y443000D02*
Y485000D01*
X187000Y443000D02*
Y485000D01*
X793000Y567000D02*
X813000D01*
X793000Y525000D02*
X813000D01*
X793000D02*
Y567000D01*
X813000Y525000D02*
Y567000D01*
X187000Y141000D02*
X207000D01*
X187000Y99000D02*
X207000D01*
X187000D02*
Y141000D01*
X207000Y99000D02*
Y141000D01*
X793000Y289000D02*
X813000D01*
X793000Y331000D02*
X813000D01*
Y289000D02*
Y331000D01*
X793000Y289000D02*
Y331000D01*
X187000Y153000D02*
X207000D01*
X187000Y195000D02*
X207000D01*
Y153000D02*
Y195000D01*
X187000Y153000D02*
Y195000D01*
X793000Y277000D02*
X813000D01*
X793000Y235000D02*
X813000D01*
X793000D02*
Y277000D01*
X813000Y235000D02*
Y277000D01*
X805000Y6000D02*
Y38000D01*
X789000D02*
X805000D01*
X789000Y6000D02*
Y38000D01*
Y6000D02*
X805000D01*
Y47000D02*
Y79000D01*
X789000D02*
X805000D01*
X789000Y47000D02*
Y79000D01*
Y47000D02*
X805000D01*
X868000Y54000D02*
X906000D01*
X868000Y6000D02*
Y54000D01*
Y6000D02*
X906000D01*
Y54000D01*
X346000Y680000D02*
Y859000D01*
X464000D01*
Y680000D02*
Y859000D01*
X346000Y680000D02*
X464000D01*
X654000Y721000D02*
Y900000D01*
X536000Y721000D02*
X654000D01*
X536000D02*
Y900000D01*
X654000D01*
X346000Y395000D02*
Y574000D01*
X464000D01*
Y395000D02*
Y574000D01*
X346000Y395000D02*
X464000D01*
X654000Y436000D02*
Y615000D01*
X536000Y436000D02*
X654000D01*
X536000D02*
Y615000D01*
X654000D01*
X346000Y105000D02*
Y284000D01*
X464000D01*
Y105000D02*
Y284000D01*
X346000Y105000D02*
X464000D01*
X654000Y146000D02*
Y325000D01*
X536000Y146000D02*
X654000D01*
X536000D02*
Y325000D01*
X654000D01*
X701000Y6000D02*
Y79000D01*
X789000Y6000D02*
Y79000D01*
X701000D02*
X789000D01*
X701000Y6000D02*
X789000D01*
X207000Y700000D02*
Y774000D01*
Y700000D02*
X346000D01*
Y774000D01*
X207000D02*
X346000D01*
X793000Y806000D02*
Y880000D01*
X654000D02*
X793000D01*
X654000Y806000D02*
Y880000D01*
Y806000D02*
X793000D01*
X207000Y415000D02*
Y489000D01*
Y415000D02*
X346000D01*
Y489000D01*
X207000D02*
X346000D01*
X793000Y521000D02*
Y595000D01*
X654000D02*
X793000D01*
X654000Y521000D02*
Y595000D01*
Y521000D02*
X793000D01*
X207000Y125000D02*
Y199000D01*
Y125000D02*
X346000D01*
Y199000D01*
X207000D02*
X346000D01*
X793000Y231000D02*
Y305000D01*
X654000D02*
X793000D01*
X654000Y231000D02*
Y305000D01*
Y231000D02*
X793000D01*
X195000Y78500D02*
X283000D01*
X195000Y5500D02*
X283000D01*
X195000D02*
Y78500D01*
X283000Y5500D02*
Y78500D01*
M02*
