<?xml version="1.0" ?><svg viewBox="0 0 64 64" xmlns="http://www.w3.org/2000/svg"><g id="outling-cut"><path d="M37.314,19.9a16.122,16.122,0,0,0-1.962-.552l-.418,1.956a13.988,13.988,0,0,1,1.716.483Z"/><path d="M33.171,21.048l.164-1.993a16.412,16.412,0,0,0-2.034-.04l.086,2A14.339,14.339,0,0,1,33.171,21.048Z"/><path d="M39.191,20.7l-.9,1.786a14.04,14.04,0,0,1,1.538.9l1.121-1.657A16,16,0,0,0,39.191,20.7Z"/><path d="M25.386,20.427a15.846,15.846,0,0,0-1.8.961l1.053,1.7a13.789,13.789,0,0,1,1.571-.839Z"/><path d="M29.274,19.231a16.22,16.22,0,0,0-1.981.473l.586,1.912a13.991,13.991,0,0,1,1.735-.414Z"/><path d="M48,35c0-.458-.02-.913-.058-1.362L45.95,33.8c.032.394.05.793.05,1.2,0,.2,0,.394-.012.589l2,.084C48,35.45,48,35.226,48,35Z"/><path d="M44.762,40.767a13.994,13.994,0,0,1-.837,1.573l1.7,1.052a16.069,16.069,0,0,0,.958-1.8Z"/><path d="M47.773,37.7,45.8,37.364a14.145,14.145,0,0,1-.409,1.735l1.912.584A15.939,15.939,0,0,0,47.773,37.7Z"/><path d="M47.642,31.622a15.582,15.582,0,0,0-.555-1.962l-1.885.667a14.186,14.186,0,0,1,.485,1.712Z"/><path d="M43.6,27.153a14.046,14.046,0,0,1,.9,1.535l1.785-.9a15.927,15.927,0,0,0-1.034-1.756Z"/><path d="M42.562,22.981l-1.321,1.5A14.451,14.451,0,0,1,42.5,25.744L44,24.42A16.3,16.3,0,0,0,42.562,22.981Z"/><path d="M16.319,31.8A16.166,16.166,0,0,0,16,35a15.925,15.925,0,0,0,2.732,8.946,1,1,0,0,0,1.659-1.119A13.92,13.92,0,0,1,18,35a14.117,14.117,0,0,1,.28-2.8,1,1,0,0,0-1.961-.4Z"/><path d="M22.982,45.71a1,1,0,1,0-1.289,1.529,15.956,15.956,0,0,0,20.358.183l2.838,1.85a.987.987,0,0,0,.546.163,1,1,0,0,0,.837-1.546L35.666,31.625a6.7,6.7,0,0,1-.292-.291l-5.769-3.762a1,1,0,1,0-1.091,1.675l4.736,3.089-1.957,1.957L29.336,36.25,22,25l3.512,2.29A1,1,0,1,0,26.6,25.613l-7.491-4.885a1,1,0,0,0-1.383,1.383L28.334,38.375a6.7,6.7,0,0,1,.292.291l11.659,7.6a13.972,13.972,0,0,1-17.3-.56Zm7.768-8.046,1.957-1.957,1.957-1.957,7.247,11.113-.049.048Z"/><path d="M18.569,29.5a1.028,1.028,0,0,0,.7-.29,1.236,1.236,0,0,0,.22-.33.994.994,0,0,0,.079-.38,1.016,1.016,0,0,0-.3-.71,1.036,1.036,0,0,0-1.411,0,1.02,1.02,0,0,0-.3.71,1,1,0,0,0,.08.38,1.186,1.186,0,0,0,.219.33A1.036,1.036,0,0,0,18.569,29.5Z"/><path d="M29.67,4.79a.989.989,0,0,0-.22.33.967.967,0,0,0-.07.38.99.99,0,0,0,.99,1,.99.99,0,0,0,1-1,.986.986,0,0,0-.07-.38,1.19,1.19,0,0,0-.22-.33A1.034,1.034,0,0,0,29.67,4.79Z"/><path d="M8,43H9.367c.239.679.5,1.347.8,2H9a1,1,0,0,0,0,2h2.2A24.074,24.074,0,0,0,31.96,59c.66,0,1.325-.027,1.99-.082A24.015,24.015,0,0,0,54.185,25.829a1,1,0,1,0-1.848.764A22.01,22.01,0,0,1,13.466,46.87.989.989,0,0,0,14,46a1,1,0,0,0-1-1h-.606a21.834,21.834,0,0,1-.894-2H12a1,1,0,0,0,0-2H10.831a22.257,22.257,0,0,1-.758-4.211A22,22,0,0,1,49.9,22.2a1,1,0,1,0,1.625-1.165,24.168,24.168,0,0,0-17.07-9.9,3.978,3.978,0,0,0-.253-6.48,1,1,0,1,0-1.1,1.671A2,2,0,1,1,30,8a1,1,0,0,0-2,0,3.979,3.979,0,0,0,1.544,3.133A23.988,23.988,0,0,0,8.079,36.951,24.3,24.3,0,0,0,8.763,41H8a1,1,0,0,0,0,2Z"/></g></svg>