<?xml version="1.0" ?><svg data-name="Layer 1" id="Layer_1" viewBox="0 0 48 48" xmlns="http://www.w3.org/2000/svg"><defs><style>
      .cls-1, .cls-2, .cls-3 {
        fill: none;
        stroke: #353535;
        stroke-width: 2px;
      }

      .cls-1, .cls-2 {
        stroke-miterlimit: 10;
      }

      .cls-2, .cls-3 {
        stroke-linecap: round;
      }

      .cls-3 {
        stroke-linejoin: round;
      }
    </style></defs><title/><g><line class="cls-1" x1="43.00973" x2="43.00973" y1="22" y2="33"/><line class="cls-1" x1="39.00973" x2="39.00973" y1="22" y2="33"/><line class="cls-1" x1="0.00973" x2="5.00973" y1="23" y2="23"/><line class="cls-1" x1="1.00972" x2="1.00973" y1="23" y2="14"/><line class="cls-2" x1="9.50973" x2="31.00973" y1="11" y2="11"/><line class="cls-1" x1="1.00972" x2="1.00973" y1="23" y2="32"/><path class="cls-2" d="M28,38H39.00973V33h4v5h2.5a57.81387,57.81387,0,0,0,0-26h-2.5v5h-4V13a2,2,0,0,0-2-2h-1l-4.5-5h-17l-4.5,5h-3a2,2,0,0,0-2,2V32h4l4,6H20"/><line class="cls-1" x1="8.00973" x2="10.00973" y1="15" y2="15"/><line class="cls-1" x1="15.00973" x2="31.00973" y1="1" y2="1"/><line class="cls-1" x1="18.00973" x2="18.00973" y1="1" y2="6"/><line class="cls-1" x1="28.00973" x2="28.00973" y1="1" y2="6"/></g><circle class="cls-2" cx="24" cy="25" r="9"/><line class="cls-3" x1="24" x2="24" y1="34" y2="47"/></svg>