<?xml version="1.0" ?><svg style="enable-background:new 0 0 32 32;" version="1.1" viewBox="0 0 32 32" xml:space="preserve" xmlns="http://www.w3.org/2000/svg" xmlns:xlink="http://www.w3.org/1999/xlink"><g id="Guides"/><g id="_x32_0"/><g id="_x31_9"/><g id="_x31_8"/><g id="_x31_7"/><g id="_x31_6"/><g id="_x31_5"/><g id="_x31_4"/><g id="_x31_3"/><g id="_x31_2"/><g id="_x31_1"/><g id="_x31_0"/><g id="_x30_9"/><g id="_x30_8"/><g id="_x30_7"/><g id="_x30_6"/><g id="_x30_5"/><g id="_x30_4"/><g id="_x30_3"/><g id="_x30_2"/><g id="_x30_1"><g><path d="M29,2H3C2.4472656,2,2,2.4472656,2,3v20c0,0.5527344,0.4472656,1,1,1h9v4H9c-0.5527344,0-1,0.4472656-1,1s0.4472656,1,1,1    h4h6h4c0.5527344,0,1-0.4472656,1-1s-0.4472656-1-1-1h-3v-4h9c0.5527344,0,1-0.4472656,1-1V3C30,2.4472656,29.5527344,2,29,2z     M18,28h-4v-4h4V28z M28,22h-9h-6H4V4h24V22z"/><path d="M7,14h4c0.3144531,0,0.6113281-0.1484375,0.7998047-0.4003906l1.9052734-2.5390625l2.3583984,6.2910156    c0.1191406,0.3183594,0.3925781,0.5537109,0.7246094,0.6259766C16.8583984,17.9921875,16.9296875,18,17,18    c0.2626953,0,0.5175781-0.1035156,0.7070313-0.2929688L21.4140625,14H25c0.5527344,0,1-0.4472656,1-1s-0.4472656-1-1-1h-4    c-0.265625,0-0.5195313,0.1054688-0.7070313,0.2929688l-2.9023438,2.9013672l-2.4541016-6.5458984    c-0.1289063-0.3417969-0.4326172-0.5869141-0.7949219-0.6386719c-0.3603516-0.0517578-0.7226563,0.0986328-0.9414063,0.390625    L10.5,12H7c-0.5527344,0-1,0.4472656-1,1S6.4472656,14,7,14z"/></g></g></svg>