<?xml version="1.0" encoding="iso-8859-1"?>
<!-- Generator: Adobe Illustrator 16.0.0, SVG Export Plug-In . SVG Version: 6.00 Build 0)  -->
<!DOCTYPE svg PUBLIC "-//W3C//DTD SVG 1.1//EN" "http://www.w3.org/Graphics/SVG/1.1/DTD/svg11.dtd">
<svg version="1.1" id="Capa_1" xmlns="http://www.w3.org/2000/svg" xmlns:xlink="http://www.w3.org/1999/xlink" x="0px" y="0px"
	 width="67.26px" height="67.26px" viewBox="0 0 67.26 67.26" style="enable-background:new 0 0 67.26 67.26;" xml:space="preserve"
	>
<g>
	<g>
		<g>
			<path d="M23.988,66.734c-0.032,0-0.063,0-0.096,0c-2.272,0-4.224-1.549-6.824-4.15L4.34,49.858
				c-5.096-5.098-6.28-8.172-0.42-14.031L32.838,7.91c0.795-0.766,2.062-0.745,2.827,0.051c0.769,0.794,0.745,2.061-0.05,2.827
				L6.724,38.679c-3.692,3.692-3.665,4.24,0.445,8.353l12.729,12.728c1.466,1.467,3.096,2.968,4.067,2.984
				c0.934,0.003,2.565-1.443,3.997-2.875l28.917-27.917c0.794-0.767,2.062-0.745,2.827,0.05c0.769,0.794,0.745,2.061-0.05,2.827
				L30.764,62.715C28.231,65.25,26.29,66.734,23.988,66.734z"/>
		</g>
		<g>
			<path d="M32.469,60.19c-0.523,0-1.047-0.204-1.438-0.611c-0.768-0.794-0.745-2.061,0.05-2.827L59.975,28.86
				c3.69-3.693,3.663-4.241-0.446-8.352L46.799,7.779c-3.971-3.971-4.195-3.978-8.064-0.109L9.816,35.585
				c-0.793,0.77-2.061,0.747-2.827-0.05c-0.768-0.794-0.745-2.06,0.05-2.827L35.931,4.817c5.383-5.383,8.203-5.359,13.696,0.134
				L62.355,17.68c2.614,2.614,4.157,4.579,4.307,6.887c0.164,2.541-1.435,4.694-3.886,7.146L33.858,59.627
				C33.47,60.002,32.969,60.19,32.469,60.19z"/>
		</g>
		<g>
			<path d="M61.096,19.835c-0.512,0-1.022-0.195-1.413-0.586c-0.781-0.781-0.781-2.047,0-2.828l0.441-0.442
				c4.087-4.086,4.126-4.89,0.421-8.596c-3.864-3.863-4.944-3.852-8.906,0.11l-0.441,0.442c-0.781,0.781-2.047,0.781-2.828,0
				c-0.781-0.781-0.781-2.047,0-2.828l0.442-0.442c5.484-5.485,9.159-5.514,14.562-0.11c5.881,5.882,4.55,9.282-0.421,14.252
				l-0.442,0.442C62.119,19.639,61.608,19.835,61.096,19.835z"/>
		</g>
		<g>
			<path d="M16.62,36.269c-0.256,0-0.512-0.099-0.707-0.293c-0.391-0.392-0.391-1.023,0-1.414l0.707-0.707
				c0.391-0.391,1.023-0.391,1.414,0c0.391,0.39,0.391,1.022,0,1.414l-0.707,0.707C17.131,36.17,16.875,36.269,16.62,36.269z"/>
		</g>
		<g>
			<path d="M20.861,32.027c-0.266,0-0.53-0.105-0.727-0.313c-0.38-0.401-0.361-1.034,0.04-1.413l6.682-6.311
				c0.401-0.38,1.035-0.361,1.413,0.04c0.38,0.401,0.361,1.034-0.04,1.413l-6.682,6.311C21.355,31.936,21.108,32.027,20.861,32.027z
				"/>
		</g>
		<g>
			<path d="M43.881,24.623c-0.266,0-0.529-0.105-0.728-0.313c-0.379-0.401-0.36-1.034,0.041-1.414l6.208-5.862
				c0.401-0.378,1.034-0.359,1.414,0.041c0.379,0.401,0.359,1.034-0.041,1.414l-6.208,5.862
				C44.374,24.532,44.127,24.623,43.881,24.623z"/>
		</g>
		<g>
			<path d="M49.916,24.796c-0.266,0-0.53-0.105-0.727-0.313l-5.863-6.208c-0.38-0.401-0.361-1.034,0.04-1.413
				c0.402-0.38,1.035-0.36,1.413,0.04l5.863,6.208c0.38,0.401,0.36,1.034-0.04,1.413C50.409,24.705,50.162,24.796,49.916,24.796z"/>
		</g>
		<g>
			<path d="M20.731,53.98c-0.266,0-0.53-0.105-0.727-0.313l-5.862-6.207c-0.38-0.4-0.361-1.034,0.04-1.413
				c0.402-0.38,1.035-0.359,1.413,0.04l5.862,6.207c0.38,0.401,0.361,1.034-0.04,1.413C21.225,53.888,20.978,53.98,20.731,53.98z"/>
		</g>
	</g>
</g>
<g>
</g>
<g>
</g>
<g>
</g>
<g>
</g>
<g>
</g>
<g>
</g>
<g>
</g>
<g>
</g>
<g>
</g>
<g>
</g>
<g>
</g>
<g>
</g>
<g>
</g>
<g>
</g>
<g>
</g>
</svg>
