<?xml version="1.0" ?><svg height="16px" version="1.1" viewBox="0 0 16 16" width="16px" xmlns="http://www.w3.org/2000/svg" xmlns:sketch="http://www.bohemiancoding.com/sketch/ns" xmlns:xlink="http://www.w3.org/1999/xlink"><title/><defs/><g fill="none" fill-rule="evenodd" id="Icons with numbers" stroke="none" stroke-width="1"><g fill="#000000" id="Group" transform="translate(-576.000000, -576.000000)"><path d="M584,590 C587.313709,590 590,587.313709 590,584 C590,580.686291 587.313709,578 584,578 C580.686291,578 578,580.686291 578,584 C578,587.313709 580.686291,590 584,590 Z M584,592 C579.581722,592 576,588.418278 576,584 C576,579.581722 579.581722,576 584,576 C588.418278,576 592,579.581722 592,584 C592,588.418278 588.418278,592 584,592 Z M584,588 C581.790861,588 580,586.209139 580,584 C580,581.790861 581.790861,580 584,580 C586.209139,580 588,581.790861 588,584 C588,586.209139 586.209139,588 584,588 Z M584,588" id="Oval 12 copy 2"/></g></g></svg>