<svg width="512" height="512" xmlns="http://www.w3.org/2000/svg">

 <g>
  <title>background</title>
  <rect fill="none" id="canvas_background" height="402" width="582" y="-1" x="-1"/>
 </g>
 <g>
  <title>Layer 1</title>
  <path fill="#000000" id="path2995" d="m246.59375,40.156273c-58.52471,0.90382 -113.81148,25.80565 -153.374999,67.4375c-23.97789,25.23142 -42.18641,56.6062 -51.8125,92.53125l29,7.78125c26.60719,-99.29939 128.26311,-157.982189 227.562499,-131.375c58.10423,15.56899 104.69938,58.14578 125.71875,113.875l-24.9375,0l40.5,90.53125l40.53125,-90.53125l-24.3125,0c-22.28148,-69.87625 -78.62988,-123.82679 -149.718749,-142.875c-19.75877,-5.29435 -39.64801,-7.67627 -59.15625,-7.375z"/>
  <path fill="#000000" id="path3036" d="m47.937501,263.000022l-15.71875,97.96875l25.4375,-6.8125c24.45424,47.89891 66.01029,85.07593 116.625,104c111.47851,41.68011 236.069919,-15.11521 277.749999,-126.59375l-28.09375,-10.5c-36.00212,96.29205 -142.83295,145.00212 -239.124999,109c-41.5614,-15.53917 -76.00559,-45.38199 -97.375,-83.875l23.0625,-6.1875l-62.5625,-77z"/>
  <text xml:space="preserve" text-anchor="start" font-family="Helvetica, Arial, sans-serif" font-size="250" id="svg_1" y="316.667515" x="187.308958" stroke-width="0" stroke="#000" fill="#000000">x</text>
 </g>
</svg>